<svg xmlns="http://www.w3.org/2000/svg" viewBox="0 0 142.57 190.229"><title>Los Angeles Angels of Anaheim hat dark logo</title><path d="M77.96 190.23h54.215c-5.015-3.412-9.434-9.375-11.408-16.174l-15.153-52.018c-1.645-5.596 1.025-11.19 5.294-14.98-6.05-1.85-11.408-6.064-13.113-11.848l-8.477-29.114c12.066-4.024 19.935-11.18 19.935-19.483 0-10.845-13.436-19.73-32.112-22.27L70.054 0h-7.946l-7.09 24.343c-18.685 2.54-32.134 11.425-32.134 22.27 0 8.303 7.88 15.458 19.958 19.483L34.354 95.21c-1.666 5.784-7.05 9.997-13.097 11.848 4.253 3.79 6.934 9.384 5.306 14.98l-15.164 52.018c-2 6.8-6.4 12.762-11.398 16.173h54.21c-4.436-3.412-6.855-9.375-4.87-16.174l1.33-4.548H81.5l1.322 4.548c1.99 6.8-.436 12.762-4.86 16.173zM61.416 132.68l4.676-16.084 4.67 16.084h-9.345z" fill="#FFF"/><path d="M123.047 186.54c-2.575-3.39-4.642-7.324-5.846-11.448l-15.047-51.65c-2.396-8.204 2.024-14.023 2.603-14.958-5.233-2.832-9.062-7.145-10.51-12.24l-9.17-31.442c12.926-3.445 21.73-10.288 21.73-18.19 0-9.998-14.167-18.347-32.908-20.197L67.284 3.69h-2.397l-6.615 22.726c-18.764 1.85-32.93 10.2-32.93 20.197 0 7.902 8.822 14.745 21.74 18.19l-9.163 31.443c-1.478 5.094-5.284 9.407-10.53 12.24.592.935 5.017 6.754 2.62 14.956l-15.052 51.65c-1.204 4.125-3.265 8.06-5.857 11.448h37.536c-3.037-6.7-1.438-11.57-.08-16.162l1.333-4.57h36.38l1.35 4.57c1.33 4.593 2.92 9.463-.107 16.162h37.534zM56.44 136.393l9.65-33.048 9.62 33.048H56.44z" fill="#003263"/><path d="M76.055 54.694l-4.82-16.596.947 3.31c-1.973-.1-4.013-.178-6.09-.178v10.766l28.906 99.11 6.654 22.74 11.42 6.843c-.803-1.74-1.51-3.512-2.052-5.34l-14.395-49.266c-2.27-7.69-1.026-11.023.62-15.66-4.32-3.31-7.208-7.635-8.606-12.505L77.72 60.4l-.016.01-1.65-5.716zM69.48 32.045l-3.39-11.603v11.536c1.144 0 2.258.022 3.39.067zM30.34 174.447l9.234 6.24c-.48-3.108-.027-7.188.87-10.097l3.05-10.61-6.343-8.874-6.81 23.34z" fill="#BA0021"/><path fill="#BA0021" d="M48.658 142.223l17.433-59.7V51.997l-28.94 99.11h57.848l-11.525-8.883"/><path fill="#862633" d="M66.09 82.524l17.383 59.7 11.525 8.882-28.907-99.11"/><path d="M113.072 180.688l-11.42-6.844L95 151.106H37.15l28.94-99.11V41.228c2.08 0 4.12.077 6.092.177l-.947-3.31c-.257 0-.524-.01-.78-.034-1.428-.066-2.877-.122-4.364-.122-1.754 0-3.482.068-5.16.157l-4.837 16.596h.017l-1.666 5.717h-.017L43.492 97.918c-1.394 4.87-4.24 9.195-8.572 12.506 1.628 4.636 2.87 7.97.613 15.66L21.14 175.35c-.542 1.827-1.233 3.6-2.08 5.338h20.515l-9.235-6.24 6.81-23.342 6.343 8.873H88.64l3.115 10.61c.835 2.908 1.3 6.99.835 10.098h20.482zM66.09 20.442L62.71 32.045c1.114-.045 2.246-.067 3.383-.067V20.442z" fill="#862633"/><path d="M56.11 54.694h-.017c-10.472-1.237-17.907-4.403-17.907-8.08 0-4.237 9.793-7.76 22.744-8.517 1.678-.09 3.406-.156 5.16-.156 1.488 0 2.938.057 4.364.123.257.023.524.034.78.034 12.936.746 22.755 4.27 22.755 8.516 0 3.677-7.463 6.844-17.924 8.08h-.01l1.65 5.718.015-.01c13.483-2.006 23.174-7.41 23.174-13.787 0-7.59-13.805-13.843-31.416-14.568-1.13-.045-2.245-.067-3.388-.067-1.137 0-2.27.023-3.383.067-17.66.725-31.432 6.977-31.432 14.568 0 6.376 9.668 11.78 23.15 13.798h.017l1.668-5.716z" fill="#C4CED4"/><g><g fill="#003263"><path d="M139.966 182.683c0-1.437-.847-1.672-2.073-1.672h-2.602v5.374h1.126v-2.14h.924l1.227 2.14h1.248l-1.298-2.14c.948-.08 1.45-.602 1.45-1.56zm-2.05.613h-1.5v-1.303h1.232c.524 0 1.214 0 1.214.58 0 .567-.344.723-.947.723z"/><path d="M137.432 178.548c-2.86 0-5.117 2.308-5.117 5.183 0 2.844 2.258 5.128 5.117 5.128 2.88 0 5.138-2.284 5.138-5.127 0-2.875-2.258-5.182-5.138-5.182zm0 9.207c-2.207 0-3.974-1.728-3.974-4.024 0-2.306 1.767-4.034 3.974-4.034 2.2 0 4.012 1.728 4.012 4.035 0 2.297-1.812 4.025-4.012 4.025z"/></g></g></svg>