<svg xmlns="http://www.w3.org/2000/svg" viewBox="0 0 145.82 136.704"><title>Kansas City Royals hat dark logo</title><g fill="#004687"><path d="M12.812 17.735c0-9.63-5.854-12.725-11.1-12.653L0 5.01V.02h34.194l.006 5.083c-4.902.41-9.91 3.713-9.91 12.632v29.997l2.37-1.47c4.927-7.696 17.858-28.106 20.548-34 3.312-7.222-1.75-7.222-6.605-7.222V0h30.31v5.04H68.78c-3.298 0-7.377 0-12.824 7.438-6.964 9.535-20.795 32.64-20.795 32.64 21.182 1.76 29.15 33.97 34.59 38.34-3.11-23.01 12.253-51.703 34.79-50.59 2.522.113 5.628-.238 12.82 1.954 7.195 2.19 7.853-1.74 8.815-6.132h5.38V66.6h-4.654c-.385-6.565-3.322-28.28-22.302-28.94-19.294-.647-22.925 24.104-23.187 40.995-.966 62.422 38.285 60.457 45.475 40.295 1.05-2.912.592-3.745-.587-4.382-8.554-4.59 1.363-16.87 6.857-6.132 2.52 4.928-1.99 28.27-25.516 28.27-36.525 0-47.214-56.54-60.814-74.942-10.595-14.33-19.237-7.88-22.488-4.373l-.143 9.846.087 17.54c0 9.64 5.848 12.735 11.105 12.673l1.713.06v4.97H0v-4.97l1.713-.06c5.246.06 11.1-3.036 11.1-12.675v-67.04M136.963 130.543h-1.966v5.34h-1.322v-5.34h-1.954v-1.132h5.243v1.133zm8.857 5.34h-1.322v-5.155h-.03l-1.874 5.154h-1.28l-1.82-5.154h-.037v5.154h-1.31v-6.47h2.292l1.5 4.217h.03l1.57-4.22h2.28v6.472z"/></g></svg>