<svg xmlns="http://www.w3.org/2000/svg" viewBox="0 0 141.848 185.66"><title>Los Angeles Dodgers hat dark logo</title><g fill="#005A9C"><path d="M110.426 102.617v19.01l-8.422.01c-.388-1.65-18.278-76.424-18.278-76.424H56.91s-17.856 74.775-18.244 76.425h-6.36V17.996h14.027V0L.72.118v17.878h13.213V122.52H0v18.162h34.108c-.566 2.355-5.842 24.39-6.183 25.875H14.063v19.103l47.356-.095v-19.008H48.086c.507-2.344 5.572-24.357 5.9-25.875H86.66c.364 1.518 5.404 23.53 5.923 25.875H79.24v19.008l47.356.095-.012-19.103h-13.85c-.34-1.485-5.618-23.52-6.17-25.875h22.93v-38.065h-19.068zm-52.09 19.02c.563-2.378 10.622-46.25 11.988-52.292 1.39 6.042 11.435 49.913 11.978 52.293H58.335zM139.492 179.594c0-1.295-.765-1.52-1.884-1.52h-2.367v4.888h1.014v-1.943h.848l1.13 1.942h1.12l-1.178-1.943c.86-.072 1.318-.542 1.318-1.426zm-1.872.553h-1.366v-1.177h1.13c.484 0 1.096 0 1.096.542 0 .506-.306.635-.86.635z"/><path d="M137.196 175.86c-2.615 0-4.652 2.097-4.652 4.7 0 2.58 2.037 4.652 4.652 4.652 2.603 0 4.653-2.072 4.653-4.652-.002-2.603-2.052-4.7-4.654-4.7zm0 8.363c-2.014 0-3.628-1.577-3.628-3.663 0-2.108 1.614-3.687 3.628-3.687 2.002 0 3.64 1.58 3.64 3.687 0 2.085-1.64 3.663-3.64 3.663z"/></g></svg>