<svg xmlns="http://www.w3.org/2000/svg" viewBox="0 0 233.041 200.872"><title>Toronto Blue Jays hat light logo</title><path fill="#FFF" d="M187.795 122.19h1.415v3.87h.95v-3.87h1.42v-.836h-3.785M195.212 124.424h-.024l-1.092-3.07h-1.66v4.706h.96v-3.738h.018l1.326 3.738h.92l1.355-3.738h.024v3.738h.954v-4.706h-1.648"/><path d="M71.05 72.304s-1.355-3.404.383-6.89c.68-1.374 1.976-2.628 3.702-3.655 12.803-8.577 39.92.214 39.92.214-6.437-.586-11.733-.478-16.183.13 7.56 2.342 15.652 5.542 21.134 6.857 6.735 1.648 11.214 2.485 17.92 2.88l-.215-2.628 3.734.632 9.937 1.684 1.464-3.702 1.618-4.097 3.154 3.056c.07.06 4.95 4.826 7.524 7.31-.448-4.682-1.607-16.6-1.618-16.733l-.466-4.825 4.485 1.827 4.886 1.96 7.35-12.005 2.485-4.073 2.515 4.073 5.923 9.686c2.06-8.408 3.542-17.317 7.87-21.438-4.334.155-7.392 1.386-12.12 4.705 2.686-7.26 6.65-12.66 12.026-18.81-5.214.79-10.193 2.294-15.078 5.064 1.863-4.443 1.99-9.937 1.99-9.937C162.5 40.165 98.675 39.82 82.15 45.24c-10.843 3.56-16.403 9.47-20.266 15.3-.37 6.032 4.008 11.764 9.166 11.764z" fill="#134A8E"/><path fill="#1D2D5C" d="M163.372 110.39l-4.27 5.136 4.27-5.135"/><path d="M152.39 119.025l4.466-5.363 2.413-2.925-9.358-8.085c-5.088 7.787-10.044 16.206-12.41 22.728l10.295-.06c-5.29 6.556-15.49 17.413-22.345 29.392-6.862-16.828-22.92-38.504-51.93-50.4-8.413-3.45-16.343-8.026-15.31-14.678-14.536-2.078-30.426-3.75-48.442-4.348-1.38-.023-2.645-.035-3.786-.048-1.057-.035-1.326.418-.18 1.302 4.946 3.594 21.695 10.08 42.26 13.902 9.896 1.84 14.422 4.538 21.51 9.506 15.456 10.82 36.524 39.77 49.368 77.5 24.353-47.307 52.635-68.542 54.874-70.167l-14.487 1.17-6.94.575zM5.334 84.032c10.313-.418 24.793-.932 50.083-.083 2.138.022 4.24.082 6.29.118 1.277-1.696 3.593-3.2 8.007-3.2h1.314c8.21.12 9.734 8.55 18.463 8.55 8.696 0 10.23-8.36 18.382-8.54.22 0 .47-.01.68-.01h30.12l-.41-5.005h-30.157c-8.36 0-9.84-8.54-18.625-8.54-8.654 0-10.212 8.457-18.255 8.517-8.713-.526-12.164-7.81-12.845-14.01-3.81 1.625-5.77 3.523-8.63 8.05C18.615 75.028 7.96 80.008 5.167 83.114c-.412.55-.238.812.168.92zm80.813-12.826c-.61 2.472-.27 4.574-.126 5.672h-2.924c-.066-2.198 1.236-4.467 3.05-5.672z" fill="#1D2D5C"/><path d="M86.147 71.206c-1.815 1.206-3.117 3.474-3.05 5.672h2.924c-.142-1.098-.482-3.2.127-5.672z" fill="#FFF"/><path d="M233.04 86.78l-4.818-1.66-2.633-.91.93-11.238.305-3.762-3.726.632-9.955 1.684-1.452-3.702-1.618-4.097-3.165 3.057c-.06.06-4.938 4.826-7.524 7.31.472-4.682 1.618-16.6 1.624-16.733l.472-4.824-4.48 1.827-2.024.812c.203-.955.4-1.91.586-2.842 1.188-5.924 4.162-16.29 9.788-24.21 0 0-3.59-.86-9.1.74-1.56.456-.12.025-.173.038 1.826-4.36 9.977-15.537 9.977-15.537s-11.544-.203-15.89 2.424C192.865 6.89 190.614 0 190.614 0l-8.97 10.39C166.19 28.34 128.51 33.286 103.58 36.57c-10.08 1.338-18.052 2.388-22.96 4.002-11.878 3.88-18.094 10.533-21.79 15.728l-2.365 1.003c-4.532 1.924-7.107 4.395-9.638 8.062-25.66 4.37-40.483 9.1-45.313 14.427l-.323.394C.107 81.666-.25 83.41.173 85 .02 86.386.3 88.463 2.748 90.398l.172.13c5.858 4.24 23.355 10.87 44.25 14.764 9.375 1.732 13.4 3.128 19.378 8.54 29.72 26.92 44.32 67.347 50.943 87.04l7.435-13.674c24.836-43.592 49.164-63.74 49.45-64.014l5.15-4.682.136.262 2.6 5.004 2.61-5.015.972-1.876 19.36 1.576 6.95.574-4.466-5.363-2.42-2.925 23.91-20.616 3.865-3.345zM82.15 45.24c16.525-5.42 80.35-5.075 103.233-31.65 0 0-.126 5.494-1.99 9.937 4.886-2.77 9.866-4.276 15.08-5.063-5.376 6.15-9.34 11.55-12.028 18.81 4.73-3.32 7.787-4.55 12.122-4.706-4.33 4.12-5.81 13.03-7.87 21.438l-5.924-9.686-2.514-4.073-2.485 4.073-7.35 12.004-4.886-1.96-4.486-1.826.466 4.825c.01.132 1.17 12.05 1.618 16.733-2.574-2.484-7.453-7.25-7.524-7.31l-3.154-3.057-1.618 4.096-1.463 3.702-9.938-1.684-3.733-.632.214 2.627c-6.707-.395-11.185-1.23-17.92-2.88-5.483-1.314-13.574-4.514-21.134-6.855 4.45-.61 9.746-.717 16.184-.13 0 0-27.117-8.792-39.92-.216-1.727 1.026-3.023 2.28-3.703 3.653-1.737 3.488-.382 6.89-.382 6.89-5.16 0-9.537-5.73-9.166-11.763 3.866-5.83 9.425-11.74 20.27-15.3zM5.167 83.113C7.96 80.007 18.614 75.027 49.75 69.88c2.86-4.527 4.82-6.426 8.63-8.05.68 6.198 4.13 13.483 12.844 14.01 8.044-.06 9.602-8.517 18.255-8.517 8.782 0 10.263 8.54 18.624 8.54h30.156l.412 5.003h-30.12c-.21 0-.46.012-.68.012-8.152.18-9.687 8.54-18.382 8.54-8.73 0-10.252-8.432-18.463-8.552h-1.313c-4.414 0-6.73 1.504-8.008 3.2-2.048-.034-4.15-.094-6.29-.118-25.29-.85-39.77-.335-50.082.083-.405-.105-.58-.368-.167-.917zm113.776 104.334c-12.844-37.728-33.912-66.678-49.367-77.5-7.088-4.967-11.615-7.666-21.51-9.505C27.5 96.62 10.75 90.135 5.805 86.542c-1.146-.885-.877-1.34.18-1.303 1.14.01 2.407.023 3.786.047 18.017.598 33.907 2.27 48.442 4.348-1.032 6.652 6.898 11.227 15.312 14.678 29.01 11.896 45.067 33.572 51.93 50.4 6.854-11.98 17.053-22.835 22.344-29.392l-10.295.06c2.365-6.52 7.322-14.94 12.41-22.727l9.357 8.085-2.413 2.925-4.466 5.363 6.94-.574 14.487-1.17c-2.24 1.625-30.522 22.86-54.875 70.165zm82.23-77.056l4.257 5.136-21.29-1.732-.9 1.744-.967 1.863-.012.013-.483-.967-.245-.466-1.14-2.185-11.388.932-.012-.012-8.39.692-1.5.12 4.272-5.135L137.27 87.89l4.783-1.648-1.1-13.508 12.28 2.113 2.346-5.947s7.918 7.715 8.968 8.72c.68.644 1.44 1.014 2.096 1.014 1.02 0 1.786-.932 1.576-3.177-.017-.203-.054-.537-.09-.955-.4-4.073-1.683-17.39-1.69-17.425l7.19 2.89 8.63-14.105h.012l8.634 14.105 3.302-1.326 3.888-1.563c-.006.035-1.295 13.352-1.69 17.425-.035.418-.07.752-.09.955-.208 2.245.55 3.177 1.584 3.177.645 0 1.403-.383 2.09-1.015 1.05-1.005 8.975-8.72 8.975-8.72l2.335 5.947 12.296-2.113-1.117 13.508 4.788 1.647-26.096 22.5z" fill="#FFF"/><path d="M223.595 72.734L211.3 74.847l-2.336-5.947s-7.925 7.715-8.975 8.72c-.688.63-1.447 1.014-2.09 1.014-1.034 0-1.793-.932-1.584-3.177.018-.203.054-.537.09-.955.394-4.073 1.683-17.39 1.69-17.425l-3.89 1.564-3.3 1.327-8.635-14.105h-.01l-8.63 14.105-7.19-2.89c.006.035 1.29 13.352 1.69 17.425.035.418.072.752.09.955.208 2.245-.556 3.177-1.577 3.177-.657 0-1.415-.37-2.096-1.015-1.05-1.005-8.97-8.72-8.97-8.72l-2.345 5.947-12.28-2.113 1.1 13.508-4.783 1.647 26.1 22.5-4.27 5.136 1.5-.12 8.39-.692 11.4-.92 1.14 2.185.245.465.497.955.967-1.863.9-1.744 21.288 1.732-4.257-5.135 26.097-22.502-4.79-1.647 1.118-13.506z" fill="#E8291C"/></svg>