<svg xmlns="http://www.w3.org/2000/svg" viewBox="0 0 233.014 200.872"><title>Toronto Blue Jays hat dark logo</title><path fill="#134A8E" d="M186.758 121.894h1.69v4.63h1.142v-4.63h1.7v-1.012h-4.532M195.65 124.575h-.024l-1.317-3.693h-1.99v5.64h1.15v-4.47h.028l1.576 4.47h1.12l1.617-4.47h.03v4.47h1.153v-5.64h-1.982M71.04 72.32s-1.363-3.423.37-6.89c.687-1.375 1.994-2.647 3.728-3.65 12.788-8.593 39.89.203 39.89.203-6.437-.574-11.708-.473-16.173.125 7.557 2.365 15.65 5.53 21.127 6.87 6.745 1.643 11.222 2.476 17.923 2.87l-.21-2.635 3.728.642 9.933 1.688 1.47-3.705 1.61-4.11 3.153 3.074c.083.057 4.954 4.82 7.527 7.32-.46-4.707-1.604-16.612-1.62-16.746l-.468-4.82 4.48 1.825 4.894 1.96 7.342-11.994 2.494-4.098 2.506 4.098 5.923 9.686c2.066-8.412 3.547-17.332 7.872-21.453-4.33.157-7.388 1.384-12.118 4.706 2.68-7.264 6.65-12.647 12.016-18.807-5.21.776-10.186 2.285-15.074 5.067 1.865-4.426 1.994-9.933 1.994-9.933C162.477 40.17 98.658 39.854 82.138 45.26c-10.84 3.548-16.397 9.46-20.26 15.293-.377 6.014 4.004 11.768 9.16 11.768z"/><path fill="#1D2D5C" d="M163.34 110.397l-4.258 5.124 4.257-5.123"/><path d="M152.36 119.034l4.47-5.372 2.415-2.928-9.352-8.063c-5.084 7.76-10.045 16.195-12.41 22.704l10.298-.033c-5.292 6.544-15.49 17.377-22.342 29.393-6.864-16.847-22.923-38.514-51.932-50.418-8.4-3.457-16.33-8.018-15.305-14.673-14.53-2.084-30.42-3.75-48.44-4.347-1.368-.022-2.64-.045-3.784-.057-1.047-.01-1.317.406-.18 1.33 4.944 3.56 21.706 10.034 42.264 13.885 9.89 1.836 14.404 4.55 21.516 9.516 15.44 10.787 36.51 39.763 49.348 77.466 24.353-47.286 52.63-68.515 54.866-70.158l-14.483 1.182-6.948.574zM5.323 84.068c10.315-.45 24.798-.947 50.08-.113 2.145.033 4.25.068 6.295.113 1.266-1.678 3.598-3.187 8.007-3.187h1.305c8.222.126 9.742 8.548 18.47 8.548 8.688 0 10.23-8.367 18.378-8.536.22-.012.46-.012.682-.012h30.107l-.41-5h-30.154c-8.356 0-9.842-8.547-18.62-8.547-8.643 0-10.21 8.446-18.255 8.525-8.71-.52-12.163-7.816-12.838-14.01-3.807 1.62-5.766 3.514-8.637 8.04C18.61 75.037 7.953 80.014 5.16 83.122c-.417.553-.23.823.163.948zm80.813-12.862c-.614 2.478-.264 4.584-.13 5.676H83.08c-.064-2.196 1.25-4.46 3.056-5.676z" fill="#1D2D5C"/><path d="M86.136 71.206c-1.807 1.217-3.12 3.48-3.057 5.676h2.927c-.135-1.092-.485-3.198.13-5.676z" fill="#FFF"/><path d="M233.014 86.78l-4.82-1.665-2.635-.9.94-11.24.3-3.762-3.73.642-9.937 1.688-1.465-3.705-1.61-4.11-3.164 3.074c-.068.057-4.944 4.82-7.53 7.32.475-4.707 1.624-16.612 1.63-16.746l.46-4.82-4.47 1.825-2.028.8c.197-.957.394-1.903.58-2.838 1.194-5.924 4.172-16.295 9.797-24.212 0 0-3.598-.867-9.104.732-1.56.462-.126.034-.18.056 1.834-4.358 9.976-15.54 9.976-15.54s-11.532-.204-15.88 2.432c2.692-8.895.446-15.81.446-15.81l-8.958 10.394c-15.463 17.962-53.143 22.917-78.06 26.183-10.085 1.35-18.058 2.387-22.968 4.01-11.87 3.896-18.09 10.53-21.786 15.73l-2.37 1.003c-4.527 1.915-7.112 4.392-9.64 8.075C21.16 69.755 6.33 74.472 1.504 79.81l-.32.394C.102 81.68-.253 83.414.174 85c-.167 1.397.12 3.47 2.57 5.42l.167.122c5.856 4.246 23.357 10.856 44.246 14.753 9.37 1.746 13.407 3.142 19.376 8.547 29.72 26.915 44.32 67.322 50.936 87.03l7.438-13.683c24.826-43.583 49.162-63.742 49.455-64l5.135-4.697.14.28 2.603 5 2.603-5.02.985-1.87 19.336 1.576 6.96.573-4.466-5.372-2.416-2.927 23.91-20.62 3.862-3.332zM82.138 45.26c16.52-5.405 80.34-5.09 103.223-31.644 0 0-.128 5.507-1.993 9.933 4.888-2.783 9.865-4.292 15.074-5.07-5.366 6.16-9.335 11.544-12.015 18.808 4.73-3.322 7.787-4.55 12.118-4.707-4.324 4.123-5.806 13.042-7.873 21.454l-5.923-9.686-2.506-4.098-2.493 4.098-7.342 11.994-4.894-1.96-4.48-1.823.467 4.818c.017.135 1.16 12.04 1.62 16.746-2.572-2.5-7.443-7.264-7.527-7.32l-3.153-3.074-1.61 4.11-1.47 3.705-9.933-1.688-3.727-.642.21 2.635c-6.702-.394-11.18-1.227-17.924-2.87-5.48-1.34-13.57-4.505-21.127-6.87 4.465-.597 9.736-.7 16.172-.125 0 0-27.1-8.795-39.89-.202-1.733 1.002-3.04 2.274-3.727 3.65-1.732 3.467-.37 6.89-.37 6.89-5.157 0-9.538-5.754-9.16-11.768 3.86-5.835 9.42-11.747 20.258-15.295zM5.158 83.12c2.794-3.107 13.453-8.084 44.575-13.23 2.87-4.528 4.83-6.42 8.637-8.042.676 6.194 4.127 13.49 12.838 14.01 8.046-.08 9.612-8.525 18.255-8.525 8.778 0 10.264 8.547 18.62 8.547h30.153l.41 5H108.54c-.22 0-.462 0-.682.012-8.148.168-9.69 8.536-18.38 8.536-8.726 0-10.246-8.423-18.467-8.547h-1.305c-4.41 0-6.74 1.51-8.007 3.188-2.045-.045-4.15-.08-6.295-.113-25.282-.834-39.765-.338-50.08.113-.394-.125-.58-.395-.164-.947zm113.766 104.316c-12.838-37.703-33.91-66.68-49.348-77.467-7.112-4.968-11.628-7.68-21.516-9.517C27.502 96.6 10.74 90.126 5.796 86.568c-1.137-.924-.867-1.34.18-1.33 1.143.012 2.416.035 3.785.057 18.02.597 33.91 2.264 48.44 4.347-1.023 6.655 6.905 11.216 15.306 14.673 29.01 11.904 45.07 33.57 51.932 50.418 6.852-12.016 17.05-22.85 22.343-29.392l-10.298.034c2.365-6.51 7.326-14.944 12.41-22.703l9.353 8.064-2.415 2.928-4.47 5.372 6.947-.574 14.483-1.182c-2.236 1.643-30.513 22.872-54.866 70.158zm82.22-77.04l4.27 5.125-21.29-1.722-.913 1.746-.968 1.87-.496-.948-.236-.46-1.137-2.208-11.39.924h-.018l-8.384.686-1.497.113 4.256-5.123-26.082-22.512 4.775-1.633-1.098-13.513 12.28 2.105 2.336-5.947s7.923 7.715 8.982 8.728c.682.653 1.43 1.002 2.09 1.002 1.02 0 1.785-.924 1.576-3.164l-.09-.957c-.394-4.076-1.684-17.377-1.684-17.41l7.18 2.893 8.637-14.11 8.638 14.11 3.3-1.328 3.896-1.566c-.01.033-1.29 13.334-1.69 17.41-.044.417-.072.767-.1.958-.196 2.24.564 3.164 1.59 3.164.646 0 1.412-.36 2.093-1.002 1.047-1.014 8.97-8.728 8.97-8.728l2.342 5.947 12.285-2.106-1.11 13.512 4.776 1.633-26.086 22.512z" fill="#FFF"/><path d="M223.566 72.74l-12.286 2.105-2.343-5.947s-7.922 7.715-8.97 8.728c-.68.64-1.446 1.002-2.093 1.002-1.025 0-1.785-.924-1.588-3.164.028-.19.055-.54.1-.957.4-4.076 1.68-17.377 1.69-17.41l-3.898 1.565-3.3 1.328-8.636-14.11-8.637 14.11-7.18-2.894c0 .033 1.29 13.334 1.684 17.41.038.417.072.767.09.958.208 2.24-.558 3.164-1.577 3.164-.658 0-1.408-.35-2.09-1.002-1.06-1.014-8.98-8.728-8.98-8.728l-2.337 5.947-12.28-2.106 1.098 13.512-4.775 1.633 26.08 22.512-4.256 5.124 1.498-.112 8.384-.686 11.408-.924 1.137 2.207.237.46.496.948.97-1.87.91-1.745 21.29 1.723-4.268-5.123 26.088-22.512-4.775-1.633 1.108-13.513z" fill="#E8291C"/></svg>