<svg xmlns="http://www.w3.org/2000/svg" viewBox="0 0 114.46 183.174"><title>Seattle Mariners Cap Logo on Light</title><path d="M63.303 65.57c1.38.374 2.72.87 3.987 1.48l3.39-2.162c-2.732-1.467-5.557-3.068-8.246-4.795l.87 5.478zM48.087 108.983h.013l-.013-.013v.013zM46.392 108.138l.006.01c-.006-.01-.013-.01-.013-.01h.007z" fill="#005C5C"/><path d="M99.772 91.184c-1.44.248-2.994.52-4.64.795l-.2.036c3.914 7.105 6.26 15.886 6.26 26.83 0 32.878-21.37 56.168-46.093 56.168-15.844 0-22.042-6.248-25.88-7.44l-17.104 6.184v-53.956c4.093.472 7.577 4.197 9.496 8.036 7.595 15.18 16.203 28.058 32.53 28.058 9.603 0 15.962-8.855 15.962-21.45 0-7.007-3.13-12.57-7.757-17.316-.043.26-.08.52-.125.782-.366 2.273-.714 4.422-.968 5.95 2.708 3.863 4.117 7.713 4.117 11.44 0 4.683-1.21 15.552-12.432 15.552-15.353 0-24.042-19.402-27.75-27.687-2.87-6.41-10.93-10.558-15.644-11.08l-2.452-.273v69.21s20.047-7.19 21.537-7.738c.496.224 1.018.435 1.018.435 5.956 2.547 14.955 6.373 24.495 6.373 25.624 0 52.137-22.73 52.137-60.776 0-10.52-2.21-19.95-6.508-28.133zM79.44 69.744c-.356.795-.74 1.64-1.162 2.546 0 0-.273.61-.684 1.503-.043.086-.08.173-.123.273 4.305 2.682 8.285 5.886 11.714 9.775.074.014.15.026.217.038 2.186.373 4.404.745 6.565 1.13-4.236-5.923-9.77-11.04-16.526-15.264zM77.246 8.36C71.676 4.185 62.77 0 52.938 0 34.256 0 6.608 17.166 6.608 54.032c0 12.483 2.714 22.78 8.458 31.462 1.49-.248 3.08-.534 4.758-.808l.64-.112c-5.385-7.514-8.813-17.427-8.813-31.748 0-27.6 22.085-48.206 41.65-48.206 8.04 0 17.84 5.366 23.12 9.564 3.112-1.056 14.496-5.738 14.496-5.738V57.51c-3.41-.845-7.185-3.367-8.93-6.36-7.44-12.72-12.118-27.054-24.606-27.054-9.602 0-14.16 6.894-14.16 16.495 0 6.696 3.49 12.658 9.098 17.888.025-.137.045-.286.075-.422.323-2.062.633-3.975.85-5.353-3.172-3.43-5.247-7.28-5.247-11.627 0-3.552.832-11.812 8.546-11.812 8.415 0 12.63 7.887 14.396 12.583 1.676 4.458 5.614 11.688 11.123 16.632l3.045-1.752-1.366 2.993s.017-.05 0 0c2.905 2.213 6.19 3.84 9.842 4.2l2.422.224V1.416c-.002 0-16.9 6.26-18.758 6.943z" fill="#005C5C"/><path fill="#C4CED4" d="M46.2 68.428h-.007.013M66.315 108.908h.006-.01M73.495 134.594c0 16.52-9.074 24.992-18.775 24.992-28.165 0-34.424-30.904-39.108-33.835v43.04c3.95-.857 12.825-5.515 12.825-5.515 3.913 0 11.415 8.484 25.494 8.484 21.284 0 43.803-20.868 43.803-52.157 0-11.614-2.707-20.208-6.948-26.93-2.957.474-7.378 1.18-10.993 1.752-.66 2.385-1.676 4.62-3 6.633.348.782.578 1.292.578 1.292.59 1.304 7.57 18.258 7.57 18.258s-11.583-7.278-17.762-11.153c-1.217.584-2.497 1.068-3.82 1.428-.124.733-.247 1.54-.378 2.372 6.236 5.218 10.515 11.6 10.515 21.34zM75.31 101.69h-.007M34.455 94.35c-.06 0-.13-.012-.192-.024.08.062.162.125.242.2-.012-.063-.037-.113-.05-.175zM36.523 73.234c-4.843-10.77-6.427-16.656-6.427-16.656s10.768 6.657 16.9 10.458c1.335-.633 2.737-1.155 4.198-1.54.13-.795.272-1.664.416-2.57C44.628 57.645 39.7 51.15 39.7 40.69c0-12.594 7.662-20.207 16.114-20.207 20.334 0 22.812 25.152 31.6 31.512V13.54C84.09 14.87 76.78 18.1 76.78 18.1c-1.88 0-4.383-2.386-8.13-4.995-3.763-2.398-8.774-4.782-15.338-4.782-17.993 0-38.362 18.036-38.362 44.754 0 13.786 3.626 23.525 9.066 30.928 2.807-.448 6.92-1.118 10.372-1.665.65-2.508 1.707-4.856 3.092-6.955-.56-1.244-.957-2.15-.957-2.15zM63.508 109.94h.006-.006M79.86 82.265c.697.125 1.436.248 2.175.373-.9-.782-1.826-1.54-2.77-2.26.223.62.422 1.254.596 1.887zM35.32 82.177v.013-.013"/><path d="M42.163 71.272c-.317.286-.627.57-.93.87.327-.323.663-.633 1.01-.932-.03.012-.055.038-.08.062z" fill="#C4CED4"/><path fill="#0C2C56" d="M91.792 174.776h3.092v8.398h2.087v-8.398h3.088v-1.825h-8.266M107.97 179.634h-.05l-2.38-6.683h-3.614v10.224h2.08v-8.137h.057l2.857 8.137h2.018l2.963-8.137h.044v8.137h2.093V172.95h-3.595"/><path d="M50.92 77.73c-.2.138-.36.238-.385.238 0 0-.44-.086-.62-.237H49.9h.007c-.032-.023-.056-.06-.062-.085 0 0 .77-.534 1.21-.82.212-1.43.46-3.08.746-4.893.28-1.826.598-3.826.92-5.9-.565.125-1.123.248-1.677.398-1.093.31-2.148.696-3.167 1.155-.57.26-1.13.534-1.67.845h-.013c-.31.174-.614.347-.913.534l-.056.037c-.28.175-.546.35-.813.535-.037.025-.08.05-.124.075-.243.173-.485.347-.72.52-.056.05-.112.087-.162.124-.28.212-.553.435-.827.66.106.098.286.26.31.348 0 0-.422 1.515-.602 1.577 0 0-.162-.15-.28-.274-.187.05-1.198.36-1.627.46-.25.272-.49.56-.72.832-.014.01-.02.024-.032.037-.224.273-.448.558-.66.857-.378.496-.744 1.018-1.072 1.564-.262.41-.497.832-.728 1.267-.037.062-.074.137-.112.198-.23.45-.446.896-.65 1.343 0 .025-.007.025-.007.037-.21.473-.398.956-.577 1.44-.006.026-.013.04-.013.04-.187.508-.35 1.03-.49 1.538v.013c-.15.548-.286 1.095-.398 1.666 2.718-.435 5.314-.845 7.587-1.193 3.938-.608 6.92-1.043 7.9-1.13.013-.136.032-.31.056-.52.09-.71.246-1.84.457-3.282zm-9.328-3.59s-.472-.284-.448-.484c0 0 1.8-.558 1.894-.546l.385.235.392-1.44.03-.137.126.074s.454.262.503.385c0 0-.43 1.59-.595 1.652 0 0-.256-.15-.404-.274-.113.026-1.79.535-1.882.535zm1.366.684s1.75-.658 1.844-.646l.422.21.243-1.452.024-.15.138.075s.483.238.546.35c0 0-.267 1.6-.43 1.69 0 0-.284-.138-.445-.262-.082.037-1.746.646-1.834.646 0 0-.52-.26-.508-.46zm2.087 1.07s1.707-.72 1.795-.72l.46.185.117-1.454.006-.15.136.062s.52.21.59.31c0 0-.132 1.615-.287 1.715 0 0-.304-.125-.472-.237-.036.013-1.7.72-1.787.72 0 .002-.558-.222-.558-.433zm2.818 1.353s-.416-.112-.577-.273h-.006c-.024-.025-.056-.062-.06-.1 0 0 1.55-.894 1.632-.906l.51.136-.17-1.428-.017-.174.162.05s.577.15.658.25c0 0 .18 1.613.043 1.725 0 0-.354-.1-.546-.174-.032.012-1.54.882-1.63.894z" fill="#FFF"/><path d="M41.94 72.254l.303-1.044c-.347.3-.683.61-1.01.932.234-.075.415-.112.445-.1l.26.212zM34.97 92.835c.118.572.262 1.13.417 1.678.602 2.074 1.497 4.037 2.64 5.825.34.534.695 1.056 1.08 1.553.254.336.52.67.795.982.03.05.056.075.08.112.286.323.577.646.876.956-.045-.15-.075-.273-.07-.31 0 0 .386-.323.553-.286 0 0 .48 1.28.45 1.404l-.057.05c.162.162.33.31.504.46l1 .384-.15.123s-.055.038-.124.1c.254.21.52.41.795.608.043.037.08.062.125.086.235.173.472.335.72.51l.075.036c.26.187.533.35.8.52.013 0 .02.014.038.014.28.162.57.336.862.497 0 0 .013 0 .02.01.552.3 1.11.56 1.688.82l.013.014c.936.398 1.906.758 2.905 1.03.553.163 1.112.3 1.676.412-.316-2-.62-3.925-.893-5.702-.167-1.105-.328-2.148-.478-3.117-.15.024-.31.062-.367.05 0 0-1.037-.857-1.31-1.23l-.043-.024.013-.014c-.032-.037-.044-.075-.044-.1 0 0 .366-.098.565-.124.037-.248.21-1.33.285-1.403 0 0 .25-.063.467-.09-.137-.943-.25-1.738-.33-2.37l-.018.012c.005-.013.012-.025.012-.038-.062-.472-.106-.856-.13-1.105-.975-.087-3.913-.522-7.795-1.12-2.286-.358-4.9-.768-7.646-1.215zm8.248 10.732l-.273.235 1.708.66-.142.11s-.348.31-.46.337c0 0-1.328-.51-1.675-.772h-.006c-.038-.037-.063-.062-.07-.086 0 0 .2-.162.336-.26-.086-.262-.44-1.23-.422-1.343 0 0 .392-.324.56-.274-.002 0 .47 1.266.444 1.39zm4.466-2.572c.03-.21.217-1.34.285-1.416 0 0 .56-.225.714-.1 0 0-.224 1.38-.293 1.454l-.372.136 1.572 1.043-.198.075s-.528.21-.628.198c0 0-1.155-.758-1.472-1.105l-.037-.024h.013c-.032-.037-.056-.074-.056-.1 0 0 .274-.11.472-.16zM45.9 100.4s.51-.26.673-.162c0 0 .037 1.353-.02 1.453l-.328.175 1.64.944-.187.087s-.485.235-.59.223c0 0-1.192-.683-1.528-.993l-.05-.024.013-.013c-.038-.038-.062-.075-.062-.1 0 0 .243-.11.423-.186-.006-.225-.037-1.305.018-1.404zm-1.148.707s.15 1.342.1 1.454l-.305.175 1.676.845-.173.1s-.44.26-.553.272c0 0-1.273-.646-1.603-.945l-.024-.01h.013c-.038-.04-.062-.063-.062-.09 0 0 .212-.122.374-.197-.02-.235-.137-1.304-.088-1.403 0 0 .485-.286.646-.2z" fill="#FFF"/><path d="M50.416 100.3l.795.66-.19-1.33c-.05.273-.107.51-.138.547l-.466.124zM64.117 95.17c-.02.15-.038.36-.07.61-.085.695-.236 1.75-.434 3.08.15-.088.25-.15.273-.162 0 0 .44.086.614.235l.006.013c.038.025.062.05.07.086 0 0-.653.448-1.094.745-.217 1.44-.478 3.12-.764 4.97-.28 1.762-.577 3.65-.894 5.625h.006c.565-.123 1.124-.26 1.676-.434h.006c.963-.273 1.888-.622 2.794-1.032h.006c.577-.26 1.143-.534 1.69-.832.316-.187.627-.36.938-.56.01 0 .024-.01.043-.024.273-.174.552-.35.825-.534l.118-.075c.248-.172.497-.346.733-.533.055-.037.105-.074.154-.11.28-.213.56-.436.833-.66-.062-.062-.112-.125-.125-.162 0 0 .416-1.515.597-1.577 0 0 .172.15.284.273.144-.037.69-.21 1.15-.335.304-.323.59-.646.87-.97.03-.05.055-.085.087-.11.273-.336.534-.67.79-1.007h.006c.373-.51.726-1.03 1.062-1.564.528-.857 1.006-1.75 1.422-2.67 0-.014.006-.014.006-.014.198-.446.378-.894.546-1.34.013-.04.025-.076.038-.1.173-.46.335-.945.472-1.428.162-.547.298-1.107.422-1.665-2.658.41-5.18.808-7.397 1.155-3.823.586-6.723 1.01-7.76 1.108zm1.125 6.993l-.162-.037s-.58-.162-.66-.248c0 0-.185-1.615-.05-1.727 0 0 .367.1.554.175.043-.024 1.54-.894 1.62-.907 0 0 .422.112.584.286h.013-.005c.03.024.056.062.056.1 0 0-1.54.893-1.627.906l-.51-.15.19 1.603zm2.34-.658l-.46-.187-.13 1.603-.136-.06s-.52-.212-.596-.324c0 0 .137-1.6.286-1.702 0 0 .31.125.485.237.044-.024 1.703-.732 1.783-.732 0 0 .553.235.553.435 0 0-1.703.732-1.784.732zm2.038.994l-.43-.212-.26 1.59-.136-.062s-.49-.235-.553-.36c0 0 .268-1.603.43-1.676 0 0 .285.136.446.248.094-.025 1.75-.633 1.833-.633 0 0 .346.174.465.347h.013-.006c.024.05.043.075.043.112 0-.002-1.76.645-1.845.645zm3.658.52s-1.814.56-1.9.534l-.38-.224-.428 1.578-.125-.075s-.446-.26-.502-.385c0 0 .435-1.59.59-1.652 0 0 .254.15.403.273.13-.038 1.8-.547 1.888-.535 0 0 .478.287.454.485z" fill="#FFF"/><path d="M72.308 105.008c.137-.125.273-.26.41-.385l-.248-.198-.162.583zM62.683 71.905c.168 1.118.33 2.174.478 3.156.13-.024.262-.05.305-.037 0 0 1.032.846 1.316 1.218l.05.038-.017.013c.03.038.05.075.043.1 0 0-.366.1-.566.123-.043.25-.21 1.33-.28 1.404 0 0-.216.05-.42.074.135.957.253 1.752.334 2.374.062.51.112.907.137 1.155 1 .098 3.894.508 7.727 1.104 2.254.347 4.832.745 7.54 1.168-.05-.286-.125-.57-.193-.857-.06-.273-.136-.546-.217-.82-.57-2.037-1.422-3.962-2.508-5.725-.337-.534-.69-1.056-1.07-1.566-.253-.347-.52-.696-.8-1.02-.043-.06-.08-.11-.118-.148-.285-.347-.577-.683-.888-.993.062.187.1.336.093.373 0 0-.384.336-.558.286 0 0-.473-1.267-.45-1.404l.1-.075-.39-.37-1.137-.436.137-.125s.086-.075.18-.15c-.262-.21-.522-.42-.796-.62-.03-.025-.067-.05-.1-.075-.247-.186-.495-.36-.744-.534-.013 0-.03-.013-.043-.024-.558-.386-1.13-.735-1.72-1.07-.547-.298-1.107-.583-1.678-.832-.957-.434-1.95-.806-2.976-1.105-.552-.162-1.112-.298-1.676-.422.314 2.05.618 4.013.905 5.825zm4.054 3.777c-.03.198-.223 1.342-.285 1.416 0 0-.566.224-.715.1 0 0 .217-1.367.286-1.466l.366-.136-1.572-1.032.205-.074s.528-.21.627-.2c0 0 1.15.758 1.465 1.094l.043.024-.01.013c.03.038.055.076.055.1 0 0-.272.1-.466.162zm1.777.596s-.51.26-.672.162c0 0-.037-1.355.02-1.454l.328-.174-1.633-.944.18-.086s.484-.237.59-.237c0 0 1.203.696 1.54 1.02l.042.012-.01.012c.03.036.055.073.055.098 0 0-.242.112-.422.174.005.26.037 1.317-.02 1.416zm1.795-.907s-.486.274-.647.2c0 0-.155-1.343-.1-1.454l.305-.174-1.676-.845.174-.112s.44-.248.546-.26c0 0 1.292.645 1.615.943h.013l-.006.013c.037.025.067.063.067.087 0 0-.215.125-.383.198.023.25.135 1.307.092 1.406zm1.73-2.83h.007c.037.024.07.06.07.06s-.194.188-.337.287c.086.248.448 1.23.422 1.34 0 0-.385.324-.558.274 0 0-.478-1.266-.454-1.39l.28-.236-1.708-.66.137-.122s.353-.3.465-.323c0 0 1.335.508 1.676.77z" fill="#FFF"/><path d="M64.005 76.377l-.74-.61c.057.386.113.76.17 1.12.036-.2.073-.36.098-.385l.472-.125z" fill="#FFF"/><path d="M72.123 103.84c-.18.062-.597 1.577-.597 1.577.013.037.062.1.125.162.05-.05.1-.087.156-.137.067-.05.136-.125.205-.174.025-.026.05-.05.075-.063.075-.075.15-.136.224-.198l.16-.585.25.198c.08-.075.16-.162.242-.237.1-.1.205-.198.304-.298.1-.1.192-.21.293-.31-.46.125-1.007.298-1.15.336-.114-.125-.287-.274-.287-.274z" fill="#D50032"/><path d="M70.533 102.796c-.155.062-.59 1.652-.59 1.652.056.125.502.385.502.385l.125.075.43-1.578.378.224c.086.025 1.9-.534 1.9-.534.024-.198-.454-.485-.454-.485-.086-.01-1.756.497-1.888.534-.15-.124-.403-.274-.403-.274zM71.42 101.74h.007-.013c-.118-.172-.466-.346-.466-.346-.08 0-1.74.608-1.833.633-.162-.112-.446-.248-.446-.248-.163.073-.43 1.675-.43 1.675.062.125.553.36.553.36l.136.062.26-1.59.43.21c.086 0 1.843-.645 1.843-.645 0-.036-.018-.062-.042-.11zM68.812 100.338c-.08 0-1.74.707-1.782.733-.174-.11-.485-.236-.485-.236-.15.1-.286 1.702-.286 1.702.074.112.595.323.595.323l.136.06.132-1.602.46.187c.08 0 1.782-.733 1.782-.733 0-.2-.552-.434-.552-.434zM67.19 99.803c0-.037-.024-.075-.055-.1h.006-.012c-.162-.173-.584-.285-.584-.285-.08.013-1.577.883-1.62.907-.187-.075-.553-.174-.553-.174-.135.113.05 1.728.05 1.728.08.086.66.248.66.248l.162.037-.187-1.6.51.148c.086-.012 1.626-.907 1.626-.907zM64.508 98.946l-.006-.013c-.173-.15-.614-.235-.614-.235-.024.013-.125.074-.273.162-.037.298-.087.595-.13.918.44-.298 1.093-.745 1.093-.745-.008-.037-.032-.06-.07-.087zM50.125 100.163c-.198.025-.566.125-.566.125 0 .024.012.062.043.1l-.013.012.043.024c.273.373 1.31 1.23 1.31 1.23.056.013.218-.025.366-.05-.032-.224-.068-.435-.1-.646l-.795-.658.466-.125c.033-.037.09-.273.138-.547-.05-.323-.1-.646-.142-.956-.217.025-.467.088-.467.088-.074.074-.248 1.155-.285 1.403zM47.255 101.256l.037.025c.317.348 1.472 1.106 1.472 1.106.1.013.628-.198.628-.198l.198-.075-1.572-1.043.373-.136c.07-.075.294-1.454.294-1.454-.155-.125-.715.1-.715.1-.07.074-.255 1.204-.286 1.415-.198.05-.472.162-.472.162 0 .025.024.062.056.1h-.013zM45.46 101.99c0 .024.025.06.063.1l-.013.012.05.024c.336.31 1.528.993 1.528.993.106.012.59-.224.59-.224l.186-.088-1.64-.944.33-.174c.056-.1.02-1.453.02-1.453-.163-.1-.673.162-.673.162-.054.098-.023 1.178-.017 1.402-.18.076-.422.188-.422.188zM44.106 101.307c-.05.1.07 1.168.088 1.403-.162.075-.373.198-.373.198 0 .025.025.05.063.088h-.013l.024.01c.33.3 1.603.946 1.603.946.112-.013.553-.273.553-.273l.173-.1-1.676-.845.304-.174c.05-.11-.098-1.453-.098-1.453-.16-.086-.646.2-.646.2zM42.212 102.45c-.02.11.336 1.08.422 1.34-.136.1-.336.262-.336.262.006.024.032.05.07.086h.005c.347.26 1.676.77 1.676.77.11-.024.46-.335.46-.335l.14-.112-1.707-.658.273-.235c.025-.125-.446-1.39-.446-1.39-.166-.05-.558.272-.558.272zM41.342 103.343c-.167-.037-.552.286-.552.286-.006.036.024.16.07.31.11.124.216.234.333.346.137.137.273.26.41.385.05.05.087.087.13.126l.057-.05c.03-.123-.448-1.403-.448-1.403zM43.238 105.64l-1-.384c.08.075.167.15.248.21.086.076.162.15.248.225l.056.038c.056.05.112.086.174.137.07-.062.125-.1.125-.1l.148-.124zM42.287 72.838c.18-.062.602-1.577.602-1.577-.025-.087-.206-.248-.31-.348-.113.1-.23.198-.337.298l-.304 1.044-.262-.21c-.03-.014-.21.023-.446.098-.094.086-.187.186-.28.285-.105.1-.205.2-.304.312-.088.098-.18.185-.267.284.43-.1 1.44-.41 1.628-.46.118.125.28.274.28.274z" fill="#D50032"/><path d="M43.877 73.88c.167-.062.595-1.652.595-1.652-.05-.123-.502-.385-.502-.385l-.125-.074-.03.135-.393 1.44-.385-.234c-.093-.012-1.894.547-1.894.547-.024.2.448.485.448.485.094 0 1.77-.51 1.882-.534.15.124.405.272.405.272zM45.746 74.9c.162-.09.43-1.69.43-1.69-.063-.112-.547-.35-.547-.35l-.138-.073-.024.15-.243 1.452-.422-.212c-.093-.01-1.844.646-1.844.646-.014.198.508.46.508.46.088 0 1.75-.61 1.833-.646.16.124.446.26.446.26zM47.863 75.843c.155-.1.286-1.715.286-1.715-.07-.1-.59-.31-.59-.31l-.137-.062-.006.15-.118 1.453-.46-.187c-.088 0-1.795.72-1.795.72 0 .21.558.435.558.435.086 0 1.75-.708 1.788-.72.17.11.473.235.473.235zM49.994 74.8c-.08-.1-.658-.25-.658-.25l-.162-.05.018.175.168 1.428-.51-.136c-.08.01-1.632.907-1.632.907.005.037.037.074.06.1h.007c.162.16.577.272.577.272.088-.013 1.596-.883 1.628-.895.192.076.546.175.546.175.14-.11-.042-1.725-.042-1.725zM49.907 77.73H49.9h.014c.18.15.62.238.62.238.026 0 .188-.1.386-.237.043-.297.086-.594.136-.905-.44.285-1.21.82-1.21.82.006.025.03.06.06.086zM64.29 76.513c.2-.024.566-.123.566-.123.006-.025-.013-.062-.043-.1l.018-.012-.05-.037c-.284-.372-1.315-1.217-1.315-1.217-.043-.01-.174.013-.304.038.038.236.07.473.107.708l.74.61-.473.124c-.025.024-.062.186-.1.384.057.385.113.758.156 1.105.205-.023.416-.073.416-.073.073-.075.24-1.154.284-1.404zM67.16 75.408l-.043-.024c-.317-.336-1.465-1.094-1.465-1.094-.1-.01-.627.2-.627.2l-.205.074 1.57 1.032-.365.136c-.07.1-.286 1.465-.286 1.465.148.125.714-.1.714-.1.062-.073.254-1.216.285-1.415.192-.062.466-.162.466-.162 0-.024-.025-.062-.056-.1l.01-.012zM68.9 74.59l.01-.014-.042-.013c-.336-.323-1.54-1.02-1.54-1.02-.106 0-.59.238-.59.238l-.18.087 1.634.944-.33.175c-.055.1-.018 1.454-.018 1.454.162.098.672-.163.672-.163.056-.1.024-1.155.018-1.416.18-.06.422-.173.422-.173-.002-.024-.026-.06-.056-.098zM70.6 73.77c0-.025-.03-.063-.067-.087l.006-.013h-.014c-.323-.298-1.615-.944-1.615-.944-.105.013-.545.26-.545.26l-.174.113 1.677.844-.304.174c-.056.11.1 1.453.1 1.453.16.076.645-.197.645-.197.043-.1-.07-1.155-.093-1.404.17-.077.385-.2.385-.2zM69.9 72.092l-.138.123 1.708.66-.28.236c-.024.124.454 1.39.454 1.39.173.05.558-.272.558-.272.025-.11-.336-1.093-.422-1.34.142-.1.336-.274.336-.274s-.032-.05-.07-.075h-.005c-.34-.262-1.675-.77-1.675-.77-.112.023-.466.322-.466.322zM73.066 73.322c.174.05.558-.286.558-.286.006-.037-.03-.186-.093-.373l-.346-.373c-.106-.112-.217-.21-.33-.31-.042-.05-.092-.1-.136-.137l-.1.075c-.023.137.448 1.404.448 1.404zM71.19 71.036l1.137.435c-.1-.087-.205-.173-.304-.26-.062-.05-.118-.1-.174-.163-.063-.05-.12-.1-.182-.15-.056-.036-.105-.085-.162-.135-.093.074-.18.15-.18.15l-.136.124z" fill="#D50032"/><path d="M50.547 96.3s0-.012-.006-.024c0 .013-.005.025-.012.038l.02-.013zM36.523 73.234s.398.907.956 2.15c.34-.534.7-1.032 1.086-1.528-3.156-7.006-6.323-14.048-6.21-14.086 0 0 6.557 4.087 13.016 8.136.528-.31 1.062-.597 1.622-.87-6.13-3.8-16.9-10.458-16.9-10.458s1.586 5.887 6.43 16.656zM81.96 116.795s-6.49-4.05-13.116-8.21c-.54.31-1.1.597-1.665.87 6.178 3.876 17.76 11.153 17.76 11.153s-6.98-16.955-7.57-18.258c0 0-.23-.51-.576-1.292-.342.534-.702 1.044-1.08 1.528 3.234 7.203 6.37 14.16 6.246 14.21z" fill="#0C2C56"/><path d="M41.604 70.626c1.16-1.03 2.422-1.937 3.77-2.72-6.46-4.05-13.018-8.135-13.018-8.135l9.248 10.856zM72.595 70.565c1.155 1.018 2.217 2.136 3.154 3.365 3.166-6.88 6.563-13.924 6.546-14.184l-9.7 10.82zM41.92 106.113c-1.18-1.006-2.254-2.124-3.217-3.33-3.167 7.03-6.297 13.987-6.18 14.037l9.398-10.707zM72.638 105.853c-1.168 1.03-2.44 1.95-3.794 2.732 6.627 4.162 13.116 8.21 13.116 8.21l-9.322-10.942z" fill="#C4CED4"/><path d="M63.906 81.507c-.187.174-.8.782-1.566 1.566-1.907 1.937-4.843 4.955-5.11 5.278-.175.225-.802.895-1.63 1.752.828-.857 1.455-1.528 1.63-1.75.247-.3 3.197-3.342 5.11-5.28.77-.783 1.38-1.39 1.566-1.565z" fill="#FFF"/><path d="M57.223 88.364c.018.013.056.05.08.074-.018-.024-.043-.05-.056-.074h-.024z" fill="#FFF"/><path d="M63.906 81.507c.043 0 .1.013.155.013-.024-.248-.074-.646-.136-1.155-.08-.622-.198-1.417-.335-2.373-.044-.347-.1-.72-.156-1.105-.056-.36-.112-.733-.168-1.118-.037-.236-.07-.473-.106-.708-.15-.982-.31-2.038-.478-3.156-.286-1.812-.59-3.775-.907-5.825-.05-.297-.093-.596-.142-.906-1.902-12.06-4.242-26.208-4.403-26.145v49.323c.267-.323 3.204-3.34 5.11-5.278.765-.786 1.38-1.394 1.566-1.568z" fill="#C4CED4"/><path d="M34.922 83.855c.112-.57.248-1.118.397-1.665v-.013c.14-.51.303-1.03.484-1.528 0 0 .013-.025.02-.05.178-.486.365-.97.576-1.442 0-.01.006-.01.006-.037.205-.445.422-.893.65-1.34.04-.062.076-.137.113-.2.23-.434.465-.856.727-1.266.328-.547.694-1.068 1.073-1.564.21-.3.435-.584.66-.857.012-.013.017-.025.03-.037.23-.273.472-.56.72-.833.087-.1.18-.186.268-.285.1-.112.2-.21.304-.312.093-.1.186-.198.28-.285.304-.298.614-.583.93-.87.026-.023.05-.05.08-.06.107-.1.225-.2.337-.3.272-.223.546-.445.826-.658.05-.037.106-.074.162-.123.235-.175.477-.35.72-.522.043-.025.086-.05.125-.075.267-.186.534-.36.813-.534l.056-.038c.3-.187.603-.36.913-.534h.011c.54-.31 1.1-.584 1.67-.845 1.02-.46 2.074-.845 3.167-1.155.553-.15 1.112-.273 1.678-.398-.322 2.074-.64 4.074-.92 5.9-.284 1.814-.533 3.465-.744 4.894-.05.31-.093.608-.136.906-.21 1.44-.366 2.572-.454 3.28-.024.21-.043.384-.056.52.038-.012.08-.012.118-.012 1.708 1.577 6.18 6.173 6.702 6.83V39.03c-.118-.026-2.454 14.07-4.366 26.108-.565.1-1.124.224-1.67.36-1.46.385-2.863.907-4.2 1.54-.56.273-1.093.56-1.62.87-1.348.782-2.608 1.69-3.77 2.72L32.356 59.77c-.112.038 3.055 7.08 6.21 14.086-.384.496-.744.993-1.086 1.528-1.385 2.1-2.44 4.447-3.092 6.955-.137.533-.254 1.093-.36 1.65.297-.05.595-.086.894-.135z" fill="#005C5C"/><path d="M57.223 88.364l.006-.013c-.175.225-.802.895-1.63 1.752-.116.125-.234.248-.36.373-.334.347-.682.708-1.048 1.08-.66.67-1.342 1.367-1.97 1.988-.67.67-1.266 1.243-1.694 1.64-.037 0-.08 0-.118-.013.025.25.07.633.13 1.105l.007.013c.08.646.192 1.44.33 2.385.042.31.092.633.14.956.063.42.126.87.193 1.328.032.21.07.422.1.646.15.97.31 2.012.477 3.117.273 1.778.577 3.702.894 5.703.052.298.095.595.145.894 1.913 12.086 4.285 26.382 4.403 26.357l-.005-49.31z" fill="#C4CED4"/><path d="M68.844 108.585c1.353-.782 2.627-1.702 3.794-2.732l9.322 10.942c.125-.05-3.012-7.006-6.248-14.21.38-.483.74-.993 1.08-1.528 1.324-2.012 2.34-4.248 3-6.633.142-.546.28-1.105.392-1.664l-.907.15c-.125.557-.26 1.117-.422 1.664-.137.483-.3.968-.472 1.428-.013.024-.025.06-.038.1-.168.445-.347.893-.546 1.328 0 0-.007.01-.007.024-.416.92-.894 1.814-1.422 2.67-.335.535-.688 1.057-1.06 1.565h-.007c-.256.335-.516.67-.79 1.005-.03.025-.055.062-.087.112-.28.323-.565.646-.87.97-.1.098-.192.21-.292.31-.1.098-.205.197-.304.297-.08.075-.162.162-.243.237-.136.126-.272.262-.41.386-.074.062-.15.123-.224.198-.024.013-.05.037-.074.062-.07.05-.138.123-.206.174-.056.05-.106.086-.155.136-.274.224-.554.446-.834.66-.05.036-.1.073-.155.11-.234.187-.484.36-.732.534-.037.025-.08.05-.118.075-.273.186-.552.36-.825.534-.02.012-.032.023-.043.023-.31.2-.622.373-.94.56-.545.298-1.11.57-1.682.832h-.012c-.907.41-1.832.758-2.794 1.032h-.006c-.552.173-1.112.31-1.676.434h-.006c.317-1.973.614-3.862.894-5.625.286-1.85.547-3.528.764-4.97.043-.322.093-.62.13-.917.198-1.33.348-2.385.435-3.08.03-.25.05-.46.068-.61-.07 0-.125.013-.18.013-1.653-1.527-5.895-5.887-6.634-6.744-.024-.024-.062-.06-.08-.074l.006 49.31c.117.026 2.515-14.308 4.453-26.394.565-.123 1.123-.248 1.676-.397 1.322-.36 2.6-.844 3.818-1.427.565-.272 1.125-.558 1.666-.868z" fill="#005C5C"/><path d="M57.23 88.35c-.52-.658-4.994-5.253-6.702-6.83-.037 0-.08 0-.118.013-.98.086-3.962.52-7.9 1.13-2.273.348-4.87.757-7.588 1.192-.3.05-.597.086-.894.136-11.807 1.9-25.52 4.2-25.457 4.36h48.66z" fill="#C4CED4"/><path d="M95.133 91.98c1.645-.274 3.198-.548 4.64-.796 9.625-1.715 14.687-2.957 14.687-2.957s-8.732-1.54-18.495-3.217c-2.16-.385-4.38-.758-6.564-1.13l-.216-.038c-3.43-3.888-7.41-7.092-11.713-9.775.044-.1.08-.187.124-.273.41-.894.684-1.503.684-1.503.422-.906.806-1.75 1.16-2.545 3.49-7.663 4.3-10.024 4.3-10.024l1.365-2.992-14.42 8.16-3.392 2.162c.56.273 1.1.558 1.628.87 6.47-4.136 13.234-8.384 13.378-8.173.018.26-3.38 7.303-6.547 14.184.384.498.744 1.007 1.08 1.53.993 1.527 1.814 3.167 2.434 4.917.944.72 1.87 1.48 2.77 2.26-.74-.124-1.478-.247-2.174-.372.136.558.26 1.118.36 1.676 10.744 1.716 23.202 3.777 25.835 4.286.323.075.504.112.504.125.023.113-14.29 2.498-26.377 4.41-.112.56-.25 1.12-.392 1.665 3.616-.57 8.037-1.278 10.994-1.75 4.242 6.72 6.948 15.314 6.948 26.928 0 31.29-22.52 52.156-43.802 52.156-14.08 0-21.582-8.485-25.494-8.485 0 0-8.875 4.658-12.825 5.515v-43.04c4.684 2.933 10.943 33.836 39.11 33.836 9.7 0 18.774-8.47 18.774-24.992 0-9.738-4.28-16.122-10.515-21.34.13-.83.253-1.638.378-2.37-.553.148-1.112.272-1.676.396-1.938 12.086-4.336 26.42-4.453 26.395-.12.025-2.49-14.27-4.404-26.357-.566-.1-1.124-.224-1.67-.373.154.98.328 2.062.503 3.167l1.93 12.036c2.038 12.36 3.634 19.986 3.634 19.986s1.614-7.626 3.664-19.973l.366-2.297c.254-1.528.602-3.677.968-5.95.045-.26.08-.52.125-.782 4.627 4.745 7.757 10.31 7.757 17.316 0 12.596-6.36 21.45-15.96 21.45-16.33 0-24.937-12.878-32.532-28.057-1.92-3.84-5.403-7.565-9.496-8.037v53.956l17.103-6.186c3.838 1.193 10.036 7.44 25.88 7.44 24.722 0 46.093-23.29 46.093-56.167 0-10.944-2.348-19.725-6.26-26.83l.2-.038z" fill="#0C2C56"/><path d="M27.985 93.306c.248.05.49.088.74.125 2.384 2.026 4.935 3.864 7.576 5.615-.744-1.428-1.354-2.943-1.795-4.52-.08-.075-.16-.137-.242-.2.062.013.13.025.192.025-.15-.534-.28-1.094-.39-1.665-11.794-1.9-25.513-4.223-25.494-4.335-.06-.162 13.65-2.46 25.458-4.36.106-.558.223-1.118.36-1.652-3.453.547-7.565 1.217-10.372 1.665-5.44-7.403-9.066-17.142-9.066-30.928 0-26.718 20.37-44.754 38.362-44.754 6.564 0 11.576 2.386 15.34 4.783 3.745 2.61 6.247 4.994 8.13 4.994 0 0 7.31-3.23 10.63-4.56v38.456C78.626 45.633 76.15 20.48 55.815 20.48c-8.452 0-16.115 7.615-16.115 20.21 0 10.458 4.93 16.954 11.91 22.233-.144.907-.286 1.776-.416 2.57.546-.135 1.105-.26 1.67-.36C54.777 53.1 57.112 39 57.23 39.026c.162-.062 2.502 14.085 4.403 26.145.565.112 1.123.237 1.67.398-.26-1.652-.565-3.565-.87-5.478l-1.528-9.576c-2.043-12.41-3.764-18.868-3.764-18.868s-1.514 6.545-3.55 18.88c0 0-.13.845-.348 2.174-.217 1.38-.528 3.292-.85 5.353-.032.136-.05.285-.076.422-5.608-5.23-9.098-11.192-9.098-17.887 0-9.602 4.56-16.495 14.16-16.495 12.49 0 17.166 14.334 24.606 27.054 1.745 2.993 5.52 5.515 8.93 6.36V8.447S79.53 13.13 76.42 14.185C71.14 9.988 61.34 4.62 53.296 4.62c-19.563 0-41.648 20.607-41.648 48.207 0 14.322 3.427 24.234 8.81 31.748l-.638.112c-1.678.273-3.268.56-4.758.808C5.477 87.147 0 88.225 0 88.225s7.545 1.69 20.277 3.827c.168.037.336.062.51.088 0 0 3.284.533 7.198 1.166zM45.56 108.66c-6.52 4.15-12.98 8.26-13.036 8.16-.118-.05 3.012-7.005 6.18-14.035-.385-.485-.753-.982-1.1-1.503-.472 1.056-.8 1.8-.8 1.8l-.566 1.244c-4.627 10.247-7.583 16.17-7.583 16.17s4.285-1.9 16.035-9.364c0 0 .616-.397 1.497-.956.317-.198.665-.41 1.032-.646-.56-.262-1.12-.56-1.66-.87z" fill="#0C2C56"/><path d="M52.826 111.318c-.05-.3-.093-.597-.144-.894-.565-.112-1.123-.25-1.676-.41-1-.274-1.97-.634-2.906-1.03h-.013v-.014c-.577-.26-1.136-.52-1.69-.82l-.005-.01h-.013c-.292-.163-.585-.337-.863-.498-.02 0-.025-.013-.038-.013-.268-.174-.54-.336-.8-.522-.026-.013-.052-.024-.076-.037-.248-.173-.485-.335-.72-.51-.045-.023-.08-.05-.125-.085-.275-.198-.542-.397-.796-.608-.062-.05-.118-.088-.174-.137l-.056-.037c-.086-.075-.162-.15-.248-.224-.08-.063-.168-.137-.248-.212-.174-.15-.342-.298-.504-.46-.043-.037-.08-.074-.13-.124-.137-.125-.273-.248-.41-.385-.118-.113-.224-.224-.335-.348-.3-.31-.59-.633-.877-.956-.024-.037-.05-.062-.08-.112-.273-.31-.54-.646-.795-.98-.385-.498-.74-1.02-1.08-1.554-1.143-1.788-2.04-3.75-2.64-5.825-.155-.547-.3-1.105-.416-1.678 2.745.448 5.36.857 7.644 1.217 3.882.597 6.82 1.032 7.794 1.118.038.013.08.013.118.013.43-.397 1.025-.97 1.695-1.64.627-.62 1.31-1.316 1.97-1.987.365-.373.714-.734 1.048-1.08.126-.126.244-.25.36-.374.828-.857 1.455-1.528 1.63-1.75H8.57c-.02.11 13.7 2.433 25.494 4.334.112.57.242 1.13.39 1.665.013.062.038.112.05.174.44 1.577 1.05 3.092 1.796 4.52-2.64-1.75-5.192-3.59-7.577-5.614-.25-.037-.49-.074-.74-.125l-7.198-1.166c-.173-.025-.34-.05-.51-.088 4.256 4.546 9.553 8.596 15.962 12.273l.565-1.243s.33-.745.8-1.8c.348.52.716 1.018 1.1 1.502.963 1.205 2.038 2.323 3.218 3.33l-9.397 10.706c.056.1 6.515-4.012 13.036-8.16.54.31 1.098.607 1.658.868-.366.237-.715.448-1.032.646 1.97 1.305 3.794 2.62 5.472 3.938-.174-1.105-.35-2.186-.504-3.167.548.147 1.106.272 1.672.37z" fill="#005C5C"/><path d="M57.248 88.364c.013.024.038.05.056.074.74.857 4.98 5.217 6.633 6.745.056 0 .112-.013.18-.013 1.038-.1 3.938-.52 7.763-1.105 2.217-.347 4.74-.745 7.397-1.155l.907-.15c12.086-1.912 26.4-4.297 26.376-4.41l-49.312.014z" fill="#C4CED4"/><path d="M61.633 65.173c.05.31.093.61.142.907.565.125 1.124.26 1.676.422 1.026.3 2.02.672 2.976 1.105.57.25 1.13.534 1.678.833.59.335 1.16.683 1.72 1.068.013.01.03.024.043.024.25.174.497.35.745.534.032.025.07.05.1.075.272.2.533.41.794.622.056.05.106.1.162.136.062.05.118.1.18.15.057.06.113.11.175.16.1.09.205.175.304.263.13.124.26.25.39.372.045.038.094.088.137.137.112.098.224.197.33.31.116.124.228.247.346.372.31.31.603.646.888.993.038.038.075.088.118.15.28.322.547.67.8 1.018.38.51.734 1.032 1.07 1.566 1.085 1.762 1.936 3.688 2.507 5.725.08.273.156.546.217.82.07.285.144.57.193.856-2.708-.42-5.286-.82-7.54-1.167-3.832-.597-6.726-1.006-7.726-1.105-.056 0-.112-.013-.155-.013-.187.174-.795.782-1.566 1.566-1.913 1.938-4.863 4.982-5.11 5.28l-.007.012h.023l49.312-.013c0-.014-.18-.05-.504-.126-2.632-.51-15.09-2.57-25.834-4.285-.1-.56-.224-1.12-.36-1.677-.174-.633-.373-1.267-.597-1.89-.622-1.75-1.442-3.39-2.435-4.917-.336-.52-.696-1.03-1.08-1.528-.938-1.23-2-2.348-3.155-3.365l9.7-10.82c-.143-.21-6.906 4.038-13.377 8.174-.528-.312-1.068-.597-1.627-.87-1.267-.61-2.61-1.105-3.987-1.478-.544-.16-1.102-.285-1.667-.397z" fill="#005C5C"/></svg>