<svg xmlns="http://www.w3.org/2000/svg" viewBox="0 0 114.009 182.452"><title>Seattle Mariners hat light logo</title><path d="M63.054 65.312c1.373.37 2.71.866 3.972 1.472l3.378-2.153c-2.723-1.46-5.536-3.055-8.215-4.775.3 1.907.604 3.812.864 5.457zM47.898 108.553h.013l-.012-.012v.013zM46.21 107.712l.005.012c-.006-.012-.013-.012-.013-.012h.007z" fill="#005C5C"/><path d="M99.38 90.824c-1.436.247-2.983.52-4.62.792l-.2.037c3.897 7.077 6.236 15.824 6.236 26.724 0 32.75-21.287 55.947-45.913 55.947-15.78 0-21.954-6.223-25.778-7.41l-17.036 6.16V119.33c4.076.47 7.546 4.18 9.458 8.004 7.565 15.12 16.14 27.95 32.402 27.95 9.564 0 15.898-8.822 15.898-21.368 0-6.978-3.118-12.52-7.727-17.247-.042.26-.08.52-.123.78-.365 2.263-.71 4.403-.964 5.925 2.697 3.848 4.1 7.683 4.1 11.395 0 4.664-1.205 15.49-12.383 15.49-15.293 0-23.947-19.325-27.64-27.577-2.858-6.384-10.887-10.516-15.583-11.036l-2.443-.272v68.937s19.968-7.163 21.452-7.708c.495.223 1.015.433 1.015.433 5.934 2.536 14.897 6.347 24.4 6.347 25.522 0 51.93-22.64 51.93-60.537 0-10.48-2.2-19.87-6.48-28.023zM79.126 69.47c-.353.792-.736 1.633-1.157 2.536 0 0-.273.606-.683 1.497-.043.087-.08.173-.123.272 4.287 2.672 8.25 5.864 11.667 9.737l.218.037c2.177.37 4.386.74 6.538 1.125-4.218-5.902-9.73-11-16.46-15.205zM76.942 8.326C71.392 4.17 62.522 0 52.73 0 34.122 0 6.582 17.098 6.582 53.82c0 12.433 2.704 22.69 8.425 31.338 1.485-.247 3.068-.532 4.74-.804.21-.037.42-.074.635-.11-5.363-7.486-8.777-17.36-8.777-31.624 0-27.49 21.997-48.016 41.484-48.016 8.01 0 17.77 5.345 23.03 9.526 3.1-1.052 14.438-5.715 14.438-5.715v48.87c-3.397-.842-7.157-3.354-8.895-6.336C74.253 38.28 69.593 24 57.153 24c-9.564 0-14.104 6.867-14.104 16.43 0 6.67 3.475 12.607 9.06 17.816.026-.136.045-.285.076-.42.322-2.055.63-3.96.848-5.333-3.16-3.415-5.227-7.25-5.227-11.58 0-3.538.828-11.766 8.512-11.766 8.38 0 12.58 7.855 14.338 12.53 1.67 4.443 5.592 11.644 11.08 16.568l3.03-1.744-1.36 2.982s.018-.05 0 0c2.895 2.202 6.167 3.823 9.805 4.182l2.412.223V1.41c-.002 0-16.834 6.236-18.683 6.916z" fill="#005C5C"/><path fill="#C4CED4" d="M46.018 68.158h-.007.014M66.054 108.48h.006-.012M73.206 134.064c0 16.455-9.038 24.893-18.7 24.893-28.055 0-34.29-30.782-38.955-33.702V168.125c3.935-.855 12.775-5.494 12.775-5.494 3.897 0 11.37 8.45 25.394 8.45 21.198 0 43.63-20.784 43.63-51.95 0-11.567-2.697-20.128-6.922-26.822-2.946.47-7.35 1.175-10.95 1.745-.656 2.375-1.67 4.602-2.987 6.607.347.78.576 1.287.576 1.287.588 1.3 7.54 18.187 7.54 18.187s-11.537-7.25-17.69-11.11c-1.213.58-2.488 1.064-3.805 1.423-.123.73-.246 1.534-.377 2.363 6.21 5.195 10.473 11.555 10.473 21.254zM75.012 101.29h-.006M34.32 93.98c-.062 0-.13-.013-.192-.026.08.062.16.124.24.198-.01-.062-.036-.11-.05-.173zM36.38 72.946c-4.825-10.727-6.403-16.59-6.403-16.59s10.726 6.63 16.832 10.416c1.33-.63 2.727-1.15 4.18-1.534.13-.792.272-1.658.415-2.56-6.954-5.26-11.865-11.73-11.865-22.147 0-12.544 7.633-20.128 16.052-20.128 20.254 0 22.722 25.053 31.475 31.388V13.486c-3.31 1.324-10.59 4.54-10.59 4.54-1.875 0-4.367-2.374-8.098-4.973-3.75-2.388-8.74-4.764-15.28-4.764-17.922 0-38.21 17.964-38.21 44.576 0 13.733 3.61 23.433 9.03 30.807 2.795-.445 6.89-1.113 10.33-1.658.65-2.5 1.7-4.838 3.08-6.928-.554-1.238-.95-2.14-.95-2.14zM63.258 109.506h.006-.006M79.546 81.94c.693.125 1.43.248 2.165.372-.896-.78-1.818-1.534-2.758-2.252.223.62.42 1.25.594 1.88zM35.18 81.854v.012-.012"/><path d="M41.997 70.99c-.315.286-.625.57-.927.867.327-.322.66-.63 1.007-.928-.03.012-.055.037-.08.06z" fill="#C4CED4"/><path fill="#FFF" d="M91.43 174.088h3.08v8.364h2.08v-8.364h3.074v-1.82H91.43M107.544 178.926h-.05l-2.37-6.657h-3.6v10.182h2.073v-8.104h.056l2.846 8.104h2.01l2.95-8.104h.043v8.104h2.085V172.27h-3.58M50.72 77.425c-.2.136-.36.235-.385.235 0 0-.44-.087-.618-.235h-.013.006c-.032-.025-.056-.062-.062-.087 0 0 .768-.532 1.206-.817.21-1.422.46-3.067.742-4.874.28-1.82.594-3.81.916-5.877-.564.123-1.12.247-1.67.395-1.09.31-2.14.693-3.156 1.15-.57.26-1.125.533-1.663.842h-.013c-.31.173-.612.346-.91.532-.018.01-.037.024-.056.036-.277.173-.544.346-.81.532-.038.025-.08.05-.124.074-.242.173-.483.346-.717.52-.056.05-.11.087-.16.124-.28.21-.552.433-.824.656.104.1.284.26.308.346 0 0-.42 1.51-.6 1.57 0 0-.16-.147-.278-.27-.186.048-1.193.358-1.62.457-.248.272-.49.557-.718.83-.013.01-.018.024-.03.036-.223.273-.446.558-.656.855-.378.495-.742 1.015-1.07 1.56-.26.407-.494.828-.724 1.26-.037.063-.073.137-.11.2-.23.444-.446.89-.65 1.335 0 .025-.006.025-.006.037-.21.47-.397.953-.575 1.435-.005.025-.012.037-.012.037-.186.506-.347 1.026-.49 1.533v.012c-.147.544-.283 1.09-.394 1.658 2.71-.433 5.294-.84 7.558-1.188 3.922-.606 6.892-1.04 7.87-1.126.012-.137.03-.31.055-.52.087-.704.242-1.83.452-3.265zm-9.292-3.576s-.47-.286-.446-.484c0 0 1.794-.557 1.886-.544l.384.235.39-1.435.03-.136.124.074s.45.26.5.383c0 0-.427 1.584-.593 1.645 0 0-.255-.148-.403-.272-.11.026-1.78.533-1.872.533zm1.36.68s1.745-.656 1.838-.643l.42.21.243-1.448.023-.15.137.075s.48.235.543.346c0 0-.266 1.597-.427 1.684 0 0-.284-.136-.445-.26-.08.037-1.737.643-1.825.643 0 0-.52-.26-.506-.457zm2.08 1.064s1.7-.718 1.787-.718l.457.186.118-1.448.006-.148.136.062s.52.21.588.31c0 0-.13 1.607-.285 1.706 0 0-.303-.124-.47-.235-.037.01-1.695.717-1.78.717 0 0-.558-.223-.558-.433zm2.807 1.348s-.414-.11-.575-.272h-.006c-.024-.025-.056-.062-.06-.1 0 0 1.545-.89 1.626-.902l.507.136L49 74.38l-.018-.172.16.05s.576.148.656.247c0 0 .18 1.608.043 1.72 0 0-.35-.1-.543-.173-.032.012-1.535.878-1.622.89z"/><path d="M41.774 71.97l.303-1.04c-.346.297-.68.606-1.007.928.234-.074.414-.11.445-.1l.26.21zM34.834 92.47c.117.568.26 1.125.414 1.67.6 2.065 1.49 4.02 2.63 5.802.34.532.692 1.052 1.076 1.547.253.333.52.667.792.976.03.05.056.074.08.11.285.323.575.644.873.954-.045-.148-.076-.272-.07-.31 0 0 .384-.32.55-.284 0 0 .476 1.274.446 1.398l-.056.05c.16.16.328.31.502.458l.996.383-.148.124s-.056.036-.124.098c.253.21.52.408.792.606.043.037.08.062.124.087.234.174.47.335.717.508l.074.037c.26.185.53.346.797.52.014 0 .02.012.04.012.276.16.568.334.858.495 0 0 .013 0 .02.012.55.297 1.106.557 1.68.817l.014.013c.934.396 1.9.755 2.895 1.027.55.16 1.107.297 1.67.408-.315-1.992-.618-3.91-.89-5.68-.167-1.1-.328-2.14-.477-3.104-.148.025-.31.062-.365.05 0 0-1.033-.854-1.305-1.225l-.043-.026.013-.012c-.032-.037-.044-.074-.044-.1 0 0 .366-.098.564-.123.037-.248.21-1.325.284-1.4 0 0 .248-.06.465-.086-.138-.94-.25-1.732-.33-2.363l-.018.013.013-.025c-.062-.483-.105-.866-.13-1.113-.97-.087-3.897-.52-7.764-1.113-2.278-.36-4.882-.767-7.616-1.213zm8.214 10.69l-.272.234 1.7.656-.14.11s-.348.31-.46.335c0 0-1.324-.507-1.67-.767H42.2c-.037-.037-.062-.062-.068-.087 0 0 .2-.16.334-.26-.086-.26-.44-1.224-.42-1.335 0 0 .39-.322.556-.272 0 0 .47 1.262.446 1.386zm4.448-2.562c.03-.21.217-1.336.284-1.41 0 0 .557-.223.712-.1 0 0-.223 1.374-.29 1.448l-.372.136 1.566 1.04-.198.073s-.526.21-.626.198c0 0-1.15-.755-1.466-1.1l-.037-.026h.012c-.032-.037-.056-.074-.056-.1 0 .002.273-.11.47-.16zm-1.776-.594s.508-.26.67-.16c0 0 .036 1.347-.02 1.446l-.328.173 1.633.94-.185.087s-.483.235-.588.223c0 0-1.187-.68-1.522-.99l-.05-.025.014-.012c-.038-.037-.062-.074-.062-.1 0 0 .24-.11.42-.185-.006-.22-.036-1.297.018-1.396zm-1.144.705s.148 1.335.1 1.446l-.304.173 1.67.84-.172.1s-.44.26-.55.27c0 0-1.27-.642-1.597-.94l-.024-.01h.012c-.038-.038-.062-.063-.062-.088 0 0 .21-.124.37-.198-.018-.235-.136-1.3-.086-1.398-.002 0 .48-.284.642-.197z" fill="#FFF"/><path d="M50.218 99.905l.792.656c-.067-.457-.13-.902-.19-1.323-.05.272-.106.507-.138.544l-.464.125zM63.865 94.795c-.02.148-.038.36-.068.606-.086.694-.236 1.746-.433 3.07.148-.088.248-.15.272-.162 0 0 .44.087.612.235l.006.012c.038.025.062.05.068.087 0 0-.65.445-1.088.742-.217 1.435-.476 3.105-.76 4.95-.28 1.756-.576 3.636-.892 5.604h.006c.563-.124 1.12-.26 1.67-.433h.006c.96-.272 1.88-.62 2.783-1.027h.006c.575-.26 1.14-.532 1.682-.83.315-.185.626-.358.935-.556.01 0 .024-.012.043-.025.272-.173.55-.346.822-.532l.118-.074c.247-.172.495-.346.73-.53.056-.038.105-.075.155-.112.28-.21.557-.433.83-.656-.062-.062-.11-.124-.124-.16 0 0 .414-1.51.594-1.572 0 0 .172.148.284.272.143-.037.687-.21 1.145-.334.303-.322.587-.643.865-.965.032-.05.056-.087.088-.11.27-.335.53-.67.785-1.003h.006c.372-.507.724-1.027 1.06-1.56.525-.853 1-1.744 1.415-2.66 0-.01.006-.01.006-.01.2-.446.377-.892.544-1.337.013-.037.025-.074.038-.1.172-.457.333-.94.47-1.422.16-.543.296-1.1.42-1.657-2.647.408-5.16.804-7.367 1.15-3.81.583-6.698 1.003-7.73 1.102zm1.12 6.966l-.16-.036s-.577-.16-.657-.247c0 0-.185-1.608-.05-1.72 0 0 .366.1.552.173.043-.025 1.533-.89 1.614-.903 0 0 .42.11.582.285h.013-.007c.03.025.056.062.056.1 0 0-1.535.89-1.623.902l-.507-.148.185 1.595zm2.33-.655l-.456-.186-.13 1.595-.137-.062s-.52-.21-.594-.322c0 0 .136-1.595.284-1.694 0 0 .31.124.483.235.043-.024 1.695-.73 1.775-.73 0 0 .55.236.55.434 0 0-1.695.73-1.776.73zm2.03.99l-.427-.21-.26 1.584-.136-.063s-.49-.235-.55-.36c0 0 .265-1.595.426-1.67 0 0 .284.137.445.248.094-.025 1.745-.63 1.826-.63 0 0 .345.172.463.345h.013-.006c.024.05.043.074.043.11 0 0-1.75.645-1.838.645zm3.644.52s-1.808.556-1.894.53l-.378-.222-.427 1.57-.123-.073s-.445-.26-.5-.384c0 0 .433-1.584.588-1.645 0 0 .253.15.402.273.13-.037 1.794-.544 1.88-.532 0 .002.476.286.452.484z" fill="#FFF"/><path d="M72.024 104.594c.137-.124.272-.26.408-.384l-.247-.198-.16.582zM62.436 71.622c.167 1.113.328 2.165.476 3.142.13-.025.26-.05.303-.037 0 0 1.027.84 1.31 1.212l.05.036-.018.012c.03.037.05.074.043.1 0 0-.365.098-.564.123-.043.248-.21 1.325-.277 1.4 0 0-.218.05-.422.073.136.953.253 1.745.333 2.363.063.507.112.903.138 1.15.996.1 3.878.508 7.695 1.102 2.245.346 4.813.742 7.51 1.163-.05-.284-.124-.568-.193-.853-.06-.272-.136-.544-.217-.817-.57-2.03-1.416-3.947-2.498-5.703-.334-.532-.687-1.052-1.064-1.56-.252-.345-.518-.692-.797-1.014-.043-.062-.08-.11-.118-.148-.284-.346-.575-.68-.884-.99.063.186.1.334.093.37 0 0-.383.335-.556.286 0 0-.47-1.26-.446-1.397l.1-.074c-.13-.125-.26-.25-.39-.372l-1.132-.433.137-.124s.086-.073.18-.147c-.26-.21-.52-.42-.793-.618-.03-.025-.067-.05-.1-.074-.246-.185-.493-.358-.74-.53-.014 0-.03-.013-.044-.026-.556-.383-1.126-.73-1.713-1.064-.545-.297-1.102-.582-1.67-.83-.954-.432-1.943-.803-2.964-1.1-.55-.16-1.106-.297-1.67-.42.318 2.04.62 3.996.906 5.802zm4.038 3.76c-.03.2-.222 1.337-.284 1.41 0 0-.564.224-.712.1 0 0 .217-1.36.285-1.46l.365-.136-1.565-1.027.204-.075s.526-.21.625-.198c0 0 1.144.755 1.46 1.09l.042.024-.01.013c.03.037.055.074.055.1 0 0-.273.1-.466.16zm1.77.595s-.508.26-.67.16c0 0-.036-1.347.02-1.446l.328-.172-1.627-.94.18-.087s.482-.234.587-.234c0 0 1.2.693 1.534 1.015l.043.013-.012.012c.03.037.054.074.054.1 0 0-.24.11-.42.172.006.26.038 1.31-.018 1.41zm1.788-.903s-.483.272-.644.198c0 0-.155-1.336-.1-1.447l.304-.173-1.67-.84.174-.112s.438-.247.544-.26c0 0 1.287.643 1.61.94h.012l-.006.012c.037.025.067.062.067.087 0 0-.215.123-.383.197.024.247.135 1.298.092 1.397zm1.725-2.82h.006c.037.024.068.06.068.06s-.192.186-.333.286c.086.247.446 1.225.42 1.336 0 0-.383.322-.555.272 0 0-.476-1.262-.452-1.386l.28-.235-1.702-.656.137-.123s.352-.297.464-.322c-.002 0 1.328.508 1.667.768z" fill="#FFF"/><path d="M63.753 76.076l-.736-.606c.056.383.11.755.167 1.113.037-.198.073-.36.1-.383l.47-.124z" fill="#FFF"/><path d="M71.84 103.43c-.18.063-.595 1.572-.595 1.572.013.037.062.1.124.16.048-.05.098-.086.154-.135.067-.05.136-.124.204-.173.024-.025.05-.05.074-.062.075-.074.15-.136.223-.198l.16-.582.248.198c.08-.074.16-.16.242-.235.1-.1.204-.198.303-.297.1-.1.19-.21.29-.31-.458.125-1 .298-1.144.335-.113-.124-.285-.272-.285-.272z" fill="#D50032"/><path d="M70.255 102.392c-.155.062-.588 1.645-.588 1.645.056.124.5.384.5.384l.124.075.428-1.57.378.222c.086.025 1.893-.532 1.893-.532.023-.198-.453-.483-.453-.483-.086-.012-1.75.495-1.88.532-.15-.124-.402-.272-.402-.272zM71.14 101.34h.005-.013c-.118-.173-.464-.346-.464-.346-.08 0-1.732.606-1.826.63-.16-.11-.445-.246-.445-.246-.16.074-.427 1.67-.427 1.67.062.124.55.36.55.36l.137.06.26-1.583.427.21c.086 0 1.837-.643 1.837-.643.002-.038-.017-.062-.04-.112zM68.54 99.942c-.08 0-1.73.705-1.774.73-.174-.11-.483-.235-.483-.235-.148.1-.285 1.695-.285 1.695.075.11.594.322.594.322l.136.062.13-1.596.457.186c.08 0 1.776-.73 1.776-.73.002-.2-.55-.434-.55-.434zM66.927 99.41c0-.037-.025-.074-.056-.1h.007-.013c-.16-.172-.582-.284-.582-.284-.08.012-1.57.878-1.614.903-.186-.075-.55-.174-.55-.174-.137.11.048 1.72.048 1.72.08.087.656.247.656.247l.16.037-.185-1.596.507.148c.09-.01 1.623-.902 1.623-.902zM64.254 98.556l-.006-.012c-.172-.148-.612-.235-.612-.235-.024.01-.124.073-.272.16-.037.297-.086.594-.13.915.44-.297 1.09-.742 1.09-.742-.008-.037-.032-.062-.07-.087zM49.927 99.77c-.198.024-.564.123-.564.123 0 .025.013.062.044.1l-.013.01.043.026c.272.37 1.305 1.224 1.305 1.224.056.012.217-.025.365-.05-.03-.223-.067-.433-.1-.643l-.79-.655.463-.124c.032-.036.087-.27.137-.543-.05-.322-.1-.643-.142-.953-.217.025-.465.087-.465.087-.072.075-.246 1.15-.283 1.4zM47.07 100.858l.036.025c.315.346 1.466 1.1 1.466 1.1.1.013.626-.197.626-.197l.198-.074-1.566-1.04.37-.135c.07-.074.292-1.447.292-1.447-.154-.124-.712.1-.712.1-.067.073-.253 1.2-.284 1.41-.198.048-.47.16-.47.16 0 .025.024.062.056.1h-.013zM45.282 101.588c0 .025.024.062.062.1l-.013.01.05.026c.335.31 1.522.99 1.522.99.105.012.588-.223.588-.223l.185-.086-1.633-.94.328-.173c.056-.098.02-1.446.02-1.446-.162-.1-.67.16-.67.16-.054.1-.024 1.176-.018 1.4-.18.072-.42.184-.42.184zM43.932 100.907c-.05.1.068 1.163.087 1.398-.162.074-.372.198-.372.198 0 .025.024.05.062.087h-.013l.024.012c.33.297 1.597.94 1.597.94.11-.012.55-.272.55-.272l.173-.1-1.67-.84.303-.173c.05-.11-.1-1.447-.1-1.447-.158-.088-.64.197-.64.197zM42.046 102.045c-.02.11.334 1.076.42 1.336-.135.1-.333.26-.333.26.006.026.032.05.068.088h.007c.346.26 1.67.767 1.67.767.11-.025.46-.334.46-.334l.14-.11-1.7-.656.272-.235c.024-.125-.446-1.387-.446-1.387-.168-.05-.558.272-.558.272zM41.18 102.936c-.166-.037-.55.285-.55.285-.006.038.024.162.07.31.11.124.216.235.332.346.137.136.272.26.41.383.048.05.085.086.128.123l.056-.05c.03-.123-.446-1.397-.446-1.397zM43.067 105.225l-.996-.383c.08.074.167.148.248.21.086.074.16.148.247.223.02.012.038.025.056.037.057.05.112.087.175.136.068-.062.124-.1.124-.1l.147-.123zM42.12 72.55c.18-.062.6-1.57.6-1.57-.024-.088-.204-.248-.31-.347-.11.1-.228.198-.333.297l-.303 1.04-.26-.21c-.03-.013-.21.024-.445.098-.095.087-.187.186-.28.285-.105.1-.204.198-.303.31-.087.098-.18.185-.266.284.428-.1 1.435-.408 1.62-.458.12.122.28.27.28.27z" fill="#D50032"/><path d="M43.704 73.59c.166-.063.593-1.646.593-1.646-.05-.124-.5-.383-.5-.383l-.124-.073-.03.136-.39 1.435-.384-.235c-.093-.012-1.887.544-1.887.544-.024.198.446.483.446.483.09 0 1.76-.507 1.873-.532.147.123.4.27.4.27zM45.565 74.604c.16-.087.427-1.683.427-1.683-.062-.11-.543-.345-.543-.345l-.138-.074-.024.15-.242 1.447-.42-.21c-.094-.012-1.838.643-1.838.643-.013.198.507.458.507.458.087 0 1.744-.606 1.826-.643.162.123.445.26.445.26zM47.675 75.544c.155-.1.285-1.707.285-1.707-.068-.1-.588-.31-.588-.31l-.136-.06-.006.147-.118 1.448-.457-.186c-.087 0-1.788.718-1.788.718 0 .21.556.433.556.433.086 0 1.744-.705 1.78-.718.17.11.472.234.472.234zM49.797 74.505c-.08-.1-.655-.247-.655-.247l-.16-.05.017.173.166 1.424-.507-.136c-.082.012-1.628.903-1.628.903.005.038.037.075.06.1h.008c.16.16.575.272.575.272.087-.012 1.59-.878 1.622-.89.19.073.544.172.544.172.137-.11-.043-1.72-.043-1.72zM49.71 77.425h-.005.013c.18.148.618.235.618.235.025 0 .186-.1.384-.235.043-.297.086-.594.135-.903-.438.285-1.206.817-1.206.817.005.023.03.06.06.085zM64.037 76.212c.2-.025.564-.124.564-.124.007-.025-.012-.062-.042-.1l.018-.01-.05-.038c-.283-.37-1.31-1.212-1.31-1.212-.043-.012-.174.012-.303.037.037.235.068.47.105.705l.736.606-.47.124c-.025.025-.062.185-.1.383.057.383.112.755.156 1.1.204-.024.414-.073.414-.073.073-.074.24-1.15.283-1.398zM66.895 75.11l-.043-.024c-.315-.334-1.46-1.09-1.46-1.09-.098-.01-.624.2-.624.2l-.204.073 1.565 1.026-.366.136c-.068.1-.285 1.46-.285 1.46.147.124.71-.1.71-.1.063-.073.254-1.21.285-1.41.193-.06.465-.16.465-.16 0-.025-.025-.062-.056-.1l.01-.01zM68.628 74.295l.01-.012-.042-.012c-.334-.32-1.534-1.014-1.534-1.014-.105 0-.588.235-.588.235l-.18.088 1.628.94-.328.173c-.056.1-.02 1.448-.02 1.448.162.1.67-.16.67-.16.056-.1.024-1.152.018-1.41.18-.063.42-.174.42-.174 0-.025-.023-.062-.054-.1zM70.322 73.478c0-.025-.03-.062-.067-.087l.006-.01h-.012c-.322-.298-1.61-.94-1.61-.94-.104.01-.543.26-.543.26l-.174.11 1.67.84-.302.174c-.056.11.1 1.447.1 1.447.16.075.643-.197.643-.197.044-.1-.067-1.15-.09-1.398.167-.073.382-.197.382-.197zM69.624 71.808l-.137.124 1.7.656-.278.235c-.025.124.45 1.386.45 1.386.173.05.557-.273.557-.273.025-.11-.334-1.09-.42-1.336.14-.098.333-.27.333-.27s-.032-.05-.068-.075h-.006c-.34-.26-1.67-.767-1.67-.767-.11.023-.462.32-.462.32zM72.78 73.033c.173.05.555-.285.555-.285.006-.037-.03-.186-.092-.37-.118-.125-.23-.248-.346-.372-.105-.11-.217-.21-.328-.31-.044-.05-.093-.098-.138-.135l-.1.075c-.023.136.447 1.398.447 1.398zM70.91 70.756l1.133.433c-.1-.088-.204-.174-.303-.26-.062-.05-.118-.1-.174-.162-.062-.05-.118-.1-.18-.148-.056-.037-.105-.087-.16-.136-.093.074-.18.148-.18.148l-.136.124z" fill="#D50032"/><path d="M50.348 95.92s0-.01-.006-.024c0 0-.006.025-.013.037l.018-.012zM36.38 72.946s.396.903.952 2.14c.34-.532.7-1.027 1.083-1.522-3.143-6.978-6.298-13.993-6.186-14.03 0 0 6.53 4.07 12.965 8.104.526-.31 1.058-.594 1.615-.866-6.106-3.786-16.832-10.417-16.832-10.417s1.577 5.864 6.4 16.59zM81.637 116.335s-6.464-4.033-13.064-8.178c-.538.31-1.096.594-1.658.866 6.155 3.86 17.692 11.11 17.692 11.11s-6.953-16.888-7.54-18.187c0 0-.23-.507-.576-1.287-.34.53-.698 1.038-1.076 1.52 3.223 7.177 6.347 14.106 6.223 14.155z" fill="#0C2C56"/><path d="M41.44 70.348c1.157-1.027 2.412-1.93 3.754-2.71-6.433-4.033-12.966-8.104-12.966-8.104l9.212 10.814zM72.31 70.286c1.15 1.015 2.207 2.128 3.14 3.353 3.156-6.855 6.54-13.87 6.522-14.13L72.31 70.286zM41.756 105.695c-1.176-1.002-2.246-2.116-3.205-3.316-3.154 7.002-6.27 13.93-6.154 13.98l9.36-10.665zM72.352 105.435c-1.163 1.027-2.43 1.942-3.78 2.722 6.602 4.145 13.065 8.178 13.065 8.178l-9.285-10.9z" fill="#C4CED4"/><path d="M63.654 81.186c-.186.173-.798.78-1.56 1.56-1.9 1.93-4.824 4.935-5.09 5.257-.174.223-.798.89-1.622 1.744.823-.854 1.448-1.522 1.622-1.744.247-.297 3.185-3.328 5.09-5.258.77-.78 1.374-1.386 1.56-1.56z" fill="#FFF"/><path d="M56.998 88.015c.018.012.056.05.08.074-.018-.026-.043-.05-.056-.075h-.024z" fill="#FFF"/><path d="M63.654 81.186c.043 0 .1.012.154.012-.025-.247-.075-.643-.137-1.15-.08-.62-.197-1.41-.332-2.364-.043-.346-.1-.718-.155-1.1-.056-.36-.11-.73-.167-1.114-.037-.235-.068-.47-.105-.705-.147-.977-.308-2.03-.475-3.142-.285-1.806-.588-3.76-.903-5.803-.05-.297-.092-.594-.142-.903-1.894-12.013-4.225-26.105-4.386-26.043v49.13c.266-.323 3.19-3.33 5.09-5.26.762-.78 1.374-1.385 1.56-1.558z" fill="#C4CED4"/><path d="M34.784 83.524c.112-.57.247-1.113.395-1.658v-.012c.14-.507.302-1.027.482-1.522 0 0 .013-.025.02-.05.178-.482.364-.965.574-1.435 0-.012.006-.012.006-.037.204-.445.42-.89.65-1.336.037-.062.074-.136.11-.198.23-.433.464-.854.725-1.262.327-.544.692-1.064 1.07-1.56.21-.296.432-.58.655-.853.013-.01.018-.024.03-.036.23-.272.47-.557.718-.83.086-.098.18-.185.266-.284.1-.11.198-.21.303-.31.09-.098.184-.197.278-.284.303-.297.612-.582.927-.866.025-.025.05-.05.08-.062.105-.1.223-.198.334-.297.27-.222.544-.444.822-.655.05-.037.105-.074.16-.124.235-.172.476-.345.718-.52.043-.024.086-.048.124-.073.266-.185.532-.36.81-.532.02-.012.038-.025.056-.037.298-.186.6-.36.91-.532h.012c.538-.31 1.095-.582 1.663-.84 1.015-.46 2.066-.842 3.155-1.152.55-.148 1.107-.272 1.67-.396-.32 2.066-.636 4.058-.915 5.877-.284 1.806-.532 3.452-.742 4.875-.05.31-.092.606-.135.903-.21 1.435-.365 2.56-.452 3.266-.024.21-.043.382-.056.52.038-.013.08-.013.118-.013 1.7 1.57 6.156 6.15 6.675 6.805V38.874c-.118-.025-2.444 14.017-4.35 26.006-.562.1-1.12.223-1.662.36-1.453.383-2.85.902-4.18 1.533-.558.272-1.09.557-1.616.866-1.342.78-2.597 1.682-3.754 2.71l-9.212-10.814c-.11.037 3.043 7.052 6.186 14.03-.384.495-.742.99-1.083 1.522-1.38 2.09-2.43 4.43-3.08 6.928-.136.532-.252 1.09-.358 1.645.298-.05.594-.086.892-.136z" fill="#005C5C"/><path d="M56.998 88.015l.006-.012c-.174.223-.798.89-1.622 1.744-.117.124-.234.247-.36.37-.332.347-.68.706-1.044 1.077-.656.668-1.337 1.36-1.96 1.98-.67.668-1.263 1.237-1.69 1.633-.037 0-.08 0-.118-.012.025.247.068.63.13 1.1l.006.013c.08.643.19 1.435.328 2.375.043.31.092.63.142.953.062.42.124.866.19 1.324.033.21.07.42.1.643.15.965.31 2.004.476 3.105.272 1.77.575 3.687.89 5.68.052.296.095.593.144.89 1.905 12.038 4.268 26.278 4.386 26.254l-.004-49.117z" fill="#C4CED4"/><path d="M68.572 108.157c1.348-.78 2.616-1.695 3.78-2.722l9.284 10.9c.124-.05-3-6.978-6.223-14.154.378-.482.736-.99 1.077-1.52 1.318-2.005 2.33-4.232 2.987-6.608.142-.544.28-1.1.39-1.658l-.903.148c-.124.557-.26 1.113-.42 1.658-.138.483-.3.965-.47 1.423-.014.025-.026.062-.04.1-.166.444-.345.89-.542 1.323 0 0-.006.012-.006.025-.414.916-.89 1.807-1.416 2.66-.335.533-.687 1.053-1.058 1.56h-.006c-.255.334-.514.668-.785 1.002-.03.025-.055.062-.087.11-.28.323-.563.644-.865.966-.1.1-.193.21-.29.31-.1.098-.205.197-.304.296-.08.074-.16.16-.242.235-.136.123-.27.26-.408.383-.073.062-.148.124-.223.198-.023.013-.048.038-.073.063-.068.05-.137.124-.204.173-.056.05-.105.087-.155.136-.272.223-.55.445-.83.656-.05.037-.1.074-.155.11-.234.186-.483.36-.73.533-.037.026-.08.05-.118.075-.272.186-.55.36-.822.532-.02.012-.032.025-.043.025-.31.198-.62.37-.935.557-.544.296-1.107.568-1.676.828H66.046c-.903.408-1.824.755-2.783 1.027h-.006c-.55.173-1.107.31-1.67.433h-.006c.315-1.967.612-3.848.89-5.605.286-1.843.546-3.514.762-4.95.043-.32.092-.617.13-.914.197-1.325.346-2.376.432-3.07.03-.246.05-.457.068-.605-.068 0-.124.012-.18.012-1.646-1.522-5.87-5.864-6.607-6.718-.024-.026-.062-.063-.08-.075l.006 49.117c.117.025 2.505-14.253 4.435-26.29.563-.125 1.12-.248 1.67-.397 1.318-.36 2.592-.84 3.804-1.423.565-.27 1.122-.556 1.66-.865z" fill="#005C5C"/><path d="M57.004 88.003c-.52-.656-4.974-5.233-6.675-6.805-.038 0-.08 0-.12.012-.976.087-3.945.52-7.868 1.126-2.264.346-4.85.755-7.558 1.188-.298.05-.594.087-.89.136-11.762 1.893-25.42 4.182-25.358 4.343h48.468z" fill="#C4CED4"/><path d="M94.758 91.616c1.638-.272 3.185-.544 4.62-.792 9.588-1.707 14.63-2.945 14.63-2.945s-8.697-1.535-18.422-3.205c-2.152-.383-4.362-.755-6.538-1.126-.068-.013-.143-.026-.217-.038-3.415-3.872-7.38-7.064-11.666-9.737.043-.1.08-.186.123-.272.41-.89.682-1.497.682-1.497.42-.903.802-1.744 1.156-2.536 3.476-7.634 4.28-9.984 4.28-9.984l1.362-2.982-14.364 8.128-3.378 2.153c.556.272 1.095.557 1.62.866 6.446-4.12 13.182-8.35 13.325-8.14.02.26-3.365 7.275-6.52 14.13.384.494.742 1 1.077 1.52.99 1.523 1.807 3.156 2.425 4.9.94.718 1.862 1.472 2.76 2.252-.737-.124-1.473-.247-2.166-.37.136.556.26 1.112.36 1.67 10.7 1.706 23.11 3.76 25.732 4.267.322.073.502.11.502.11.024.124-14.234 2.5-26.272 4.405-.11.557-.248 1.113-.39 1.658 3.6-.57 8.004-1.274 10.95-1.745 4.225 6.693 6.92 15.255 6.92 26.823 0 31.166-22.43 51.95-43.63 51.95-14.022 0-21.496-8.45-25.393-8.45 0 0-8.84 4.64-12.774 5.494V125.254c4.666 2.92 10.9 33.703 38.955 33.703 9.663 0 18.7-8.438 18.7-24.893 0-9.7-4.26-16.06-10.472-21.255.13-.83.253-1.634.378-2.364-.55.148-1.106.272-1.67.396-1.93 12.038-4.318 26.316-4.434 26.29-.118.026-2.48-14.215-4.386-26.253-.564-.1-1.12-.224-1.665-.372.155.977.328 2.054.502 3.155l1.923 11.99c2.03 12.31 3.62 19.906 3.62 19.906s1.608-7.597 3.65-19.895l.365-2.29c.253-1.52.6-3.66.964-5.925.043-.26.08-.52.123-.78 4.61 4.726 7.727 10.27 7.727 17.247 0 12.545-6.335 21.367-15.898 21.367-16.263 0-24.838-12.83-32.402-27.95-1.912-3.822-5.382-7.534-9.46-8.004v53.745l17.037-6.16c3.824 1.187 9.997 7.41 25.778 7.41 24.626 0 45.913-23.198 45.913-55.947 0-10.9-2.34-19.647-6.236-26.724.066-.014.134-.026.196-.038z" fill="#0C2C56"/><path d="M27.874 92.94c.247.048.488.086.736.123 2.375 2.017 4.917 3.848 7.547 5.592-.742-1.423-1.35-2.932-1.79-4.503-.08-.074-.16-.136-.24-.198.062.012.13.025.19.025-.147-.533-.276-1.09-.388-1.66-11.75-1.892-25.414-4.206-25.395-4.317-.062-.16 13.596-2.45 25.357-4.343.105-.557.222-1.113.36-1.645-3.44.544-7.537 1.212-10.333 1.658C18.5 76.3 14.89 66.6 14.89 52.866 14.89 26.254 35.177 8.29 53.1 8.29c6.538 0 11.53 2.374 15.28 4.763 3.73 2.598 6.222 4.974 8.097 4.974 0 0 7.28-3.217 10.59-4.54V51.79c-8.753-6.335-11.22-31.388-31.475-31.388-8.42 0-16.052 7.584-16.052 20.13 0 10.417 4.91 16.887 11.865 22.145-.143.903-.285 1.77-.414 2.56.545-.135 1.102-.26 1.664-.358 1.905-11.99 4.23-26.032 4.35-26.007.16-.062 2.49 14.03 4.385 26.043.562.11 1.118.235 1.662.396l-.865-5.456c-.768-4.8-1.523-9.54-1.523-9.54-2.035-12.36-3.75-18.792-3.75-18.792s-1.508 6.52-3.537 18.806c0 0-.13.84-.346 2.165-.216 1.373-.525 3.28-.847 5.332-.03.136-.05.285-.075.42-5.586-5.208-9.062-11.146-9.062-17.815 0-9.564 4.54-16.43 14.104-16.43 12.44 0 17.098 14.278 24.51 26.947 1.738 2.98 5.498 5.492 8.895 6.334V8.414s-11.34 4.663-14.438 5.715c-5.26-4.182-15.02-9.527-23.03-9.527C33.6 4.603 11.6 25.128 11.6 52.62c0 14.264 3.414 24.137 8.777 31.622l-.637.11c-1.67.273-3.255.558-4.74.805C5.456 86.803 0 87.88 0 87.88s7.515 1.682 20.197 3.81c.167.037.334.062.507.087l7.17 1.162zM45.38 108.23c-6.494 4.133-12.928 8.228-12.984 8.13-.118-.05 3-6.98 6.155-13.982-.382-.482-.748-.977-1.094-1.497-.47 1.053-.798 1.795-.798 1.795-.19.42-.378.83-.563 1.237-4.61 10.207-7.553 16.108-7.553 16.108s4.268-1.893 15.972-9.33c0 0 .613-.395 1.49-.952.316-.198.664-.408 1.03-.643-.56-.257-1.115-.554-1.653-.864z" fill="#0C2C56"/><path d="M52.618 110.88c-.05-.298-.092-.595-.143-.892-.563-.11-1.12-.247-1.67-.408-.996-.272-1.96-.63-2.895-1.027h-.013v-.012c-.575-.26-1.13-.52-1.682-.816l-.006-.012h-.014c-.29-.16-.582-.334-.86-.495-.018 0-.024-.012-.037-.012-.267-.173-.538-.334-.798-.52l-.075-.037c-.247-.173-.483-.334-.717-.507-.044-.024-.08-.05-.124-.086-.272-.198-.54-.396-.792-.606-.062-.05-.118-.087-.174-.136l-.056-.037c-.086-.074-.16-.148-.247-.223-.08-.062-.167-.136-.247-.21-.174-.148-.34-.297-.502-.458-.043-.037-.08-.074-.13-.124-.136-.124-.27-.247-.408-.383-.117-.11-.222-.223-.333-.346-.298-.308-.588-.63-.873-.952-.024-.037-.05-.062-.08-.11-.272-.31-.538-.644-.792-.978-.384-.495-.736-1.015-1.077-1.547-1.138-1.782-2.03-3.736-2.63-5.803-.154-.544-.297-1.1-.413-1.67 2.734.445 5.34.854 7.614 1.212 3.867.594 6.793 1.027 7.764 1.113.038.012.08.012.118.012.427-.396 1.02-.965 1.69-1.633.624-.62 1.304-1.31 1.96-1.98.365-.37.712-.73 1.045-1.076.124-.124.242-.247.36-.37.822-.855 1.447-1.523 1.62-1.745H8.537c-.02.11 13.646 2.425 25.394 4.318.11.57.24 1.127.39 1.66.012.06.037.11.048.172.44 1.57 1.047 3.08 1.79 4.503-2.63-1.745-5.173-3.576-7.548-5.592-.248-.037-.49-.074-.736-.124l-7.17-1.164c-.173-.025-.34-.05-.508-.087 4.238 4.527 9.514 8.56 15.898 12.223.185-.408.37-.817.563-1.237 0 0 .328-.742.798-1.794.346.52.712 1.015 1.095 1.497.96 1.2 2.03 2.313 3.205 3.315l-9.36 10.665c.056.1 6.49-3.996 12.985-8.128.538.31 1.095.606 1.652.866-.365.235-.712.445-1.028.643 1.96 1.3 3.78 2.61 5.45 3.923-.174-1.1-.347-2.178-.502-3.155.546.148 1.103.272 1.666.37z" fill="#005C5C"/><path d="M57.022 88.015c.013.025.038.05.056.074.736.853 4.96 5.195 6.607 6.717.056 0 .11-.012.18-.012 1.033-.1 3.92-.52 7.732-1.1 2.208-.347 4.72-.743 7.368-1.152.296-.05.6-.1.903-.148 12.038-1.905 26.296-4.28 26.272-4.392l-49.118.012z" fill="#C4CED4"/><path d="M61.39 64.917c.05.31.092.606.142.903.563.124 1.12.26 1.67.42 1.02.298 2.01.67 2.963 1.102.57.247 1.126.532 1.67.83.588.333 1.158.68 1.714 1.063.012.012.03.025.042.025.248.173.495.346.742.532.032.025.068.05.1.074.27.198.53.408.79.618.057.05.106.1.162.136.062.05.118.1.18.148.056.062.11.11.174.16.1.088.204.174.303.26l.39.372c.043.037.093.087.136.136.11.1.222.198.327.31.117.123.228.246.346.37.31.31.6.643.884.99.038.037.075.087.118.148.28.322.545.668.798 1.015.378.506.73 1.026 1.064 1.558 1.082 1.757 1.93 3.675 2.498 5.703.08.273.156.545.217.818.068.285.143.57.193.854-2.697-.42-5.265-.817-7.51-1.163-3.817-.595-6.7-1.003-7.695-1.102-.056 0-.11-.012-.154-.012-.186.173-.792.78-1.56 1.56-1.905 1.93-4.843 4.96-5.09 5.257l-.006.012h.024l49.118-.012s-.18-.05-.502-.124c-2.622-.508-15.032-2.562-25.733-4.27-.1-.556-.223-1.112-.36-1.67-.173-.63-.37-1.26-.593-1.88-.618-1.744-1.435-3.378-2.425-4.9-.335-.52-.694-1.026-1.078-1.52-.934-1.226-1.992-2.34-3.142-3.354l9.663-10.776c-.143-.21-6.88 4.02-13.325 8.14-.526-.308-1.064-.593-1.62-.865-1.262-.606-2.598-1.1-3.972-1.472-.547-.16-1.103-.285-1.666-.396z" fill="#005C5C"/></svg>