<svg xmlns="http://www.w3.org/2000/svg" viewBox="0 0 235.962 182.716"><title>Arizona Diamondbacks hat dark logo</title><path d="M225.882 176.278h-2.217v6.06h-1.51v-6.06h-2.23v-1.312h5.957v1.312zm10.08 6.06h-1.506v-5.865h-.03l-2.138 5.866h-1.445l-2.07-5.867h-.043v5.866h-1.506v-7.374h2.617l1.714 4.81h.042l1.786-4.81h2.58v7.373zM78.047 155.28l28.135-47.246c.735 2.903 2.21 8.683 2.435 9.57-1.445 2.49-23.204 40.13-23.204 40.13s32.1-26.526 33.576-27.742c.54.644 23.786 28.845 23.786 28.845s-10.93-36.51-11.67-38.998c.557-.888 4.206-6.717 6.515-10.422l9.954 45.946-19.888 27.352h85.473L172.306 0l-56.852.036L0 182.716h91.11L78.046 155.28zm29.143-48.936l17.933-30.11h5.308l6.523 30.11H107.19z" fill="#E3D4AD"/><path d="M123.963 7.19h42.332l37.494 168.324h-60.91l13.61-18.413-19.537-87.374-16.148-.012-52.11 85.723 9.722 20.003h-60.35l-5.92 3.668H84.92l-11.514-23.745 49.42-82.418h10.766l18.66 83.245-16.765 22.93h73.024L169.448 3.497 121.52 3.46"/><path d="M60.994 144.786l6.31-3.984-11.222-26.708 35.75-22.397-12.285-22.032 34.578-16.687-11.16-19.663 26.622-11.83-9.724-14.295-2.258-3.303L6.578 179.047"/><path d="M112.595 118.15l-13.633 23.563s17.975-14.853 20.526-16.955c1.76 2.138 14.46 17.526 14.46 17.526s-6.28-20.987-6.882-22.99l5.776-9.22h-22.306s1.676 6.607 2.06 8.077z" fill="#A71930"/><path fill="#A71930" d="M68.695 155.437l52.11-85.723 16.148.012L156.49 157.1l-13.61 18.414h60.91L166.294 7.19h-42.332l10.433 16.02-26.3 11.83 11.325 19.614-34.553 16.542L96.43 92.633l-35.763 22.542L71.683 142.2l-53.616 33.24h60.35"/></svg>