<svg xmlns="http://www.w3.org/2000/svg" viewBox="0 0 157.271 171.671"><path d="M157.271 50.016v21.653c0 18.072-2.956 29.02-17.146 59.029-14.942 31.592-33.366 40.973-55.415 40.973-14.495 0-28.127-4.775-39.138-13.594l-.099.037-2.456-2.2-.455-.401c-3.126-2.791-5.788-5.797-8.083-8.885a27.104 27.104 0 0 1-.567-.769c-.033-.042-.07-.087-.091-.132-.141-.186-.273-.376-.409-.562a61.532 61.532 0 0 1-3.626-5.764 11.327 11.327 0 0 1-.36-.641c-3.626-6.533-6.02-13.032-8.029-18.473-.575-1.555-1.116-3.023-1.649-4.387-4.16-10.688-12.215-31.572-16.114-42.098-4.052-10.928-4.672-18.684-2.079-25.94 2.778-7.765 8.993-13.979 17.469-20.912C27.516 20 34.801 14.232 44.869 6.964 51.174 2.41 57.938 0 64.429 0c2.749 0 5.346.442 7.727 1.311.426.157.897.326 1.514.558 2.187.827 4.13 1.951 5.805 3.336.174-.099.339-.199.5-.294 4.626-2.704 9.82-4.13 15.017-4.13 4.11 0 8.137.889 11.651 2.567.761.364 1.203.587 1.708.86l.885.459c2.762 1.414 5.139 3.225 7.058 5.33 3.076-1.03 6.061-1.551 8.91-1.551 4.337 0 8.393 1.187 12.056 3.519l.873.554c1.674 1.067 2.518 1.6 3.82 2.51 9.934 6.876 15.318 14.488 15.318 34.987" fill="#ffc52f"/><path d="M138.285 20.33c-1.398-.967-2.212-1.472-4.49-2.927-4.428-2.824-10.299-3.754-18.308-.174-.529.236-1.026.455-1.513.674-1.782-3.651-4.941-6.098-7.674-7.496-1.121-.575-1.431-.761-2.44-1.241-5.437-2.601-13.297-2.977-20.635 1.311-1.476.86-3.407 2.005-5.069 2.985-1.695-2.894-4.308-4.635-6.76-5.561-.587-.219-1.038-.385-1.451-.534-5.416-1.976-13.338-.926-21.301 4.817-9.48 6.851-16.439 12.305-25.535 19.751C6.471 45.551 2.936 53.374 9.68 71.562c3.704 10.001 11.568 30.414 16.075 41.999 2.584 6.64 5.284 15.253 10.159 23.567h.004a64.02 64.02 0 0 0 1.394 2.274c.128.199.264.393.393.587 2.216 3.361 4.846 6.615 8.013 9.633.252.24.508.488.765.724.132.12.248.244.38.36l.012-.013c9.927 9.038 23.075 14.533 37.836 14.533 27.077 0 49.027-21.955 49.027-49.023v-.054c0-25.845-20.95-46.795-46.795-46.795-14.041 0-28.148 8.116-36.467 20.917a25407.636 25407.636 0 0 0-16.807-41.056c-3.068-7.467-2.365-11.25 2.323-15.595 2.394-2.22 5.305-4.441 8.538-6.632 3.303-2.237 7.029-.918 7.029 3.448V76.68c7.541-7.612 16.79-12.569 28.636-14.756l-.182-38.174c.844-.521 1.633-1.005 2.225-1.348 3.022-1.753 5.185.19 5.185 3.006v35.541c.186 0 .376-.008.562-.008a54.114 54.114 0 0 1 27.396 7.426V28.525c.756-.306 1.468-.591 2.018-.81 3.027-1.203 5.073.674 5.073 3.411s-.211 42.238-.211 42.238c11.122 9.174 18.341 22.678 19.478 37.902 5.305-11.292 9.084-21.81 9.084-39.597V50.016c-.002-18.03-4.091-23.839-12.538-29.686M86.517 88.563c15.608 0 28.259 12.656 28.259 28.26s-12.652 28.26-28.259 28.26c-15.604 0-28.256-12.656-28.256-28.26s12.651-28.26 28.256-28.26" fill="#12284b"/><path d="M65.087 116.824c0-5.127 1.807-9.836 4.817-13.532 5.991 7.988 5.991 19.073 0 27.061a21.352 21.352 0 0 1-4.817-13.529m8.563 17.138c7.885-10.022 7.885-24.257.004-34.279a21.31 21.31 0 0 1 12.862-4.308 21.33 21.33 0 0 1 12.867 4.308c-7.885 10.022-7.885 24.257 0 34.279a21.324 21.324 0 0 1-12.867 4.308 21.323 21.323 0 0 1-12.866-4.308m29.48-3.61c-5.991-7.988-5.991-19.073 0-27.061 3.01 3.696 4.821 8.405 4.821 13.532s-1.811 9.833-4.821 13.529" fill="#fff"/><path d="M138.889 155.862h-2.053v5.602h-1.386v-5.602h-2.056v-1.217h5.495v1.217zm9.33 5.602h-1.386v-5.427h-.037l-1.978 5.427h-1.349l-1.9-5.427h-.037v5.427h-1.398v-6.819h2.419l1.587 4.452h.037l1.651-4.452h2.39v6.819z" fill="#ffc52f"/></svg>