<svg xmlns="http://www.w3.org/2000/svg" viewBox="-363 371.37 231.637 219.63"><title>Baltimore Orioles hat light logo</title><path d="M-136.41 398.824c-2.013-5.125-7.138-9.7-15.374-11.164-1.28-.183-2.745-.183-4.21-.183-12.995 0-32.578 4.76-51.98 8.785-7.686 1.464-23.975 3.66-23.975 3.66-12.627-14.824-27.086-18.668-36.237-19.95-5.308-.73-7.687-.182-9.883-.914-1.648-1.098-6.224-4.942-14.277-4.942-1.28 0-2.745.183-4.576 1.098 0 0-9.883 1.28-17.753 9.334-1.647 1.464-4.393 5.125-5.674 8.968-2.013 1.647-3.66 2.196-8.053 6.406-27.82 23.61-16.472 54.358-11.897 64.608-25.073 19.584-19.583 42.28-19.583 42.28l7.687-1.282c-.184 56.006 44.476 83.092 87.486 83.092 34.592 0 67.902-17.57 75.772-51.978 6.406-28.003 11.714-40.632 36.788-47.22 5.125-1.464 7.138-4.76 6.955-7.32-.915-8.786-17.753-18.304-44.11-18.304-3.476 0-7.137.183-10.98.55-1.83-6.407-2.013-8.97-2.013-8.97 16.29-3.843 38.984-11.164 54.542-23.61 12.445-10.066 17.02-19.4 11.346-32.944zm-16.29 20.133c-2.012 2.013-9.7 7.687-20.864 12.812-15.74 7.136-34.043 11.346-38.435 12.627-7.136 2.013-6.953 3.844-5.49 6.955 3.11 6.955 4.028 11.53 5.31 27.82 10.25-3.11 28.917-2.745 45.39 1.28-10.25 4.21-20.866 11.165-30.017 23.245-27.088 36.056-70.282 32.76-89.682 14.276-4.21 3.477 1.28 15.74 1.28 15.74-.913.915-2.926 0-2.926 0-14.642-24.16.915-30.382 12.995-31.114 5.124-.916 4.575 2.012-.184 2.927-20.133 4.576 7.687 27.637 42.096 18.67 30.383-8.054 28.553-27.455 55.64-42.463-21.78-4.027-36.97 1.464-43.56 4.393-4.392 2.196-11.53 2.38-14.64 1.28-3.845 12.08-17.022 15.558-42.097 9.518-17.936-4.21-32.03 13.178-24.16 35.69 8.054 23.06 47.954 46.122 91.514 19.035-3.478 4.577-8.054 8.603-13.18 11.898-11.35 7.138-25.99 11.165-41.18 11.165-21.598 0-41.914-7.87-55.275-21.414-12.263-12.448-18.303-28.92-18.12-48.87 0-3.477 1.1-11.348 2.38-13.727l-8.785.55s2.73-12.715 21.568-23.67l-2.535-5.25.13-.015c-16.502-34.466.983-48.434 8.838-54.893 6.59-5.49 8.238-5.125 9.52-9.883.55-2.745 3.477-5.674 6.954-7.504 4.576-2.562 10.066-2.928 13.178-.55 2.93 2.93 8.786 3.662 12.447 3.662 28.002.915 36.42 21.414 36.42 21.414 6.406-2.013 16.655-2.196 34.59-5.857 34.228-7.505 36.79-7.688 42.28-8.237 6.407-.55 11.715-.183 13.91 5.125 2.196 5.305-3.66 11.894-5.31 13.36v.002z" fill="#DF4601"/><path d="M-134.03 397.726c-2.745-6.59-9.15-11.348-17.57-12.812h-.366c-1.464-.183-2.928-.183-4.576-.183-11.165 0-26.356 3.296-42.462 6.774-3.294.732-6.772 1.464-10.066 2.196-6.223 1.28-18.12 2.927-22.146 3.476-9.517-11.53-21.963-18.12-36.605-20.133-2.564-.366-4.578-.366-6.225-.366-1.28 0-2.196 0-2.928-.183 0 0-.183 0-.183-.183-2.014-1.462-6.954-4.94-15.19-4.94-1.465 0-3.11.183-4.577.366-.915.183-11.165 1.647-19.4 10.25-1.465 1.463-4.394 5.124-6.04 9.333-.367.364-.916.73-1.465 1.096-1.464.915-3.11 2.196-6.04 4.942-12.628 10.615-19.034 23.793-19.034 39.35 0 8.42 1.83 17.387 5.49 26.54-12.444 10.25-17.018 21.047-18.666 28.734-1.83 8.602-.365 14.825-.365 15.008l.55 2.563 2.56-.366 4.577-.732c.55 22.33 8.42 41.73 23.06 56.372C-315.04 581.482-290.514 591-264.526 591c18.12 0 35.69-4.76 49.418-13.544 15.19-9.7 25.257-23.793 29.1-40.632 6.407-27.82 10.982-38.984 34.593-45.024 6.59-1.83 9.334-6.406 8.968-10.25-.548-5.49-5.856-10.797-14.275-14.64-6.04-2.746-16.838-6.04-32.76-6.04-2.93 0-5.858.182-8.97.365-.365-1.647-.73-2.745-.914-3.844 13.91-3.292 36.79-10.43 53.078-23.425 14.458-11.53 18.12-22.33 12.262-36.238h-.004zm-68.27 57.654s.184 2.56 2.014 8.967c3.844-.366 7.504-.55 10.98-.55 26.357 0 43.195 9.518 44.11 18.304.183 2.564-1.83 5.86-6.955 7.323-25.076 6.59-30.384 19.218-36.79 47.22-7.87 34.41-41.18 51.98-75.77 51.98-43.013 0-87.67-27.09-87.488-83.094l-7.687 1.28s-5.49-22.695 19.585-42.28c-4.575-10.25-15.923-40.998 11.897-64.608 4.393-4.21 6.04-4.76 8.053-6.406 1.28-3.844 4.027-7.504 5.674-8.968 7.87-8.053 17.753-9.334 17.753-9.334 1.83-.915 3.294-1.098 4.576-1.098 8.053 0 12.63 3.844 14.276 4.942 2.194.732 4.574.183 9.88.915 9.15 1.28 23.61 5.125 36.24 19.95 0 0 16.29-2.196 23.976-3.66 19.4-4.028 38.984-8.786 51.98-8.786 1.463 0 2.927 0 4.21.183 8.235 1.464 13.36 6.04 15.373 11.164 5.673 13.544 1.097 22.878-11.35 32.945-15.555 12.443-38.25 19.764-54.54 23.61z" fill="#FFF"/><path d="M-161.3 400.47c-5.492.55-8.054.733-42.28 8.237-17.936 3.66-28.186 3.844-34.592 5.857 0 0-8.42-20.5-36.422-21.414-3.66 0-9.517-.732-12.446-3.66-3.11-2.38-8.602-2.014-13.178.548-3.477 1.83-6.406 4.76-6.955 7.504-1.28 4.76-2.928 4.393-9.517 9.883-7.855 6.46-25.34 20.427-8.84 54.892 1.41-.177 14.942-2.004 28.973-8.586l-26.54 13.91-.027-.055c-18.84 10.954-21.57 23.668-21.57 23.668l8.786-.55c-1.28 2.38-2.38 10.25-2.38 13.728-.182 19.95 5.858 36.423 18.12 48.87 13.36 13.543 33.677 21.413 55.274 21.413 15.19 0 29.833-4.027 41.18-11.165 5.126-3.294 9.7-7.32 13.18-11.897-43.56 27.09-83.46 4.027-91.514-19.034-7.87-22.512 6.223-39.9 24.16-35.69 25.073 6.04 38.25 2.562 42.095-9.517 3.11 1.097 10.25.914 14.642-1.28 6.587-2.93 21.78-8.42 43.56-4.395-27.09 15.008-25.26 34.41-55.64 42.462-34.41 8.968-62.23-14.093-42.098-18.67 4.76-.914 5.308-3.843.183-2.927-12.08.73-27.637 6.954-12.995 31.113 0 0 2.014.915 2.93 0 0 0-5.492-12.263-1.282-15.74 19.4 18.486 62.595 21.78 89.682-14.276 9.15-12.08 19.767-19.035 30.016-23.244-16.472-4.027-35.14-4.393-45.39-1.28-1.28-16.29-2.196-20.866-5.308-27.82-1.464-3.112-1.647-4.943 5.49-6.956 4.394-1.28 22.696-5.49 38.436-12.63 11.166-5.123 18.852-10.797 20.866-12.81 1.646-1.464 7.503-8.053 5.307-13.36-2.194-5.308-7.502-5.674-13.908-5.125v-.002zm-140.93.733c3.477-12.995 13.727-5.125 13.727-5.125l-13.727 5.125zm48.867 12.995c0-.915.183-2.013.366-2.562l1.464-1.098h.183v.183c0 .368.183.734.55.917l.365.366 1.28 1.098c.55.55.733.916.916 1.465l.185.55v.182c.366 1.28-.366 2.562-1.464 3.11-.55.367-1.097.367-1.463.184-.183-.182-.55-.55-.732-.914-.366-.55 0-1.83 1.83-2.562h.183l-.183-.183c-.55-.365-1.647-1.28-2.013-1.83l-.182-.182v.183c0 .367-.183.733-.183 1.1l-.183 1.463v.366l-.183 1.463-.183 1.647c-.55 1.83-1.28 2.927-2.38 3.476h-.182l.366-1.647c.916-.55 1.28-2.015 1.465-3.846l.183-2.927zm-2.013-4.76c.183-.365.366-.73.55-.73h.182c-.183.548-.183.73-.183 1.097.366 0 .55 0 .732.183.183.366.183 1.098-.183 1.464a.394.394 0 0 1-.366.366c-.55.183-.915.183-.915 0-.364-.55-.18-1.647.185-2.38zm-17.02-7.32c.914-1.464 2.56-2.196 4.392-2.38 3.11-.182 6.223 2.93 8.42 8.97.548-.55.914-1.282 1.28-2.014l1.28.366c-.365 1.098-1.28 2.38-2.012 2.928 1.464 4.21 1.83 10.432-.183 14.642-.913 2.013-2.194 3.294-4.025 3.844-1.28.366-3.11.366-4.576-.55-2.563-1.28-4.394-4.026-5.675-7.87-1.098-3.66-1.28-8.418.366-12.445-.73-1.83-.364-4.03.734-5.492zm21.78 91.513c-4.16 1.43-9.14-1.395-12.797-6.62 2.167 1.62 4.563 2.16 6.39 1.13 2.928-1.646 3.478-6.77.915-11.164-2.562-4.576-6.955-6.772-9.883-5.125-1.057.594-1.797 1.643-2.2 2.94-1.174-7.88 1.15-14.772 6.042-16.3 6.04-2.013 13.36 4.393 16.472 14.093 3.11 9.7.915 19.218-4.942 21.05l.002-.002zm23.426-9.516c-4.05 1.105-8.507-1.588-11.834-6.455 1.715 1.14 3.576 1.474 5.063.78 2.926-1.463 3.475-6.04 1.462-10.25s-6.04-6.587-8.785-5.306c-1.092.546-1.852 1.526-2.273 2.757-1.053-8.513 1.705-15.945 7.032-17.4 6.04-1.645 12.995 5.127 15.557 15.01 2.56 9.883-.184 19.217-6.224 20.864zm-28.735-38.435c-13.91-1.83-23.06-1.83-14.093-7.688 0 0 21.048-16.288 44.658-19.034 21.963-2.745 56.92-10.432 56.92-10.432s-17.02 10.248-34.04 22.144c-18.485 10.982-32.03 15.557-53.443 15.008h-.002zm66.072-15.558s34.41-23.975 35.507-22.145c3.11 4.21-14.093 15.008-35.507 22.145z"/><path d="M-266.723 410.537c1.28.55 2.562.55 4.21-.183-1.098-3.66-3.11-7.87-5.308-7.87-.917 0-1.83.366-2.198.915-.732 1.096-.732 2.56-.183 3.842.73 1.464 2.01 2.745 3.476 3.294zm2.563 15.19c.914-.182 1.463-.55 2.012-1.463.915-1.464 1.098-3.844 1.098-5.674 0-2.196-.55-4.942-1.098-6.955-3.11 1.647-5.674 1.647-8.42 0-.548 2.196-.548 4.76 0 6.955.916 3.295 3.48 7.687 6.407 7.138zm12.994-9.333c-.183.366-.183.732.183.915.183.18.55.364.915.18.366-.182.55-.365.732-.73.183-.184.183-.733.183-1.28-.183 0-.183-.185-.183-.185h-.183c-.913.366-1.462.732-1.646 1.1z"/><path d="M-302.23 401.203l13.727-5.125s-10.25-7.87-13.727 5.125zm76.87 17.754c-23.61 2.745-44.658 19.035-44.658 19.035-8.968 5.857.183 5.857 14.093 7.687 21.414.547 34.958-4.03 53.443-15.01 17.02-11.897 34.043-22.146 34.043-22.146s-34.956 7.686-56.92 10.432zm35.507 11.163c21.414-7.137 38.618-17.935 35.507-22.145-1.098-1.83-35.507 22.146-35.507 22.146z" fill="#DF4601"/><path d="M-296.557 453.73c-14.03 6.583-27.562 8.41-28.972 8.587l-.127.016 2.535 5.25.028.057 26.538-13.91zm34.41 4.76c-4.89 1.528-7.217 8.42-6.043 16.3.403-1.298 1.144-2.346 2.198-2.94 2.928-1.646 7.32.55 9.883 5.126 2.564 4.393 2.015 9.517-.913 11.165-1.827 1.03-4.223.49-6.39-1.13 3.657 5.225 8.638 8.05 12.796 6.623 5.857-1.83 8.053-11.348 4.942-21.048-3.11-9.7-10.432-16.107-16.472-14.094zm25.623-10.25c-5.326 1.454-8.085 8.886-7.032 17.4.42-1.23 1.18-2.21 2.273-2.757 2.745-1.28 6.772 1.098 8.785 5.308s1.464 8.787-1.464 10.25c-1.487.695-3.348.36-5.063-.78 3.328 4.866 7.784 7.56 11.834 6.454 6.04-1.647 8.783-10.98 6.22-20.865-2.56-9.884-9.515-16.656-15.555-15.008v-.002z" fill="#FFF"/><path d="M-273.495 420.055c1.28 3.844 3.11 6.59 5.674 7.87 1.462.915 3.292.915 4.574.55 1.83-.55 3.11-1.83 4.027-3.845 2.014-4.21 1.648-10.432.184-14.642.732-.55 1.647-1.83 2.013-2.928l-1.28-.366c-.367.732-.733 1.464-1.282 2.013-2.196-6.04-5.308-9.15-8.42-8.968-1.83.18-3.476.913-4.392 2.377-1.098 1.464-1.464 3.66-.732 5.49-1.65 4.027-1.464 8.786-.366 12.447zm3.477-16.656c.366-.55 1.28-.917 2.196-.917 2.196 0 4.21 4.21 5.308 7.87-1.647.732-2.928.732-4.21.183-1.464-.55-2.745-1.83-3.477-3.294-.55-1.28-.55-2.745.18-3.844h.002zm-.55 8.234c2.746 1.647 5.31 1.647 8.42 0 .55 2.013 1.098 4.76 1.098 6.955 0 1.83-.183 4.21-1.098 5.673-.55.915-1.098 1.28-2.013 1.464-2.93.55-5.493-3.844-6.408-7.138-.55-2.197-.55-4.76 0-6.956zm15.924.186c.183 0 .366-.184.366-.367.366-.366.366-1.098.183-1.464-.183-.185-.366-.185-.732-.185 0-.366 0-.55.183-1.098h-.183c-.183 0-.366.366-.55.732-.365.73-.548 1.83-.182 2.38 0 .18.368.18.917 0zm-.366 9.15l-.366 1.647h.183c1.098-.55 1.83-1.647 2.38-3.477l.182-1.647.18-1.464v-.368l.184-1.464c0-.367.183-.733.183-1.1v-.182l.183.183c.367.55 1.465 1.464 2.014 1.83l.183.183h-.183c-1.83.732-2.196 2.013-1.83 2.562.183.366.55.732.732.915.366.184.915.184 1.464-.182 1.098-.55 1.83-1.83 1.464-3.11v-.184l-.183-.55c-.18-.548-.364-.914-.913-1.463l-1.28-1.096-.367-.366a1.007 1.007 0 0 1-.55-.915v-.183h-.183l-1.464 1.097c-.183.55-.366 1.647-.366 2.562l-.183 2.926c-.183 1.83-.55 3.294-1.464 3.843zm5.674-5.674s0 .183.183.183c0 .547 0 1.096-.183 1.28-.183.365-.366.55-.732.73-.366.184-.732 0-.915-.182-.366-.184-.366-.55-.183-.916s.732-.732 1.647-1.098h.185v.002z" fill="#DF4601"/><path d="M-193.33 582.032l-2.014-5.49h-2.928v8.6h1.647v-6.77l2.38 6.77h1.647l2.562-6.77v6.77h1.647v-8.6h-2.926m-15.558 1.646h2.562v6.955h1.647v-6.955h2.563v-1.464h-6.772" fill="#FFF"/></svg>