<svg xmlns="http://www.w3.org/2000/svg" viewBox="0 0 188.382 178.119"><title>Baltimore Orioles hat dark logo</title><path d="M139.185 161.23h-2.06v5.61h-1.407v-5.61h-2.065v-1.226h5.532v1.225zm9.392 5.61h-1.41v-5.452h-.027l-1.99 5.452h-1.343l-1.92-5.452h-.044v5.452h-1.396v-6.836h2.423l1.597 4.483h.037l1.662-4.483h2.41v6.836z" fill="#DF4601"/><path d="M186.39 20.334c-1.76-4.217-6-8.05-12.804-9.244-10.75-1.086-28.83 3.398-46.892 7.146-6.437 1.352-19.93 3.11-19.93 3.11-10.542-12.28-22.57-15.56-30.2-16.55-4.328-.585-6.4-.148-8.183-.734-1.587-1.054-6.437-5.164-15.46-3.78 0 0-8.345 1.075-14.85 7.826-1.29 1.3-3.61 4.324-4.687 7.475-1.63 1.492-2.94 1.81-6.634 5.39C3.56 40.628 13.05 66.25 16.786 74.77-4.137 91.074.42 109.987.42 109.987l6.452-1.044c-.473 84.02 121.29 90.09 135.928 25.898 5.308-23.29 9.594-33.798 30.545-39.283 4.233-1.16 5.905-3.96 5.756-6.058-.904-8.255-18.864-17.338-45.912-14.76-1.607-5.39-1.74-7.465-1.74-7.465 13.688-3.088 32.44-9.18 45.46-19.583 10.377-8.307 14.185-16.166 9.483-27.358M155.437 47.98c-13.05 5.952-28.24 9.508-31.968 10.51-5.92 1.618-5.698 3.172-4.547 5.74 2.594 5.79 3.41 9.487 4.41 23.117 8.557-2.556 23.98-2.183 37.735 1.108-8.562 3.428-17.502 9.34-25.052 19.35-22.623 30.007-58.543 27.25-74.803 11.638-3.54 2.992 1.076 13.14 1.076 13.14-.724.682-2.455-.01-2.455-.01-12.065-20.02.826-25.27 10.884-25.835 4.244-.777 3.706 1.78-.192 2.503-16.787 3.835 6.38 23.12 35.073 15.602 25.307-6.645 23.79-22.767 46.37-35.28-18.07-3.428-30.733 1.12-36.126 3.92-3.59 1.84-9.51 1.96-12.146 1.043-3.327 10.19-14.242 13.066-35.103 7.986-14.817-3.608-26.568 10.96-20.046 29.66 6.677 19.177 39.832 38.388 76.096 15.833-2.96 3.75-6.644 7.07-10.973 9.83-9.392 5.983-21.537 9.306-34.23 9.306-18.083-.023-34.88-6.497-46.062-17.817-10.244-10.372-15.34-24.077-15.137-40.732 0-2.938 1.028-9.434 2.03-11.436l-7.312.49s2.316-10.617 18.11-19.774h-.043l-.67-1.353c-16.193-30.84-.81-43.084 5.92-48.633 5.478-4.547 6.884-4.366 7.885-8.263.586-2.3 2.928-4.727 5.846-6.293 3.733-2.257 8.243-2.503 10.9-.543 2.518 2.503 7.41 3.1 10.382 3.1 23.272.808 30.264 17.826 30.264 17.826 5.292-1.64 13.94-1.832 28.8-4.835 28.506-6.326 30.615-6.475 35.23-6.9 5.337-.48 9.777-.16 11.65 4.28 1.87 4.345-3.13 9.808-4.424 11.086-1.723 1.714-8.074 6.4-17.37 10.64" fill="#DF4601"/><path d="M79.908 42.93c.767-.16 1.193-.436 1.677-1.18.783-1.205.937-3.207.92-4.676-.015-1.81-.377-4.196-.904-5.847-2.53 1.438-4.685 1.46-6.995.01-.533 1.843-.51 3.92.01 5.75.783 2.696 2.796 6.423 5.293 5.944M77.746 30.322c1.108.437 2.21.47 3.536-.202-.884-3.025-2.556-6.624-4.44-6.614-.778.01-1.422.34-1.832.97-.543.82-.58 2.054-.107 3.172.5 1.173 1.576 2.196 2.843 2.674M90.7 35.072c-.144.298-.106.64.1.863.214.224.523.277.826.16.32-.13.5-.32.607-.608.106-.233.16-.606-.022-1.044-.03-.063-.058-.14-.106-.19 0 0-.058-.054-.096-.076-.684.214-1.12.51-1.308.895"/><path d="M177.228 26.255c-1.88-4.44-6.304-4.76-11.65-4.28-4.616.424-6.725.574-35.23 6.9-14.862 3.002-23.51 3.194-28.796 4.834 0 0-6.996-17.018-30.26-17.828-2.986 0-7.88-.596-10.392-3.088-2.656-1.97-7.166-1.725-10.9.543-2.912 1.555-5.248 3.982-5.845 6.283-.996 3.897-2.4 3.716-7.896 8.263-6.716 5.548-22.103 17.794-5.922 48.644l-1.544-3.088s11.873-1.375 24.28-7.19L31.056 77.87h.016c-15.798 9.158-18.12 19.774-18.12 19.774l7.31-.468c-1 1.98-2.034 8.465-2.034 11.405-.197 16.666 4.898 30.37 15.142 40.743 11.187 11.32 27.98 17.794 46.06 17.816 12.706 0 24.84-3.324 34.232-9.298 4.33-2.77 8.013-6.09 10.973-9.85-36.26 22.555-69.42 3.354-76.096-15.823-6.515-18.7 5.23-33.268 20.053-29.66 20.856 5.07 31.77 2.206 35.098-7.985 2.637.916 8.552.798 12.152-1.054 5.388-2.788 18.05-7.336 36.115-3.907-22.58 12.513-21.058 28.635-46.364 35.28-28.688 7.518-51.86-11.767-35.073-15.6 3.893-.725 4.436-3.28.197-2.504-10.058.553-22.96 5.813-10.894 25.834 0 0 1.73.682 2.46.01 0 0-4.622-10.148-1.076-13.14 16.26 15.61 52.19 18.368 74.803-11.64 7.55-10.02 16.495-15.92 25.052-19.348-13.76-3.29-29.178-3.664-37.735-1.097-1.006-13.642-1.82-17.338-4.41-23.13-1.15-2.567-1.373-4.12 4.554-5.74 3.717-1 18.914-4.557 31.964-10.51 9.3-4.24 15.648-8.924 17.373-10.638 1.29-1.27 6.29-6.743 4.42-11.087m-129-3.78c2.92-10.81 11.428-4.293 11.428-4.293l-11.427 4.292zm40.7 10.84c.027-.725.08-1.598.262-2.11l1.196-.883.096-.053.022.127c.074.31.224.596.468.81l.373.298 1.044.884c.43.414.68.712.75.936l.128.447.043.192c.182 1.044-.324 2.045-1.277 2.566-.447.257-.96.246-1.283.13-.244-.096-.554-.362-.676-.724-.18-.554.085-1.63 1.57-2.194 0 0 .07-.032.144-.053-.063-.054-.122-.086-.122-.086-.458-.32-1.29-1-1.608-1.512l-.08-.138c-.026.075-.048.15-.048.15-.07.223-.128.5-.176.872l-.08 1.288-.027.352-.07 1.214-.196 1.32c-.356 1.598-.995 2.557-1.942 2.95l-.122.065.244-1.33h.027c.76-.49 1-1.567 1.15-3.143l.19-2.378zm-1.72-3.94c.193-.405.315-.575.48-.64.038-.02.096-.052.155-.052-.15.554-.15.618-.186.97.336-.044.517.03.586.223.13.277.027.82-.196 1.17-.096.17-.197.246-.352.32-.414.17-.638.18-.702.022-.178-.405-.072-1.385.216-2.013m-14.924-1.513c-.554-1.533-.267-3.29.617-4.568.843-1.225 2.158-1.906 3.706-1.98 2.657-.14 5.134 2.406 7.04 7.422.42-.447.846-1.033 1.096-1.64l1.023.373c-.41.915-1.065 1.873-1.704 2.384 1.253 3.43 1.53 8.732-.12 12.173-.773 1.576-1.896 2.64-3.355 3.14-1.17.395-2.673.31-3.86-.383-2.034-1.17-3.653-3.45-4.69-6.603-1.014-3.045-1.13-6.953.25-10.318m18.927 71.55c-3.546 1.172-7.72-1.234-10.77-5.665 1.815 1.395 3.854 1.853 5.41.97 2.464-1.364 2.8-5.496.73-9.212-2.062-3.727-5.74-5.644-8.2-4.27-.906.49-1.53 1.373-1.837 2.46-.97-6.528.99-12.215 5.096-13.556 4.942-1.62 11.086 3.62 13.733 11.723 2.638 8.082.785 15.94-4.16 17.55m19.587-8.01c-3.344.884-7.044-1.3-9.797-5.28 1.384.904 2.88 1.17 4.11.574 2.342-1.118 2.865-4.91 1.15-8.455-1.71-3.535-4.984-5.505-7.327-4.365-.84.405-1.437 1.13-1.795 2.076-.973-7.028 1.327-13.152 5.74-14.323 5.017-1.352 10.857 4.25 13.05 12.47 2.18 8.22-.104 15.962-5.13 17.304M86.814 59.532c-11.682-1.576-19.264-1.49-11.746-6.453 0 0 17.475-13.61 37.234-15.868 18.326-2.29 47.424-8.742 47.424-8.742S145.393 37.17 131.31 47C115.9 56.2 104.65 59.926 86.813 59.53m54.943-12.907s28.576-19.934 29.625-18.507c2.57 3.525-11.863 12.48-29.625 18.507"/><path d="M48.233 22.474l11.416-4.292s-8.504-6.516-11.417 4.292M112.302 37.212c-19.76 2.258-37.234 15.846-37.234 15.846-7.518 4.994.064 4.887 11.746 6.485 17.842.384 29.082-3.323 44.49-12.544 14.09-9.83 28.422-18.53 28.422-18.53s-29.098 6.453-47.424 8.742M141.757 46.625c17.762-6.027 32.196-14.983 29.625-18.507-1.05-1.427-29.625 18.507-29.625 18.507" fill="#DF4601"/><path d="M28.794 73.44l1.544 3.087.687 1.352.032-.01 22.016-11.62c-12.41 5.826-24.28 7.19-24.28 7.19M81.64 70.14c-4.1 1.34-6.07 7.027-5.097 13.554.32-1.086.93-1.97 1.836-2.46 2.46-1.373 6.138.544 8.2 4.27 2.075 3.728 1.73 7.85-.736 9.212-1.55.883-3.59.425-5.404-.97 3.05 4.44 7.22 6.827 10.782 5.666 4.935-1.607 6.788-9.466 4.148-17.548-2.646-8.105-8.79-13.345-13.73-11.725M102.883 61.63c-4.414 1.17-6.714 7.295-5.735 14.323.358-.948.953-1.683 1.79-2.076 2.34-1.13 5.616.83 7.326 4.365 1.714 3.546 1.192 7.338-1.15 8.455-1.23.596-2.726.33-4.11-.575 2.752 3.982 6.452 6.156 9.797 5.282 5.027-1.342 7.31-9.083 5.134-17.304-2.195-8.22-8.035-13.81-13.05-12.47" fill="#FFF"/><path d="M76.72 44.784c1.192.692 2.693.778 3.865.383 1.46-.49 2.582-1.565 3.36-3.15 1.645-3.43 1.37-8.733.117-12.163.644-.52 1.305-1.47 1.704-2.385l-1.023-.374c-.25.607-.682 1.193-1.096 1.64-1.906-5.037-4.382-7.56-7.04-7.423-1.544.075-2.864.768-3.705 1.98-.89 1.28-1.17 3.036-.617 4.57-1.38 3.364-1.252 7.272-.25 10.33 1.042 3.14 2.656 5.42 4.684 6.59m-1.715-20.307c.415-.628 1.06-.97 1.842-.97 1.89-.01 3.552 3.59 4.44 6.624-1.336.66-2.444.64-3.54.192-1.257-.48-2.35-1.502-2.844-2.673-.474-1.118-.436-2.343.102-3.174m-.4 6.762c2.31 1.448 4.46 1.427 7 0 .523 1.64.885 4.025.907 5.836.01 1.47-.144 3.47-.927 4.675-.484.744-.91 1.02-1.677 1.18-2.497.48-4.51-3.237-5.293-5.942-.52-1.82-.548-3.908-.01-5.75" fill-rule="evenodd" clip-rule="evenodd" fill="#DF4601"/><path d="M87.692 31.366c.155-.085.256-.15.352-.32.224-.36.325-.893.196-1.17-.07-.192-.25-.266-.586-.224.037-.35.037-.415.186-.97-.06 0-.117.034-.154.054-.166.053-.288.234-.48.64-.288.627-.394 1.596-.218 2.012.066.16.29.148.704-.022M87.586 38.82l-.027.022-.245 1.32.122-.063c.953-.395 1.587-1.353 1.943-2.95l.192-1.332.074-1.203.027-.352.09-1.288c.038-.373.097-.65.166-.873 0 0 .02-.074.047-.138.037.053.08.128.08.128.32.51 1.156 1.193 1.608 1.502 0 0 .06.043.122.096-.074.022-.143.053-.143.053-1.486.564-1.752 1.63-1.57 2.194.12.362.44.617.675.724.324.118.835.14 1.282-.128.953-.52 1.46-1.522 1.278-2.566l-.043-.192-.128-.447c-.07-.224-.32-.52-.752-.937l-1.044-.884-.373-.298c-.243-.214-.393-.5-.457-.81l-.032-.128-.095.064-1.208.873c-.166.51-.224 1.384-.25 2.108l-.192 2.375c-.148 1.575-.388 2.65-1.15 3.13m4.52-4.568c.05.052.082.128.102.19.186.438.133.81.037 1.045-.117.288-.298.48-.617.607-.303.118-.613.064-.825-.16-.207-.233-.245-.564-.1-.862.185-.384.617-.682 1.314-.895.032.022.09.075.09.075" fill="#DF4601"/></svg>