<svg xmlns="http://www.w3.org/2000/svg" viewBox="0 0 129.987 180.091"><title>Boston Red Sox hat dark logo</title><path d="M116.173 106.124c-2.08-7.394-4.4-12.49-8.324-16.074 3.922-3.562 6.245-8.667 8.323-16.073 2.565-9.12 3.85-15.815 13.814-20.29-14.946-6.876-16.372-15.25-20.51-26.31C104.915 15.195 90.102 0 68.675 0 59.68 0 51.36 2.74 44.598 7.37 39.858 2.887 33.512.125 26.528.125 11.875.124 0 12.207 0 27.087c0 5.488 1.6 10.595 4.356 14.845C5.97 35.26 11.058 30.142 16.44 30.22c5.62.08 10.303 5.456 10.31 12.162l-.013 27.098c0 9.92-10.14 17.81-23.27 20.57 13.13 2.775 23.27 10.665 23.27 20.573l.012 27.11c-.007 6.695-4.69 12.07-10.31 12.16-5.382.08-10.47-5.05-12.084-11.71C1.6 142.43 0 147.537 0 153.003c0 14.902 11.875 26.974 26.528 26.974 6.983 0 13.33-2.74 18.07-7.247 6.763 4.633 15.08 7.36 24.076 7.36 21.427 0 36.24-15.16 40.805-27.38 4.136-11.022 5.56-19.41 20.508-26.296-9.965-4.452-11.25-11.148-13.815-20.29m-34.295 29.51c0 6.01-5.715 11.014-12.76 11.014-4.76 0-8.77-1.76-11.102-4.645v-32.385c2.333-2.896 6.34-4.53 11.103-4.53 7.043 0 12.758 4.87 12.758 10.888 0 3.945-3.41 7.474-7.338 9.83 3.93 2.355 7.338 5.894 7.338 9.828m0-71.632c0 6.02-5.715 10.89-12.76 10.89-4.76 0-8.77-1.635-11.102-4.52V37.985c2.333-2.897 6.34-4.508 11.103-4.508 7.043 0 12.758 4.858 12.758 10.866 0 3.945-3.41 7.484-7.338 9.828 3.93 2.367 7.338 5.896 7.338 9.83" fill="#FFF"/><path d="M68.697 25.136c-8.223 0-15.364 4.08-18.983 10.066v37.94C53.334 79.13 60.474 83.2 68.697 83.2c11.87 0 21.484-8.5 21.484-18.96 0-3.697-1.194-7.146-3.274-10.066 2.08-2.92 3.275-6.38 3.275-10.077 0-10.47-9.614-18.96-21.483-18.96M84.855 64.24c0 7.496-7.25 13.617-16.158 13.617-5.732 0-10.782-2.514-13.65-6.324V36.803c2.868-3.8 7.918-6.323 13.65-6.323 8.91 0 16.158 6.097 16.158 13.616 0 3.99-2.035 7.574-5.282 10.077 3.247 2.468 5.282 6.075 5.282 10.065" fill="#0D2B56"/><path d="M114.28 110.453c-1.63-4.802-2.193-14.033-11.402-20.413 9.208-6.37 9.773-15.6 11.402-20.39 2.665-7.78 4.424-12.558 10.082-15.928-20.16-11.677-10.426-22.285-27.148-39.012C82.77.27 60.068-.88 44.332 11.283c-4.35-4.892-10.674-7.957-17.72-7.957-13.097 0-23.715 10.618-23.715 23.715 0 2.83.485 5.547 1.404 8.073 2.266-4.69 6.758-7.89 11.937-7.89 7.44 0 13.476 6.616 13.476 14.743V68.95c0 2.83-.946 15.398-17.116 21.09 16.17 5.715 17.116 18.272 17.116 21.1v26.974c0 8.15-6.036 14.733-13.476 14.733-5.18 0-9.67-3.168-11.936-7.868-.918 2.524-1.403 5.252-1.403 8.07 0 13.097 10.618 23.715 23.716 23.715 7.044 0 13.368-3.077 17.72-7.957 15.735 12.15 38.436 11 52.882-3.438 16.722-16.704 6.988-27.323 27.148-39.012-5.658-3.348-7.418-8.128-10.083-15.905m-10.45 33.613c-1.893 5.58-3.696 10.854-10.386 17.54-13.577 13.582-36.098 13.13-49.687-.45-2.913 6.333-9.738 10.28-17.144 10.28-8.985 0-16.486-6.482-18.07-15.015 2.334 1.15 4.954 1.772 7.693 1.772 10.365 0 18.807-9.007 18.807-20.076v-26.973c0-4.678-1.797-14.203-11.03-21.1 9.233-6.91 11.03-16.413 11.03-21.09V41.964c0-11.046-8.442-20.053-18.807-20.053-2.74 0-5.36.63-7.693 1.736 1.584-8.51 9.085-14.99 18.07-14.99 7.406 0 14.23 3.944 17.144 10.267 13.59-13.572 36.11-14.022 49.687-.44 6.69 6.684 8.493 11.95 10.387 17.54 2.052 5.996 4.16 12.174 11.86 18.26-3.117 3.867-4.695 8.51-6.447 13.64-.384 1.104-.676 2.32-1.01 3.573-.935 3.697-4.632 13.437-12.612 18.543 7.98 5.13 11.678 14.846 12.613 18.543.334 1.274.626 2.47 1.01 3.574 1.752 5.14 3.33 9.795 6.446 13.65-7.7 6.096-9.808 12.262-11.86 18.26" fill="#0D2B56"/><path d="M68.697 96.893c-8.223 0-15.364 4.08-18.983 10.043V144.9c3.62 5.985 10.76 10.055 18.983 10.055 11.87 0 21.484-8.5 21.484-18.96 0-3.697-1.194-7.146-3.274-10.066 2.08-2.943 3.275-6.38 3.275-10.078 0-10.47-9.614-18.96-21.483-18.96m16.158 39.103c0 7.507-7.25 13.617-16.158 13.617-5.732 0-10.782-2.525-13.65-6.324v-34.73c2.868-3.808 7.918-6.322 13.65-6.322 8.91 0 16.158 6.098 16.158 13.617 0 3.99-2.035 7.574-5.282 10.077 3.247 2.48 5.282 6.086 5.282 10.065M97.727 170.002h.857v2.356h.547v-2.356h.863v-.462h-2.266M102.13 171.547l-.768-2.007h-.794v2.818h.507v-2.187h.017l.834 2.188h.39l.833-2.187h.016v2.188h.5v-2.818h-.776" fill="#0D2B56"/><path d="M108.238 108.582c-.94-3.697-4.643-13.425-12.618-18.542 7.975-5.118 11.677-14.846 12.618-18.543.322-1.25.62-2.457 1.004-3.574 1.746-5.128 3.342-9.772 6.442-13.64-7.693-6.097-9.802-12.263-11.853-18.26-1.893-5.59-3.696-10.865-10.38-17.54-13.583-13.58-36.11-13.13-49.687.442-2.92-6.323-9.744-10.268-17.15-10.268-8.98 0-16.486 6.48-18.07 14.99 2.334-1.104 4.954-1.747 7.693-1.747 10.365 0 18.8 9.007 18.8 20.064V68.95c0 4.69-1.79 14.19-11.022 21.09 9.232 6.91 11.023 16.423 11.023 21.1v26.974c0 11.07-8.436 20.076-18.8 20.076-2.74 0-5.36-.62-7.694-1.77 1.584 8.532 9.09 15.013 18.07 15.013 7.406 0 14.23-3.945 17.15-10.28 13.577 13.594 36.104 14.033 49.687.45 6.684-6.684 8.487-11.96 10.38-17.54 2.052-5.995 4.16-12.16 11.854-18.26-3.1-3.854-4.695-8.51-6.442-13.65-.384-1.102-.682-2.297-1.004-3.57M90.18 135.994c0 10.46-9.62 18.96-21.483 18.96-8.223 0-15.364-4.07-18.983-10.055v-37.964c3.62-5.963 10.76-10.043 18.983-10.043 11.863 0 21.484 8.488 21.484 18.96 0 3.697-1.194 7.134-3.274 10.077 2.08 2.908 3.275 6.368 3.275 10.065m0-71.757c0 10.46-9.62 18.96-21.483 18.96-8.223 0-15.364-4.07-18.983-10.055v-37.94c3.62-5.987 10.76-10.067 18.983-10.067 11.863 0 21.484 8.488 21.484 18.96 0 3.697-1.194 7.157-3.274 10.077 2.08 2.92 3.275 6.368 3.275 10.065" fill="#BD3039"/></svg>