<svg xmlns="http://www.w3.org/2000/svg" viewBox="0 0 125.594 180.091"><title>Boston Red Sox hat light logo</title><path fill="#FFF" d="M96.8 174.57h1.745v4.825h1.114v-4.825h1.744v-.916H96.8M105.75 177.714l-1.562-4.048h-1.606v5.73h1.032v-4.466h.023l1.71 4.465h.772l1.715-4.465h.03v4.465h1.038v-5.73h-1.6M115.166 111.126c-1.682-4.94-2.26-14.486-11.79-21.074 9.53-6.588 10.108-16.144 11.79-21.097 2.75-8.038 4.576-12.99 10.428-16.46-20.843-12.073-10.782-23.057-28.068-40.34C82.593-2.77 59.13-3.952 42.85 8.62 38.355 3.55 31.802.374 24.524.374 10.978.374 0 11.368 0 24.892c0 2.935.51 5.753 1.455 8.362 2.343-4.848 6.988-8.165 12.34-8.165 7.702 0 13.93 6.83 13.93 15.25v27.895c0 2.91-.986 15.914-17.693 21.817 16.707 5.892 17.693 18.895 17.693 21.817v27.894c0 8.397-6.228 15.24-13.93 15.24-5.352 0-9.997-3.295-12.34-8.153C.51 149.45 0 152.28 0 155.19c0 13.546 10.978 24.52 24.524 24.52 7.278 0 13.83-3.18 18.326-8.225 16.278 12.56 39.742 11.366 54.675-3.55 17.287-17.293 7.226-28.264 28.068-40.338-5.85-3.468-7.678-8.42-10.427-16.47m-10.797 34.772c-1.978 5.763-3.835 11.238-10.74 18.127-14.052 14.057-37.33 13.582-51.37-.44-3.022 6.518-10.08 10.612-17.735 10.612-9.284 0-17.05-6.694-18.69-15.497 2.43 1.148 5.137 1.798 7.96 1.798 10.712 0 19.44-9.3 19.44-20.737v-27.895c0-4.86-1.856-14.683-11.402-21.817 9.545-7.143 11.402-16.98 11.402-21.816V40.342c0-11.448-8.728-20.75-19.44-20.75-2.823 0-5.53.65-7.96 1.81 1.64-8.815 9.405-15.52 18.69-15.52 7.654 0 14.712 4.106 17.733 10.624 14.04-14.046 37.318-14.486 51.37-.44 6.906 6.9 8.763 12.364 10.74 18.14 2.11 6.194 4.297 12.56 12.247 18.86-3.2 3.988-4.848 8.814-6.657 14.103-.394 1.17-.708 2.377-1.038 3.7-.97 3.827-4.808 13.882-13.05 19.182 8.242 5.278 12.08 15.357 13.05 19.173.33 1.31.644 2.54 1.038 3.7 1.81 5.29 3.456 10.114 6.657 14.092-7.95 6.31-10.136 12.676-12.246 18.882"/><path d="M68.036 22.933c-8.507 0-15.896 4.21-19.625 10.403v39.24c3.73 6.18 11.12 10.38 19.626 10.38 12.27 0 22.217-8.758 22.217-19.59 0-3.83-1.24-7.4-3.4-10.417 2.16-3.017 3.4-6.577 3.4-10.405 0-10.82-9.946-19.612-22.217-19.612m16.707 40.432c0 7.76-7.498 14.092-16.707 14.092-5.928 0-11.146-2.62-14.122-6.542v-35.92c2.975-3.932 8.194-6.542 14.122-6.542 9.21 0 16.707 6.32 16.707 14.092 0 4.106-2.11 7.807-5.468 10.404 3.358 2.586 5.468 6.297 5.468 10.415M68.036 97.127c-8.507 0-15.896 4.21-19.625 10.404v39.238c3.73 6.182 11.12 10.38 19.626 10.38 12.27 0 22.217-8.78 22.217-19.6 0-3.816-1.24-7.39-3.4-10.404 2.16-3.027 3.4-6.576 3.4-10.404 0-10.844-9.946-19.613-22.217-19.613m16.707 40.422c0 7.77-7.498 14.09-16.707 14.09-5.928 0-11.146-2.608-14.122-6.553V109.18c2.975-3.922 8.194-6.53 14.122-6.53 9.21 0 16.707 6.32 16.707 14.09 0 4.107-2.11 7.818-5.468 10.405 3.358 2.562 5.468 6.298 5.468 10.404" fill="#FFF"/><path d="M108.92 109.237c-.968-3.828-4.807-13.907-13.048-19.195 8.24-5.29 12.08-15.345 13.05-19.173.33-1.312.643-2.53 1.037-3.7 1.796-5.29 3.455-10.115 6.65-14.105-7.944-6.298-10.13-12.665-12.24-18.86-1.978-5.787-3.84-11.238-10.74-18.15-14.042-14.035-37.33-13.57-51.37.45C39.236 9.99 32.18 5.883 24.523 5.883c-9.284 0-17.05 6.704-18.69 15.508 2.43-1.148 5.137-1.798 7.96-1.798 10.712 0 19.44 9.302 19.44 20.75v27.882c0 4.848-1.856 14.673-11.402 21.818 9.545 7.144 11.402 16.968 11.402 21.827v27.894c0 11.436-8.728 20.75-19.44 20.75-2.823 0-5.53-.66-7.96-1.81 1.64 8.803 9.405 15.496 18.69 15.496 7.655 0 14.713-4.094 17.734-10.613 14.04 14.023 37.33 14.487 51.37.44 6.9-6.9 8.763-12.363 10.74-18.127 2.11-6.206 4.297-12.573 12.24-18.883-3.194-3.978-4.853-8.803-6.65-14.092-.393-1.16-.707-2.39-1.037-3.688M90.254 137.55c0 10.82-9.946 19.6-22.217 19.6-8.507 0-15.896-4.2-19.625-10.393V107.53c3.73-6.18 11.12-10.403 19.626-10.403 12.27 0 22.217 8.77 22.217 19.613 0 3.828-1.24 7.377-3.4 10.404 2.16 3.028 3.4 6.588 3.4 10.405m0-74.185c0 10.833-9.946 19.59-22.217 19.59-8.507 0-15.896-4.198-19.625-10.38v-39.24c3.73-6.193 11.12-10.403 19.626-10.403 12.27 0 22.217 8.79 22.217 19.612 0 3.828-1.24 7.39-3.4 10.404 2.16 3.016 3.4 6.59 3.4 10.417" fill="#BD3039"/></svg>