<svg xmlns="http://www.w3.org/2000/svg" viewBox="0 0 179.561 245.824"><title>Philadelphia Phillies hat light logo</title><path d="M119.196 232.623h-3.46v9.425h-2.346v-9.425h-3.453v-2.036h9.26v2.036zm15.683 9.425h-2.34v-9.123h-.06l-3.316 9.123h-2.254l-3.212-9.123h-.068v9.123h-2.33v-11.46h4.05l2.67 7.48h.06l2.78-7.48h4.02v11.46zM144.137 9.14C106.453-8.17 51.344-.117 23.787 26.754 6.202 44.005-2.46 64.543.606 81.69c1.704 9.485 6.87 16.587 14.56 20.025 9.064 4.072 17.086 4.268 23.812.648 13.653-7.36 17.107-27.672 17.24-28.53l.228-1.374-1.402.014c-3.348.09-7.517-.604-8.294-4.313-.09-.467-.144-.935-.144-1.432 0-6.604 8.24-17.1 19.43-22.423V189.93c-12.04 12.803-18.677 25.907-18.677 36.538 0 2.443.356 4.735 1.057 6.86 2.11 6.425 7.48 10.708 15.125 12.035 10.224 1.78 22.023-1.704 30.785-9.078 8.414-7.087 13.037-16.618 13.037-26.857v-73.303c36.575-13.285 69.457-28.893 72.066-71.493.09-1.373.128-2.715.128-4.057.003-22.707-12.446-40.863-35.42-51.434zm-30.46 89.56s-3.56.648-5.317.98V36.993c1.388-.105 4.192-.286 4.192-.286 19.582-1.313 30.612 7.344 32.753 25.802.136 1.205.204 2.41.204 3.603 0 16.286-12.132 28.892-31.833 32.587z" fill="#FFF"/></svg>