<svg xmlns="http://www.w3.org/2000/svg" viewBox="0 0 191.473 245.824"><title>Philadelphia Phillies hat dark logo</title><path d="M123.942 227.376h-3.36v9.16H118.3v-9.16h-3.355v-1.996h8.997v1.996zm15.28 9.16h-2.282v-8.883h-.05l-3.24 8.882h-2.2l-3.125-8.882h-.06v8.882h-2.267V225.38h3.94l2.598 7.294h.06l2.7-7.294h3.926v11.155z" fill="#E81828"/><path d="M185.584 57.725c-1.607-24.366-22.266-42.86-41.604-50.097-6.24-1.967-12.668-3.994-18.907-5.315-20.548-4.448-43.043-2.01-61.566 3.29C38.082 12.81 13.533 32.712 3.37 58.65c-4.03 10.627-4.998 24.967.176 36.474 6.202 13.3 19.984 18.23 31.88 18.23 13.175 0 21.974-9.746 26.987-18.567v52.43l-.28 35.536c-2.047 2.57-4.506 5.183-6.51 7.927-4.586 7.06-10.787 16.703-11.184 28.373 0 3.45.197 9.38 3.324 14.31 4.242 7.605 12.418 10.864 18.45 11.994 7.604 1.202 15.17-.045 21.453-2.26 13.96-5.286 26.436-18.525 28.798-34.392l.102-.558.295-67.61c5.247-2.07 10.553-4.138 15.785-6.443 6.68-2.98 13.44-6.355 19.86-10.583 23.06-13.575 35.852-38.528 33.077-65.785zm-46.662 17.13c-1.446 7.25-8.997 14.355-17.554 17.275-1.41.514-2.877.896-4.448 1.234l.242-45.033c8.836-.146 15.662 2.48 18.928 7.692l2.003 4.77c.52 2.452 1.027 4.948 1.232 7.458.236 2.48.088 4.8-.403 6.604z" fill-rule="evenodd" clip-rule="evenodd" fill="#FFF"/><path d="M179.772 58.15c-1.33-21.694-20.453-38.545-37.65-44.988l-.11-.044c-5.277-1.673-11.853-3.788-18.172-5.107-23.55-5.108-46.92-.19-58.75 3.186-25.193 7.148-47.3 26.596-56.305 49.552-3.984 10.48-3.962 23 .05 31.955 4.346 9.292 14.283 14.855 26.59 14.855 9.93 0 19.046-7.69 24.388-20.593.08-.19.61-1.894.61-1.894.866-2.73 1.754-5.533 1.754-8.718v-2.187h-2.18c-1.424 0-3.008-.558-4.52-1.085l-1.08-.368c-.483-.367-1.04-1.54-1.04-2.333 1.143-6.635 6.61-13.226 14.875-18.144v95.057s-.308 35.932-.316 37.385c-.61.792-3.442 4.285-3.442 4.285l-4.015 4.99c-4.426 6.753-9.835 15.076-10.202 25.173v.015c0 3.54.3 7.898 2.56 11.332 2.4 4.493 7.656 7.882 14.357 9.16 5.863.91 12.22.22 18.472-1.996 13.078-4.947 23.133-16.91 25.07-29.783.037-.308.302-64.89.33-70.983.11-.19.132-.206.25-.425.705-.265 1.71-.66 1.71-.66 12.314-4.772 25.033-9.732 36.476-17.247 19.265-11.273 30.647-31.397 30.647-53.576 0-2.277-.124-4.536-.358-6.81zM144.61 76.118c-2.107 10.553-12.206 18.378-21.313 21.504-3.846 1.38-8.088 1.997-12.25 2.57.038-4.653.323-57.32.323-57.362.404 0 3.633-.236 3.633-.236 7.23-.425 20.25.455 26.318 10.863.162.367 2.437 5.784 2.437 5.784.682 3.403 1.52 7.337 1.52 11.257 0 1.906-.19 3.784-.668 5.62z" fill-rule="evenodd" clip-rule="evenodd" fill="#E81828"/></svg>