<svg xmlns="http://www.w3.org/2000/svg" viewBox="0 0 188.121 196"><title>New York Yankees hat dark logo</title><g fill="#132448"><path d="M175.387 166.952C172.625 170.27 156.3 186.337 142.2 196c-2.345-33.7-18.552-55.387-45.1-73.878v.012c-.83 17.99-.92 33.772-.28 44.818.554 9.555 5.128 15.365 12.585 21.45-9.68 2.206-38.043 1.79-47.712-1.24 1.11-.824 13.07-7.456 14.107-29.05.728-15.52.823-26.984.275-45.928l-1.128-4.855c-12.925-9.52-24.2-19.315-38.716-34.99 13.284 35.143-3.596 78.84-5.523 94.887-.656 5.392-2.36 16.33-1.807 27.533-4.14-2.493-20.89-13.42-28.9-23.93 23.376-39.976 40.245-79.247 3.59-114.94 6.926-10.38 17.156-19.648 25.31-23.656 8.595 24.754 27.395 44.4 40.96 52.966-10.386-38.46-23.68-51.034-32.097-55.33C43.28 16.917 61.55 3.448 71.237 0c-4.432 14.375-4.808 23.788-.424 39.14C75.24 54.637 82.163 73.45 89.9 87.562c4.158-7.194 18.824-37.626 22.685-50.903 3.888-13.278 3.888-25.17 2.218-33.762 8.44 4.283 26.56 21.307 30.713 29.61-8.853 1.92-13.004 6.466-18.26 15.472-5.403 9.28-19.092 44.282-26.696 59.35 8.028 6.93 21.992 15.638 33.05 28.927-12.167-47.872.28-84.257 16.332-95.16 7.467 2.195 17.004 8.28 23.935 15.485-26.018 10.927-24.34 44.127-24.485 46.596-1.186 19.04 6.496 52.87 20.907 61.114 3.13 1.8 3.447 1.92 5.087 2.66C172.625 170.27 156.3 186.337 142.2 196"/><path d="M175.762 148.796h-2.725v7.42h-1.85v-7.42h-2.718v-1.622h7.293v1.622zm12.36 7.42h-1.837v-7.182h-.048l-2.62 7.182h-1.783l-2.53-7.182h-.053v7.182h-1.83v-9.042h3.19l2.1 5.905h.05l2.182-5.906h3.18v9.042z"/></g></svg>