<svg xmlns="http://www.w3.org/2000/svg" viewBox="0 0 188.129 196"><title>New York Yankees hat light logo</title><g fill="#FFF"><path d="M175.39 166.967c-2.76 3.307-19.083 19.36-33.193 29.033-2.337-33.71-18.557-55.413-45.09-73.884l-.007.037c-.828 17.965-.92 33.746-.278 44.814.555 9.538 5.127 15.337 12.592 21.432-9.692 2.22-38.046 1.8-47.72-1.247 1.103-.827 13.08-7.453 14.108-29.058.728-15.485.82-26.96.278-45.912l-1.13-4.862c-12.93-9.524-24.196-19.284-38.718-34.98 13.283 35.142-3.59 78.845-5.52 94.898-.662 5.392-2.364 16.312-1.822 27.515C24.752 192.26 8.014 181.343 0 170.83c23.376-39.966 40.256-79.265 3.59-114.96 6.93-10.365 17.158-19.632 25.3-23.642C37.48 56.98 56.297 76.623 69.857 85.21c-10.384-38.46-23.672-51.044-32.1-55.34C43.285 16.904 61.553 3.468 71.24 0c-4.436 14.386-4.806 23.8-.426 39.15 4.436 15.485 11.346 34.3 19.094 48.405 4.153-7.194 18.817-37.608 22.685-50.91 3.882-13.264 3.882-25.17 2.216-33.734 8.434 4.27 26.56 21.286 30.705 29.577-8.846 1.95-13.004 6.478-18.248 15.51-5.4 9.267-19.094 44.272-26.7 59.35 8.02 6.91 22 15.62 33.06 28.897-12.17-47.874.28-84.225 16.325-95.17 7.465 2.21 17.015 8.317 23.924 15.486-26.003 10.932-24.33 44.148-24.48 46.628-1.177 19.026 6.498 52.86 20.916 61.114 3.12 1.79 3.442 1.9 5.083 2.665-2.76 3.307-19.083 19.36-33.193 29.033"/><path d="M175.77 148.792h-2.726v7.416h-1.85v-7.416h-2.728v-1.616h7.304v1.616zm12.36 7.416h-1.84v-7.193h-.048l-2.623 7.193h-1.784l-2.53-7.193h-.042v7.193h-1.845v-9.032h3.194l2.1 5.898h.048l2.183-5.898h3.184v9.032z"/></g></svg>