<svg xmlns="http://www.w3.org/2000/svg" viewBox="0 0 191.453 245.674"><title>Detroit Tigers light logo</title><g fill="#FFF"><path d="M157.836 164.452V66.587c.583-8.34 2.687-11.033 8.74-16.695-13.52-5.083-29.043-20.885-37.38-37.602C87.402 33.767 40.86 33.767 5.675 2.748 2.167-.328-1.8-1.902.884 3.95 10.836 25.54 31.48 38.97 54.67 44.933c-13.347 11.564-21.213 18.4-22.97 33.05-11.404.84-23.65 9.203-27.518 16.947-4.42 8.84 2.124 9.02 6.554 5.973 5.662-3.866 13.73-5.36 20.585-5.07v11.084c-11.424.85-22.668 9.21-26.537 16.956-4.42 8.84 2.126 9.033 6.555 5.963 5.66-3.86 13.128-5.963 19.983-5.66v33.41c0 13.14-6.55 19.704-10.422 23.293-3.9 3.566-1.744 7.302 3.87 5.058 11.803-4.7 24.072-15.913 26.855-32.953 4.493.592 9.903.662 13.712.032v4.57c0 13.138-6.554 19.703-10.444 23.292-.06.047-.1.097-.147.177-12.54 1.092-23.784 5.32-32.722 12.267C1.638 209.21-1.51 239.044 1.638 245.67c.198.42 11.484-36.89 44.956-40.858 19.384-2.284 43.196 3.534 63.503 21.114 12.525-20.885 33.723-32.82 58.486-37.04-8.358-9.53-10.466-13.7-10.746-24.434zm-26.87-109.8v29.324c-13.378 4.028-32.698 3.9-44.747-.43v-3.82c0-10.36.884-23.53 9.42-31.82 8.16-.9 16.078-2.583 23.393-5.17l11.934 11.917zM86.22 93.7c12.047 4.3 31.368 4.46 44.747.42v28.503c-13.38-4.038-32.7-3.898-44.748.43V93.7zm-.802-45.15c-6.273 5.484-11.665 10.584-15.27 16.486-4.77-1.552-9.16-2.505-13.43-2.746 2.773-5.532 6.713-10.712 11.466-14.7 5.72.73 11.503 1.042 17.234.96zm-33.2 95.98V79.727c0-2.853.45-5.873 1.27-8.928 4.723-.532 9.42-.042 13.45 1.374-.96 3.047-1.543 6.302-1.52 9.98l-.082 61.997c-3.347.722-8.51.82-13.12.38zm51.303 46.785C90.56 184.928 77.803 181.6 65.88 180.9c10.702-7.187 20.34-19.876 20.34-36.723v-10.973c12.05-4.34 31.37-4.49 44.75-.442v42.425c-8.348 2.405-18.49 8.378-27.447 16.126zM161.768 207.474h4.258v11.32h3.328v-11.32h4.277v-2.67H161.77M186.542 204.804l-3.146 8.244-3.148-8.244h-4.933v13.99h3.068v-11.32l4.11 11.32h1.784l4.148-11.32v11.32h3.028v-13.99"/></g></svg>