<svg xmlns="http://www.w3.org/2000/svg" viewBox="0 0 61.7 51.1"><title>Oakland Athletics cap logo</title><path fill="none" d="M28.5 26.6L26 18.9l-2.6 7.7z"/><path fill="none" d="M30 27.7l-4-12.1-4.1 12.1H30zm-1.5-1.1h-5.2l2.6-7.7 2.6 7.7z"/><path fill="none" d="M49.6 35.6c-.4 0-.8.1-1 .4-3.1 3.4-4.7 3.9-5.4 3.9-.6 0-1.3-.3-2.1-2.6l-10-30.2c-1.2-3.5-3.3-5.8-6.3-6.8-.9-.2-1.7-.3-2.6-.3-4.7 0-8.4 3.5-9.7 9.3-.1.5.1 1 .6 1.2.5.2 1 .1 1.3-.4.9-1.3 2.6-2.8 4.3-2.8.5 0 1.1.1 1.6.4 1.7 1 1.8 1.8.9 4.5l-.2.7c-1-.6-2.2-1-3.5-1-2.7 0-6 1.8-6.6 6.9 0 .4.2.9.6 1.1.4.2.9.1 1.2-.2.3-.3 1.2-.6 2.3-.6 1.1 0 2.1.4 2.5 1 .6.8.3 2 0 2.9l-5.8 16.9c-6 .3-10.4 3.9-11.8 9.6-.1.5.1 1 .6 1.2.5.2 1 0 1.3-.4.6-1 4.4-3 9.1-3 3.7 0 7.2 1.1 10.3 3.4.5.3 1.1.2 1.4-.2l5.9-7.2c.3-.4.3-1-.1-1.4-.5-.5-1.7-.7-2.6-.7-.9 0-2.6.2-4.2 1.4-1-.7-2.1-1.3-3.3-1.7l2.5-7.4h9.9l3.8 11.3c1.3 3.8 3.6 6.3 6 6.3.9 0 2.3-.4 3.4-2.1 0 0 6.3-9.5 7.1-10.6.6-.9.4-1.5.2-1.9-.2-.6-1-.9-1.6-.9zm.7 2.2c-.8 1.1-7.1 10.6-7.1 10.6-2.3 3.6-6 .9-7.6-3.9l-4-12H20.2l-3.1 9.1c1.8.5 3.4 1.4 4.7 2.4 2.4-2.3 5.6-1.7 6-1.3L22 49.9c-9.3-6.7-19.5-2.4-20.9-.1C2.6 43.5 7.7 41 12.6 41l6-17.6c2-5.9-4.7-6-6.5-4.4.7-6.7 6.7-7.3 9.5-4.3l.7-2.1c.9-2.8.9-4.3-1.4-5.7-2.7-1.6-5.7.3-7.3 2.6 1.7-7.2 6.5-9.3 11-8.1 2.9.9 4.6 3.3 5.6 6.1l10 30.2c1.1 3.2 3.1 5.8 9.2-.9.1-.2 1.6-.1.9 1z"/><path fill="#003831" d="M49.3 36.7c-6.2 6.7-8.1 4.1-9.2.9l-10-30.2c-.9-2.8-2.6-5.2-5.6-6.1-4.5-1.2-9.3.9-11 8.1 1.6-2.3 4.6-4.3 7.3-2.6 2.3 1.4 2.3 2.9 1.4 5.7l-.7 2.1c-2.8-3-8.8-2.4-9.5 4.3 1.8-1.7 8.5-1.5 6.5 4.4l-6 17.6c-5 0-10 2.6-11.5 8.8 1.4-2.2 11.6-6.6 20.9.1l5.9-7.2c-.4-.4-3.6-1.1-6 1.3-1.3-1.1-2.9-1.9-4.7-2.4l3.1-9.1h11.4l4 12c1.6 4.8 5.2 7.5 7.6 3.9 0 0 6.3-9.5 7.1-10.6.7-1-.8-1.1-1-1zM26 15.6l4 12.1h-8.1L26 15.6z"/><path fill="none" d="M40.3 19.6l3-3.9v-4.8h-5.7v5.8h.8l-1.1 2.9h3zm-1.7-7.7h3.6v3.4l-2.5 3.2h-1l1.1-2.9h-1.2v-3.7z"/><path fill="#003831" d="M38.7 18.5h1.1l2.4-3.2v-3.4h-3.6v3.7h1.2z"/><path fill="none" d="M61.4 24.1c-.9-2.6-3.7-4.4-5.8-4.8-1.2-.2-3.5-.7-3.8-1.4 0 0-.1-.2 0-.6.1-.2.6-.5 1.5-.5 1 0 2.4.4 3.1 1.4l.7 1.1 3.8-3.9-.5-.7c-1.5-2.1-4.2-3.4-7.1-3.4-2.6 0-4.9 1.1-6.2 3-1.5 2.1-1.9 4-1.3 5.8 1 2.7 4.3 4.1 7 4.7 1.6.4 2.5 1 2.6 1.3 0 0 .1.2-.1.5-.5.7-3.7.3-6.3-2.1l-1-.7-3.2 4.3.5.6c1.4 1.7 5.1 4 8.7 4 2.4 0 4.5-1 6-2.9 2-2.2 1.9-4.3 1.4-5.7zm-2.1 5.1c-4.3 5.3-11.3.9-13.1-1.1l2-2.7c2.9 2.7 6.8 3.4 7.9 1.9 1.2-1.8-1.2-2.9-3.1-3.4-4.6-1.2-8.7-3.9-5.1-8.9 2.6-3.7 9-3.2 11.6.5l-2.3 2.3c-1.5-2.3-5.8-2.4-6.4-.6-.7 2.1 1.7 2.7 4.6 3.3 2.9.4 7.6 4.3 3.9 8.7z"/><path fill="#003831" d="M55.4 20.3c-2.9-.6-5.3-1.2-4.6-3.3.6-1.8 4.9-1.6 6.4.6l2.3-2.3c-2.6-3.6-9-4.1-11.6-.5-3.6 5 .5 7.7 5.1 8.9 1.9.5 4.3 1.6 3.1 3.4-1 1.6-4.9.8-7.9-1.9l-2 2.7C48 30 55 34.3 59.3 29c3.7-4.2-1-8.1-3.9-8.7zM51.2 47l-.6 1.5-.5-1.5h-.9v2.3h.5v-1.9l.7 1.9h.4l.7-1.9v1.9h.5V47zm-4.3.4h.7v1.9h.5v-1.9h.7V47h-1.9z"/></svg>
