<svg xmlns="http://www.w3.org/2000/svg" viewBox="0 0 252.943 208.122"><title>Oakland Athletics hat light logo</title><g fill="#FFF"><path d="M204.958 151.344c-26.113 28.577-34.58 17.426-39.09 3.894l-42.697-128.19c-3.937-11.85-11.247-21.85-23.66-25.784-18.933-4.903-39.47 4.01-46.462 34.62 6.857-9.795 19.353-18.126 30.874-11.256 9.935 5.912 9.987 12.497 5.99 24.256l-3.015 8.888C74.957 45.21 49.62 47.746 46.682 76.065c7.84-7.102 36.192-6.456 27.717 18.474l-.027.064-25.394 74.788c-21.192.22-42.46 10.917-48.98 37.464 5.93-9.43 49.36-28.047 88.74.543l24.813-30.467c-1.714-1.708-15.26-4.49-25.422 5.46-5.355-4.542-12.257-8.073-19.837-10.3l13.086-38.59h48.304l17.02 51.114c6.76 20.26 22.296 31.76 32.076 16.456 0 0 26.92-40.363 30.116-45.046 3.202-4.683-3.195-5.42-3.938-4.683M88.35 113.012l17.42-51.28 17.09 51.28H88.35zM204.375 198.046l-2.264 6.12h-.05l-2.173-6.12h-3.307v9.366h1.916v-7.452h.025l2.628 7.452h1.856l2.71-7.452h.04v7.452h1.908v-9.366M187.31 199.715h2.822v7.697h1.91v-7.697h2.826v-1.682h-7.557M159.925 74.15h4.392l10.395-13.558V46.09h-15.395v15.706h5.14M230.573 81.705c-12.368-2.458-22.685-4.955-19.568-13.972 2.632-7.593 20.964-6.857 27.29 2.69l9.607-9.805c-11.145-15.42-38.357-17.452-49.374-1.94C183.38 79.983 200.63 91.51 220.21 96.4c7.976 2.006 18.242 6.6 13.157 14.44-4.3 6.623-20.874 3.505-33.377-7.84l-8.474 11.513c7.595 8.823 37.25 27.31 55.803 4.812 15.4-18.68-4.4-35.175-16.747-37.62"/></g></svg>