<svg xmlns="http://www.w3.org/2000/svg" viewBox="0 0 233.411 222"><title>Houston Astros hat light logo</title><path fill="#EB6E1F" d="M66.264 90.503l-15.897-5.695H0l66.264 48.148M108.017 64.633v20.174l-15.91 5.696v24.425h49.178V90.503l-15.91-5.695V64.633H137.7L116.696 0l-20.99 64.633M183.03 84.808l-15.896 5.695v42.453l66.277-48.148M66.264 165.223l-3.67 1.33 3.67-1.33zM146.257 191.065L188.832 222l-10.06-30.935M54.617 191.065L44.572 222l42.57-30.935M125.374 170.932l15.91-5.71V140.77H92.107v24.453l15.91 5.71v4.98l8.68-6.327 8.678 6.326"/><path fill="#F4911E" d="M183.03 84.808l-15.896 5.695v.572h46.96l19.317-6.267M108.017 64.633v20.174l-15.91 5.696v24.425h24.588V0l-20.99 64.633M92.106 140.77v15.44l11.16-15.44M66.264 165.223l-3.67 1.33 3.67-1.33zM54.617 191.065L44.572 222l22.357-30.935M66.264 90.503l-15.897-5.695H0l66.264 48.148"/><path fill="#EB6E1F" d="M66.264 125.188L19.317 91.075 0 84.808l66.264 48.148"/><path fill="#FFF" d="M183.03 84.808V64.633h-57.656v20.175l15.91 5.695v24.425H92.107V90.503l15.91-5.695V64.633h-57.65v20.175l15.898 5.695v74.72l-15.897 5.71v20.132h57.65v-20.133l-15.91-5.71V140.77h49.178v24.453l-15.91 5.71v20.132h57.655v-20.133l-15.896-5.71v-74.72"/><path fill="#E7E9EA" d="M177.9 69.784v11.403l-15.903 5.696v81.946l5.137-3.607V90.518l15.896-5.71V64.633M177.9 185.928h-47.39l-5.136 5.137h57.656v-20.133l-5.13 3.605M92.106 140.77h49.18l5.128-5.124H86.976v33.183l5.13-3.607M102.88 185.928H55.482l-5.115 5.137h57.65v-20.133l-5.137 3.605M71.4 86.883l-15.918-5.696-5.115 3.62 15.897 5.696M146.414 86.883l-15.905-5.696-5.136 3.62 15.91 5.696M92.106 90.503l15.91-5.695v-20.16l-5.136 5.136v11.403l-15.904 5.696v33.195l5.13-5.15"/><path d="M191.86 196.702h-2.22v6.025h-1.495v-6.025h-2.224v-1.316h5.94v1.316zm10.05 6.025h-1.496v-5.824h-.05l-2.117 5.824h-1.445l-2.062-5.824h-.042v5.824h-1.495v-7.34h2.596l1.716 4.792h.028l1.79-4.794h2.575v7.34z" fill="#EB6E1F"/></svg>