<svg xmlns="http://www.w3.org/2000/svg" viewBox="0 0 271.57 191.316"><title>Cincinnati Reds Cap Logo on Light</title><path d="M154.469 38.639c35.103 0 61.596 16.208 70.487 30.266h44.195c-.81-1.611-2.79-6.965-2.79-6.965h-42.206c-8.896-14.058-36.603-30.262-71.707-30.262-59.691 0-83.117 39.665-83.117 58.676 0 11.001 3.213 20.685 8.66 28.922-3.564-6.711-4.406-16.804-4.406-23.337 0-19.001 22.536-57.3 80.884-57.3"/><path d="M150.879 184.489c-61.026 0-85.017-26.185-113.272-56.189C26.014 115.991 18.769 104.878.002 91.038l3.863 8.918c18.046 14.757 25.491 25.424 37.08 37.72 28.259 30.026 51.841 53.639 112.871 53.639 53.421 0 94.786-26.404 114.224-58.881l-2.915-6.836c-19.456 32.488-60.808 58.891-114.246 58.891"/><path d="M152.448 31.677c35.103 0 62.811 16.208 71.707 30.266h42.206C246.793 23.284 196.269 0 145.741 0 96.121 0 58.196 28.624 36.443 54.4 15.335 79.379 5.648 87.39 1.936 89.908.574 90.83 0 91.039 0 91.039c18.771 13.84 26.016 24.952 37.605 37.262 28.259 30.004 52.25 56.189 113.272 56.189 53.439 0 94.79-26.403 114.247-58.895h-41.73c-19.537 14.833-43.448 26.786-73.843 26.786-28.077 0-57.404-11.709-71.556-33.101-5.451-8.242-8.664-17.926-8.664-28.922 0-19.016 23.426-58.681 83.117-58.681M257.765 163.96h-3.057v8.304h-2.056v-8.304h-3.053v-1.802h8.166v1.802zm13.805 8.291h-2.052v-8.033h-.053l-2.928 8.033h-1.994l-2.817-8.033h-.049v8.046h-2.052v-10.106h3.569l2.341 6.609h.053l2.43-6.609h3.551v10.093z" fill="#c6011f"/></svg>