<svg xmlns="http://www.w3.org/2000/svg" viewBox="0 0 194.849 181.866"><title>Atlanta Braves hat light logo</title><path d="M125.593 122.46c-18.316 3.376-28.358 3.186-43.885 7.514-13.323 27.63-27.585 51.613-47.964 51.887-26.907.37-36.75-21.198-32.964-34.075 2.794-9.488 5.308-9.203 5.308-3.912 0 2.865 7.55 19.368 26.526 18.43 9.506-.453 17.294-9.728 25.35-23.722-4.982 2.14-10.457 4.567-16.687 7.54-4.41 2.104-4.745 1.378-3.906-2.248.618-2.664 7.105-18.358 31.847-26.752C87.853 79.786 112.06 28.91 161.642 3.11c2.49-1.297 11.61-7.92 4.762 3.353-22.905 37.666-29.75 70.6-28.654 96.496 18.244-6.623 28.13-16.313 29.772-30.593.654-5.6 2.194-5.683 5.308-2.223 3.645 4.043 11.403 35.515-33.25 49.01 5.553 29.82 21.77 46.525 30.456 45.122 9.007-1.487 15.92-11.165 14.524-24.862-.815-7.966 2.188-4.994 5.017-2.223 8.4 8.085 7.687 34.124-8.923 41.33-23.975 10.368-46.667-14.244-55.06-56.06zm-1.356-66.285c-13.334 11.77-23.928 33.97-34.42 56.488.22-.035.41-.035.623-.06 12.527-1.355 23.346-3.044 32.858-5.314-1.676-15.53-1.546-32.794.94-51.115z" fill="#FFF"/><path d="M181.73 120.474h-2.08v5.862h-1.416v-5.862h-2.08v-1.26h5.575v1.26zm9.44 5.862h-1.403v-5.672h-.035l-1.997 5.672h-1.362l-1.932-5.672h-.028v5.672h-1.41v-7.122h2.438l1.6 4.637h.04l1.683-4.636h2.408v7.122z" fill="#FFF"/></svg>