<svg xmlns="http://www.w3.org/2000/svg" viewBox="0 0 194.849 182.716"><title>Atlanta Braves hat dark logo</title><path d="M180.613 113.785h-1.605v4.514h-1.093v-4.515h-1.6v-.97h4.298v.97zm7.278 4.514h-1.077v-4.375h-.032l-1.54 4.374h-1.05l-1.49-4.375h-.023v4.374h-1.088v-5.485h1.884l1.228 3.566h.038l1.293-3.565h1.86v5.484z" fill="#13274F"/><path d="M188.01 130.106c-2.41-2.327-6.33-6.12-11.167-3.76-3.625 1.756-4.293 5.516-4.293 8.35 0 1.066.103 2.003.168 2.66.092.927.135 1.82.135 2.683 0 8.122-4.056 13.002-8.49 13.734-3.124.13-14.58-9.706-20.096-31.996 21.06-7.928 28.833-20.2 31.435-29.528.916-3.296 1.298-6.496 1.298-9.426 0-7.024-2.15-12.66-4.364-15.114-1.222-1.358-4.95-5.495-9.9-3.91-5.052 1.615-5.71 7.324-5.953 9.49-.964 8.413-5.81 14.683-15.25 19.68 1.008-24.508 9.773-51.03 25.792-77.38 1.282-2.103 3.275-5.377 3.275-8.63 0-1.703-.55-3.394-2.042-4.89-4.196-4.246-9.68-.96-12.965 1l-.96.572C107.864 27.967 84.288 75.26 67.06 109.777c0 0-.318.645-.603 1.217-26.566 10.105-31.284 28.3-31.327 28.483-.183.83-.48 2.102-.48 3.544 0 1.93.54 4.127 2.623 5.786 1.212.97 2.49 1.336 3.733 1.455-1.55.95-3.054 1.54-4.52 1.617-13.924.678-18.205-11.398-18.287-11.646-.27-7.24-4.53-8.704-6.427-8.973-7.094-1.034-9.68 7.756-10.778 11.527-2.446 8.296-.308 18.272 5.564 26.007 6.947 9.157 18.086 14.103 31.375 13.92 22.678-.313 37.274-25.21 49.125-49.46 7.105-1.778 13.17-2.618 19.995-3.523 0 0 6.67-1.013 11.958-1.81 6.006 24.574 17.237 42.737 31.446 50.17 8.747 4.568 18.2 4.912 27.32.97 8.52-3.685 14.51-11.86 16.44-22.44 1.9-10.427-.6-21.08-6.21-26.51zm-87.176-26.038c4.28-8.974 8.85-17.937 13.762-25.63-.113 2.79-.29 5.602-.29 8.34 0 5.062.414 9.975.79 14.898-4.32.873-9.07 1.68-14.262 2.392z" fill="#13274F"/><path d="M183.65 134.62c-2.65-2.564-5.455-5.354-4.702 2.1 1.298 12.8-5.16 21.89-13.584 23.26-8.118 1.314-23.298-14.307-28.505-42.22 41.788-12.616 34.532-42.058 31.122-45.85-2.915-3.22-4.368-3.167-4.966 2.09-1.53 13.347-10.784 22.407-27.865 28.635-1.012-24.24 5.377-55.05 26.815-90.3C168.38 1.8 159.843 7.983 157.52 9.2 111.132 33.343 88.492 80.94 71.046 115.865 47.89 123.717 41.818 138.4 41.242 140.9c-.78 3.383-.474 4.05 3.657 2.09 5.817-2.78 10.95-5.04 15.61-7.035-7.53 13.078-14.82 21.75-23.71 22.192-17.75.873-24.822-14.576-24.822-17.248 0-4.977-2.365-5.226-4.966 3.652-3.544 12.044 5.67 32.222 30.838 31.877 19.068-.26 32.394-22.688 44.875-48.554 14.532-4.04 23.92-3.857 41.05-7.024 7.863 39.127 29.08 62.148 51.516 52.453 15.563-6.732 16.198-31.112 8.36-38.685zm-62.014-27.945c-8.904 2.11-19.025 3.696-30.75 4.955-.19.01-.384.043-.567.065 9.808-21.072 19.724-41.82 32.195-52.852-2.338 17.14-2.452 33.3-.88 47.832z" fill="#CE1141"/></svg>