<svg xmlns="http://www.w3.org/2000/svg" viewBox="0 0 124.691 174.884"><title>Chicago White Sox hat dark logo</title><path d="M19.13 14.6c-4.52 4.814-8.88 14.365-9.51 20.83-.2 2.06-.303 3.994-.303 5.79 0 6.485 1.328 11.456 4.228 16.3 3.628 6.045 9.37 11.025 16.622 14.394 6.835 3.174 16.674 7.588 17.856 8.057.4.167.913.42 1.475.694-2.26 1.62-3.59 2.588-4.66 3.37-6.088-1.397-13.744-.323-15.526.107-7.24 1.71-13.882 4.972-18.69 9.18-4.904 4.298-8.59 9.22-9.835 13.184-1.387 4.414-.938 7.54 1.333 9.307 3.344 2.608 7.666-.058 9.077-.946 2.91-1.836 8.27-5.196 15.03-6.21 5.868-.87 13.75-.06 17.382 2.294v6.416c-.885.79-1.808 1.65-1.808 1.65-.908.898-1.4 2.148-1.4 3.447 0 .597.106 1.212.326 1.798.605 1.65 1.992 2.344 1.992 2.344 11.68 7.11 11.68 7.11 19.54 11.914-.116.04-.34.05-.428.098-1.04.45-3.443 1.953-3.443 6.142v17.1l10.16 9.707c2.25 2.256 4.434 2.637 5.874 2.54 1.773-.11 3.384-.978 4.527-2.443 0 0 6.768-8.69 10.967-14.062 3.1 4.805 7.994 12.383 7.994 12.383-.048-.097.118.255.118.255.566 1.22 1.748 3.76 4.526 4.472 1.23.323 3.174.362 5.435-1.29 3.036-2.206 10.1-7.723 11.317-8.924l.22-.235c.845-.82 2.114-2.08 2.114-4.14v-16.33c0-1.756-.94-3.973-3.1-4.852-1.577-.625-3.383-.625-5.527 1.142-.967.772-2.602 1.954-4.99 3.77-1.392-2.217-2.13-3.398-3.18-5.068 2.057-2.588 6.94-8.75 9.684-12.198.347.274 1.06.85 1.06.85l.12.078c2.877 1.914 5.065 1.2 6.12.606 2.846-1.612 2.905-5.196 2.856-6.27l.005-13.69-8.633-8.956c-1.25-1.397-3.008-2.13-4.8-1.983-1.83.147-3.525 1.192-4.526 2.774-.465.674-4.57 5.83-8.83 11.133v-17.92c.523-.537 1.07-1.084 1.07-1.084.777-.684 2.525-2.842 2.525-5.38 0-.607-.093-1.232-.332-1.867-.498-1.318-1.7-2.832-4.34-3.457.775-2.988 1.078-5.888 1.117-8.134.005-.206.01-.41.01-.625 0-5.987-1.382-11.036-4.117-15.02-3.232-4.727-5.747-6.318-9.213-8.525l-.894-.567c-4.038-2.578-25.244-13.71-26.143-14.21-.073-.028-8.13-4.012-8.13-4.012-5.317-2.686-5.688-4.57-5.688-5.586v-.186c.122-.614 1.568-2.85 4.605-2.85 3.105 0 5.293.087 9.39 1.474 6.484 2.178 6.674 4.815 6.674 5.79-.005.245-.21 2.98-.21 2.98l13.5 9.218L97.96 15.205 81.53 4.22l-2.18 2.167c-.726.742-1.18 1.152-1.45 1.338-.32-.04-1.17-.186-1.17-.186L73.1 6.16C67.4 3.848 57.848 0 49.167 0 33.98 0 26 7.217 19.13 14.6z" fill="#FFF"/><path d="M21.167 16.573c-4.09 4.345-8.178 13.28-8.745 19.11-.185 1.954-.283 3.78-.283 5.46 0 5.957 1.19 10.478 3.798 14.844 3.325 5.547 8.643 10.127 15.356 13.242 7.134 3.32 16.7 7.606 17.75 8.026 1.953.8 4.92 2.412 5.703 3.252-1.016.742-8.848 6.426-9.346 6.777-5.146-1.67-13.24-.732-15.536-.205-6.792 1.62-12.984 4.65-17.447 8.555-4.462 3.897-7.885 8.428-8.97 11.856-.98 3.106-.868 5.147.323 6.085 1.152.888 3.018.507 5.693-1.133 2.857-1.817 8.8-5.547 16.192-6.65 5.483-.8 10.98-.176 15.117.85 0 0 3.184.976 5.703 2.675v9.472c-.43.39-2.68 2.44-2.68 2.44-.377.362-.518.86-.518 1.34 0 .282.05.546.137.78.205.547.747.83.747.83l27.852 16.963s6.612-5.04 7.77-5.918c.453.752 1.03 1.71 1.342 2.246-.606.733-7.74 9.454-8.624 10.528l-6.22-5.556c-1.548-1.426-2.76-1.22-3.335-.967-1.055.478-1.655 1.72-1.655 3.437v15.87l9.296 8.886c1.485 1.465 2.764 1.71 3.59 1.66.917-.058 1.762-.517 2.367-1.298 0 0 10.752-13.81 13.56-17.403l10.303 15.928.312.615c.46 1.006 1.157 2.49 2.574 2.852.888.234 1.884-.04 2.94-.81 3.03-2.198 10-7.657 10.98-8.643l.24-.236c.683-.683 1.225-1.22 1.225-2.04v-16.348c0-.772-.434-1.748-1.284-2.1-.56-.254-1.484-.303-2.642.82.06-.058-5.61 4.23-7.528 5.674l-6.04-9.61c.635-.78 11.983-15.116 12.852-16.2.87.693 3.3 2.597 3.3 2.597 1.23.81 2.237.977 3.047.508 1.437-.8 1.36-3.242 1.35-3.525v-12.676l-7.897-8.174c-.634-.713-1.455-1.055-2.32-.996-.902.078-1.757.615-2.25 1.396-.42.665-6.523 8.3-10.81 13.633-1.12-.888-2.7-1.533-3.55-1.816V92.06c.283-.292 2.085-2.128 2.085-2.128.303-.264 1.513-1.66 1.513-3.115 0-.293-.042-.557-.15-.83-.454-1.22-1.87-1.836-4.194-1.836-.04 0-.772.07-1.47.137 1.714-3.896 2.212-8.066 2.25-11.015 0-.196.006-.39.006-.576 0-5.38-1.206-9.883-3.594-13.37-2.895-4.228-4.956-5.537-8.36-7.685l-.917-.595c-3.935-2.51-25.063-13.613-25.966-14.082-.015-.01-8.076-4.004-8.076-4.004-6.348-3.214-7.363-6.007-7.363-8.33 0-.108 0-.206.01-.313.058-1.914 2.807-5.655 7.592-5.655 3.32 0 5.83.108 10.357 1.622 5.874 1.972 8.725 4.824 8.725 8.73-.006.02-.103 1.396-.103 1.396l9.795 6.69L93.61 15.82 81.86 7.96l-.453.45c-2.525 2.538-2.627 2.508-5.323 1.97-.712-.145-2.226-.74-4.16-1.542C66.417 6.62 57.188 2.89 49.058 2.89c-14.014 0-21.186 6.466-27.89 13.683zm24.87 72.168l10.536-7.656v-.38c-.122-1.768-5.166-4.112-6.944-4.883-1.01-.43-10.713-4.755-17.686-7.988-6.43-2.988-11.51-7.373-14.678-12.636-2.305-3.868-4.32-8.877-3.3-19.356.522-5.46 4.496-14.12 8.34-18.213C28.76 10.674 35.668 4.444 49.057 4.444c7.832 0 16.88 3.652 22.295 5.84 2.07.84 3.58 1.464 4.434 1.62 2.963.587 3.75.48 6.255-1.953.87.587 8.183 5.47 9.326 6.242-.933 1.19-13.843 17.763-14.663 18.808-.982-.683-7.217-4.93-7.842-5.37.02-.264.034-.548.034-.548 0-4.658-3.286-8.086-9.785-10.273-4.737-1.583-7.476-1.7-10.845-1.7-5.83 0-9.053 4.648-9.14 7.138-.157 4.034 2.382 7.16 8.207 10.088l8.072 4.014c.2.098 21.953 11.533 25.835 14.004l.92.586c3.343 2.138 5.204 3.29 7.92 7.265 2.274 3.34 3.397 7.735 3.304 13.047-.044 3.106-.532 7.617-2.597 11.553l-.66 1.26 4.107-.37c1.47 0 2.466.31 2.666.82.254.692-.606 1.972-.928 2.255l-2.68 2.724.058.254v22.87l.562.158c1.23.38 3.413 1.26 4.013 2.08l.6.83.626-.81c1.11-1.358 10.797-13.4 11.427-14.395.234-.37.65-.634 1.064-.654.377-.048.724.127 1.04.47 0 0 6.412 6.65 7.5 7.773v12.264c0 .752-.175 1.74-.57 1.963-.24.137-.757-.03-1.372-.44l-4.448-3.495-14.498 18.26 7.515 11.994 8.945-6.778c.562-.537.894-.625 1.04-.566.186.068.337.42.337.674v16.347c0 .176-.352.537-.772.938l-.234.235c-.874.88-7.632 6.192-10.8 8.486-.665.49-1.222.675-1.652.578-.703-.176-1.196-1.24-1.547-2.012l-.41-.8-11.49-17.765-14.902 19.123c-.235.302-.64.664-1.24.712-.733.05-1.553-.38-2.398-1.21 0 0-8.384-8.018-8.848-8.457v-15.206c0-1.24.376-1.845.733-2.01.39-.167 1.02.087 1.67.702.014.01 7.44 6.63 7.44 6.63L83.014 137.6l-2.798-4.658s-7.548 5.752-8.3 6.328c-.874-.508-26.988-16.445-27.04-16.465-.03-.068-.05-.137-.05-.234 0-.1.02-.206.068-.255l3.13-2.842.005-.342V108.45l-.36-.225c-2.106-1.357-3.81-2.344-6.847-3.105-5.13-1.31-11.176-1.534-15.385-.85-7.71 1.23-13.852 5-16.792 6.855-2.832 1.758-3.72 1.377-3.926 1.21-.43-.33-.64-1.678.21-4.374.977-3.116 4.322-7.51 8.51-11.163 4.283-3.74 10.24-6.65 16.783-8.203 2.573-.605 10.567-1.387 15.093.244l.39.147.333-.244z"/><g><path d="M119.02 169.785h-1.163v3.184h-.79v-3.185h-1.163v-.683h3.115v.683zm5.302 3.184h-.796v-3.087h-.015l-1.122 3.086h-.766l-1.075-3.087h-.03v3.086h-.785V169.1h1.372l.898 2.52h.015l.933-2.52h1.372v3.867z"/></g><g><path d="M118.92 122.393v-11.63l-7.264-6.524-20.122 24.98-2.823-4.503c2.448-1.826 5.602-4.19 5.954-4.355.586-.293 2.036-1.172 2.758-1.172.66 0-1.01-2.9-5.805-2.9V90.585l2.758-3.066s-3.354.537-4.936.068c-.338-.117-.91-.38-1.593-.742.903-1.436 1.714-3.066 2.32-4.98 3.3-10.41 1.142-20.02-6.68-25.948C78 51.768 55.46 40.362 55.46 40.362s-13.638-6.68-15.108-8.164c-1.055-1.045-3.198-2.676-3.198-7.842 0-3.076 3.428-6.455 4.907-7.15 2.355-1.122 3.12-1.65 7.916-1.727 2.705-.03 5.21.614 5.552.653 2.97.313 10.024 2.637 13.647 7.55 1.402 1.386 1.675 5.477 1.675 5.477l5.66 3.624L88.857 16.66l-6.68-4.5c-1.89 2.05-5.512 2.176-6.977 1.454-1.45-.733-13.91-5.274-15.678-5.83-3.34-1.075-10.6-1.866-14.522-1.28-3.92.567-10.356 1.768-15.4 7.11-5.88 6.25-5.952 11.25-5.952 13.945 0 4.208 1.09 9.765 5.815 14.49 6.792 6.798 17.134 11.066 19.458 12.335 4.127 2.295 17.145 9.11 19.025 10.195 7.993 4.65 11.04 9.59 10.166 15.84-.038.303-.14.596-.204.88-3.5-2.042-8.423-5.147-10.406-7.13 0 0-1.186 1.27-1.948 2.03l-5.8 4.357c.683-2.822.76-7.647.64-8.125-.142-.586-.582-5.234-4.644-8.125-2.76-1.973-8.93-5.674-14.234-8.28-2.275-1.124-9.682-5.607-13.213-8.556 0 0-6.107-5.683-7.045-9.17-1.816-3.993-1.89-13.436-.952-14.384 0 0-2.32 2.618-3.91 7.852-.787 2.55-1.31 5.88-1.31 8.135 0 3.77.66 10.38 4.786 15.976 1.825 2.46 4.69 5.263 7.718 7.265 3.706 2.43 7.432 3.867 7.676 4.053 1.02.732 10.61 4.775 11.475 5.214.873.43 5.272 2.49 6.205 2.98 3.305 1.776 5.005 2.9 6.055 5.73l-9.942 7.433s.44.79.44 2.03v.95c-1.338-.45-2.706-.84-4.063-1.076-6.533-1.114-10.513-1.055-15.684.234-5.74 1.416-11.766 3.73-17.43 9.394C5.933 106.494 6 110.762 6 110.762l6.393-3.76c5.342-3.008 12.378-4.795 17.358-4.795 11.872 0 18.034 3.418 19.748 5.332v11.513c0 2.285-.684 2.578-1.197 3.008-.19.167-.365.186-1.05.655 0 0 .87.322 1.085.547.586.43 23.194 14.092 23.194 14.092l8.754-6.426 4.326 6.885-12.022 14.93-8.27-7.547v14.082l9.432 8.72 16.67-20.927 13.692 21.798 11.035-8.858v-13.935l-8.862 6.67-8.985-14.317 16.245-20.39 5.376 4.355zM62.5 91.026l5.157-3.78c1.4 1.153 3.047 2.227 4.692 3.174-.113.088-.19.166-.19.166s-5.95 5.078-9.66 5.615v-5.174zm9.03 33.105l-9.03-5.516v-13.672c3.78-.674 13.013-5.07 17.79-9.844.062.89.038 10.03.018 16.22l-5.537-8.837-8.446 6.016v10.743l4.673-3.097 3.496 5.576-2.964 2.41z"/></g></svg>