<svg xmlns="http://www.w3.org/2000/svg" viewBox="0 0 232.66 227.436"><title>Miami Marlins Cap Logo on Dark</title><path d="M125.259 124.933c6.31-8.538 14.952-20.23 23.007-30.716l.061-.076c14.497-17.267 23.73-25.734 35.284-32.354a73.226 73.226 0 0 1 11.557-5.196c-5.621 1.543-11.555 3.82-17.489 7.142a96.8 96.8 0 0 0-3.526 2.121c-10.762 6.387-19.999 13.484-33.853 31.186-.116.148-.267.345-.378.497a50923.66 50923.66 0 0 1-19.652 26.726l1.211 5.775c1.094-1.473 2.367-3.195 3.778-5.105zm-35.865 19.352a98.99 98.99 0 0 1 3.856-3.002l-4.35-20.628-2.632 8.61 3.126 15.02zm7.501 18.774c-.625.914-.782 1.372-.841 1.888a2.523 2.523 0 0 0-.015.173c-.108 1.847-.388 4.178-.991 5.81-.02.055-.047.117-.07.174l-1.62-7.779 8.411 40.401 3.632-4.844-7.781-36.884-.725 1.061zm64.511-39.501l-7.532 10.13-24.503 78.023 40.715.012 4.45-4.448-39.033.001 25.903-83.718zM46.048 213.619c-10.613 4.974-21.685 5.589-26.511 5.933-1.971.142-3.91.201-5.834.216 7.252-5.673 12.996-11.212 16.819-19.065a53.649 53.649 0 0 0 3.072-7.195c1.376-3.995 15.064-48.245 24.815-79.824a38.3 38.3 0 0 0-2.834 3.603c-2.273 3.297-4.778 6.826-6.264 10.615l-.189.613c-.029.077-.055.161-.083.239l-.741 2.406-.001.004-.782 2.535c-1.29 4.182-2.61 8.451-3.896 12.603l-.631 2.035-.03-.03c-7.151 23.042-13.029 41.882-13.85 44.375-4.838 14.697-15.424 21.697-28.776 31.765 4.775.086 9.917.194 14.841-.2 6.833-.543 26.191-1.724 39.035-15.017.499-.494.984-1.002 1.455-1.522a48.193 48.193 0 0 0 3.464-4.351c-.394.48-.797.955-1.214 1.418-3.469 3.855-7.602 6.712-11.865 8.844z" fill="#ef3340"/><path d="M90.588 221.545c-.12-.023-8.505-1.709-11.703-23.133-1.905-12.767-1.792-16.974-2.258-20.75-.187-1.512-.536-4.711-2.565-8.452l.78-2.551-.004-.004 11.43-37.39 2.632-8.61 4.351 20.628a98.99 98.99 0 0 0-3.856 3.002c-2.766 2.261-4.891 4.208-5.931 5.043-1.73 1.39-2.954 2.205-4.134 2.64l-1.175 3.846c2.319-.551 4.543-1.981 7.209-4.429 2.702-2.481 3.704-3.13 7.207-6.167 1.882-1.632 3.623-2.973 5.232-4.074l-8.106-38.429S67.178 176.4 67.073 176.762c-1.182 4.067-4.778 16.444-12.491 25.014-2.353 2.615-9.057 10.062-27.877 12.611 3.516-3.942 7.977-10.273 11.128-19.42 1.528-4.435 17.397-55.775 27.149-87.375-2.356 1.82-4.585 3.84-6.572 6.09-9.75 31.579-23.439 75.829-24.815 79.824a53.649 53.649 0 0 1-3.072 7.195c-3.823 7.853-9.568 13.392-16.819 19.065a90.144 90.144 0 0 0 5.834-.216c4.826-.343 15.898-.959 26.511-5.933 4.263-2.132 8.396-4.99 11.865-8.844.417-.463.819-.937 1.214-1.418 7.555-9.197 11.06-21.247 12.25-25.344.1-.343.184-.634.252-.86l1.028-3.363c.439 1.279.69 2.668.829 4.257 0 0 .831 7.781 2.049 18.702 2.949 26.448 14.832 26.939 19.658 28.019-.002.004-2.237-.915-4.606-3.221zM221.52 52.161c-6.867 0-16.27.895-26.351 4.432a73.226 73.226 0 0 0-11.557 5.196c-11.554 6.62-20.788 15.086-35.284 32.354l-.061.076c-8.055 10.485-16.697 22.178-23.007 30.716-1.411 1.91-2.684 3.632-3.778 5.106l-1.211-5.775-8.517-40.617c-1.44.018-2.951.109-4.523.273l11.891 56.707 2.97-3.916c1.38-1.819 3.759-5.038 6.772-9.114 6.292-8.513 14.905-20.167 22.927-30.611 14.1-16.791 23.013-24.987 34.029-31.299 12.712-7.116 25.494-8.88 34.384-9.033-9.266 8.587-16.114 20.225-20.848 35.389l-29.161 93.918c-.915 3.145-1.545 5.567-1.86 7.924-.455 3.416-.446 6.318.042 8.907l-26.795.001 31.841-102.912-65.687 88.351-6.573-31.162a132.906 132.906 0 0 0-3.541 4.93l7.781 36.884 48.473-65.196 7.532-10.13-25.903 83.718 39.034-.001c-.805-2.05-.914-2.398-1.123-3.022-.973-2.618-1.175-5.724-.636-9.775.277-2.077.864-4.32 1.709-7.225l29.149-93.877c5.19-16.624 12.985-28.719 23.83-36.976a155.858 155.858 0 0 1 4.517-3.416c-.003-.002-5.351-.763-10.465-.825z" fill="#00a3e0"/><path d="M93.134 162.236a6.756 6.756 0 0 1 .502-.857l.007-.01c1.057-1.547 4.088-5.964 6.768-9.047l.929-1.069.143-.165.072-.083c5.119-5.895 9.533-10.932 13.007-12.097-.05-.014-.103-.017-.153-.029-.696-.087-3.18-.042-7.836 3.598-2.258 1.935-5.064 4.658-8.464 8.496-3.758 4.242-5.505 7.166-6.801 8.843-.969 1.247-1.26 1.94-1.452 3.105-.036.216-.122 3.595-.759 5.319-.485 1.314-2.468 4.177-2.572 4.352-.928 1.547-.816 2.299-.786 3.157s-.142 12.265.182 24.955 4.672 20.841 4.672 20.841l-.006-.001v.001c2.368 2.305 4.604 3.224 4.604 3.224-2.273-3.965-6.073-15.381-6.297-24.142-.234-9.147-.039-17.129-.122-21.822-.016-1.03-.036-2.059-.061-3.089l-.008-.269c-.018-.431-.019-.558.406-1.375.048-.078.089-.139.155-.238 1.099-1.657 2.177-3.358 2.623-4.565.603-1.633.805-3.962.913-5.808.003-.048.007-.107.015-.174.054-.317.12-.633.316-1.051h.003z" fill="#41748d"/><path d="M43.619 146.302c-14.607-16.569-19.913-40.127-12.474-60.689-1.297.051-2.555.11-3.771.178-2.225 6.698-3.263 13.859-3.044 21.065 0 .036.025.606.025.606.815 16.834 9.359 31.516 18.603 40.845l.02.02c.219-.673.433-1.348.641-2.025z" fill="#00a3e0"/><path d="M168.178 41.356l-34.865 6.291 34.972-6.298s-35.117 12.856-42.843 15.776c-7.725 2.92-7.541 10.189-7.541 10.189l15.089-.916c11.614-.729 15.513 2.435 15.513 2.435l-27.241 2.915-8.645 8.404c-22.121-.175-69.958 17.792-65.103 53.546l.781-2.533.002-.007.741-2.406c.028-.078.054-.162.083-.239l.189-.613 1-3.239c.268-.847.537-1.683.783-2.429a41.118 41.118 0 0 1 3.111-7.892c5.927-11.411 17.95-18.821 26.673-22.864 8.564-3.97 18.212-6.707 26.352-7.557a49.537 49.537 0 0 1 4.523-.273c.179-.002.365-.011.542-.011l1.732.012 9.332-9.124 32.949-3.545c-1.249-1.365-7.469-7.42-19.75-7.665-1.202-.024-2.472.041-3.774.123l-10.258.627c.579-1.712 2.035-3.422 4.147-4.22 7.62-2.881 48.304-17.842 48.655-17.971l3.263-3.185-10.412 2.669z" fill="#41748d"/><path d="M35.116 107.253a53.853 53.853 0 0 0 1.643 10.983c-.991-12.924 1.26-23.809 5.91-32.761a201.1 201.1 0 0 0-3.643-.025c-2.934 6.802-4.25 14.13-3.91 21.803zm59.688-53.385c-.349.007-.7.011-1.046.022-15.293.477-29.458 4.605-39.613 12.272a51.507 51.507 0 0 0-4.63 3.946 50.755 50.755 0 0 0-4.914 5.697c1.806-.304 3.58-.568 5.318-.794 10.725-11.957 26.909-18.857 44.885-21.143z" fill="#ef3340"/><path d="M132.991 66.399l-15.089.916s-.184-7.269 7.541-10.189c7.725-2.92 42.843-15.776 42.843-15.776l-34.972 6.298-7.541 1.358c-5.993-.22-10.83.541-10.83.541a34.198 34.198 0 0 0-8.499-2.892 41.912 41.912 0 0 0-2.581-.54c-4.065-8.651-12.05-23.389-24.681-37.117-3.444 10.184 1.412 17.012-5.304 31.033-.753 1.572-1.44 2.994-2.956 4.661-5.808 6.389-9.029 7.14-14.921 11.107-9.708 6.042-16.731 13.65-21.342 22.043a141.28 141.28 0 0 1 9.94-2.038 50.858 50.858 0 0 1 4.914-5.697 51.507 51.507 0 0 1 4.63-3.946c10.154-7.667 24.32-11.795 39.613-12.272.347-.011.697-.015 1.046-.022-17.976 2.287-34.16 9.186-44.885 21.142 12.96-1.686 23.887-1.316 30.393-.398-4.637 1.704-9.342 3.852-13.828 6.449a74.496 74.496 0 0 0-7.927 5.274 199.286 199.286 0 0 0-15.888-.859c-4.65 8.952-6.901 19.837-5.91 32.761a53.922 53.922 0 0 1-1.643-10.983c-.34-7.674.976-15.002 3.91-21.803-2.756.006-5.387.067-7.881.163-7.439 20.562-2.133 44.12 12.474 60.689 1.286-4.152 2.606-8.421 3.896-12.603-4.855-35.754 42.983-53.721 65.103-53.546l8.645-8.404 27.241-2.915c.002 0-3.897-3.164-15.511-2.435zM82.729 22.325c-.011-.163-.011-.592-.018-1.018 6.569 8.905 11.371 17.557 14.026 22.746-8.258.054-15.466 2.054-21.187 4.489 3.751-5.08 8.031-14.016 7.179-26.217zm31.329 45.224l-6.584.402s1.367-5.473 10.062-8.363c0 .001-2.734 1.575-3.478 7.961z"/><path d="M82.71 21.307c.008.425.007.855.018 1.018.852 12.201-3.428 21.138-7.18 26.218 5.722-2.436 12.929-4.436 21.187-4.489-2.654-5.189-7.456-13.842-14.025-22.747z" fill="#00a3e0"/><path d="M107.474 67.952l6.584-.402c.744-6.387 3.478-7.96 3.478-7.96-8.695 2.888-10.062 8.362-10.062 8.362zM39.026 85.45c1.192-.003 2.409.007 3.643.025 5.007.075 10.342.331 15.888.859a74.649 74.649 0 0 1 7.927-5.274c-16.444-.717-38.551.107-59.646 6.97.521-.1 8.467-1.559 20.536-2.238 1.216-.068 2.475-.128 3.771-.178 2.494-.097 5.125-.158 7.881-.164z" fill="#41748d"/><path d="M66.484 81.061c4.485-2.597 9.191-4.744 13.828-6.449-6.507-.919-17.433-1.289-30.393.398a143.362 143.362 0 0 0-15.258 2.832c4.611-8.394 11.634-16.002 21.342-22.043 5.892-3.967 9.113-4.718 14.921-11.107 1.516-1.667 2.203-3.089 2.956-4.661 6.716-14.021 1.859-20.849 5.304-31.033 12.631 13.729 20.615 28.466 24.681 37.117.866.154 1.726.334 2.581.54a34.198 34.198 0 0 1 8.499 2.892s4.836-.761 10.83-.541l7.541-1.358 34.865-6.291 10.415-2.667 3.428-3.301-56.506 10.121a68.908 68.908 0 0 0-10.012.445 37.486 37.486 0 0 0-8.523-2.748c-.223-.047-.445-.1-.667-.151-4.31-8.935-12.098-22.793-24.395-36.164-2.041-2.055-2.77-2.692-4.524-4.122-.716 1.563-1.742 5.328-1.742 5.328-1.106 3.719-1.472 9.158-1.508 14.508.096 3.992-.416 10.82-3.61 16.432-2.18 3.675-5.493 6.756-10.487 10.129-.393.245-.791.501-1.2.773-2.504 1.489-6.712 3.88-9.9 6.307-8.886 6.374-14.435 13.539-18.853 22.791-7.636 2.136-15.518 5.055-23.293 8.998l.032-.006c21.097-6.863 43.204-7.687 59.648-6.969z" fill="#00a3e0"/><path d="M95.048 170.932c.603-1.633.883-3.964.991-5.81.003-.047.007-.107.015-.173.059-.517.216-.974.841-1.888.185-.271.433-.635.725-1.06a132.906 132.906 0 0 1 3.541-4.93l6.573 31.162 65.687-88.351-31.841 102.912 26.795-.001c-.488-2.589-.497-5.491-.042-8.907.315-2.357.945-4.779 1.86-7.924l29.161-93.918c4.734-15.164 11.582-26.802 20.848-35.389-8.889.153-21.671 1.917-34.384 9.033-11.013 6.312-19.926 14.508-34.027 31.299-8.022 10.443-16.635 22.098-22.927 30.611-3.013 4.076-5.392 7.295-6.772 9.114l-2.97 3.916-11.891-56.707c-8.14.85-17.788 3.587-26.352 7.557-8.723 4.043-20.746 11.453-26.673 22.864a41.053 41.053 0 0 0-3.111 7.892c-.247.746-.516 1.583-.783 2.429l-1 3.239c1.486-3.789 3.991-7.318 6.264-10.615a38.3 38.3 0 0 1 2.834-3.603c1.986-2.25 4.216-4.271 6.572-6.09-9.752 31.599-25.622 82.94-27.149 87.375-3.151 9.147-7.612 15.478-11.128 19.42 18.82-2.549 25.524-9.996 27.877-12.611 7.713-8.57 11.309-20.947 12.491-25.014.105-.362 22.624-74.047 22.624-74.047l8.106 38.429c-1.609 1.101-3.349 2.441-5.232 4.074-3.503 3.037-4.504 3.686-7.207 6.167-2.667 2.448-4.891 3.879-7.209 4.429l-3.313 10.844-.78 2.551c2.03 3.741 2.379 6.94 2.565 8.452.467 3.776.353 7.983 2.258 20.75 3.198 21.424 11.583 23.11 11.703 23.133l.006.001s-4.348-8.151-4.672-20.841c-.325-12.69-.153-24.097-.182-24.955-.03-.857-.143-1.609.786-3.157.105-.175 2.087-3.038 2.572-4.352.637-1.724.723-5.103.759-5.319.192-1.165.483-1.858 1.452-3.105 1.296-1.677 3.042-4.601 6.801-8.843 3.4-3.838 6.206-6.561 8.464-8.496 4.655-3.64 7.14-3.685 7.836-3.598.051.012.103.015.153.029-3.474 1.165-7.888 6.202-13.007 12.097l-.072.083-.143.165-.929 1.069c-2.681 3.083-5.711 7.499-6.768 9.047l-.007.01a8.625 8.625 0 0 0-.318.508c-.07.124-.133.241-.184.349l-.002.003.227 1.088 1.62 7.779c.021-.06.048-.121.068-.176z"/><path d="M181.743 202.029h-.019l-.865-2.709h-1.321v4.144h.761v-3.301h.021l1.044 3.296h.73l1.081-3.296h.018v3.296h.761v-4.139h-1.311l-.9 2.709zm-5.897-1.968h1.122v3.403h.759v-3.403h1.132v-.741h-3.013v.741z" fill="#00a3e0"/></svg>