<svg xmlns="http://www.w3.org/2000/svg" viewBox="0 0 156.263 153.065"><title>Minnesota Twins hat light logo</title><path d="M74.958 108.967c3.923.567 8.01.886 12.242.796 1.494-.03 2.967-.1 4.435-.23l.338-95.264c13.805.408 28.322 2 41.32 5.754 1.01 5.616 9.065 16.438 17.623 17.633 0 0-3.305-20.36-2.375-30.925C129.81 1.477 69.1-5.005 18.147 6.047c0 0-.19 26.046-3.68 31.263 0 0 16.743-4.37 20.5-19.236 0 0 17.874-3.157 40.883-3.804l-.31 33.006-.014 1.274-.568 60.417zM74.754 130.264l-.06 6.9-9.574 15.9 38.36-.746-11.944-14.576.024-7.11c-1.548.11-3.077.2-4.64.23-4.225.09-8.273-.15-12.166-.598zM108.392 136.15l-.836 2.24h-.025l-1.408-3.944h-2.126v6.034h1.226v-4.79h.024l1.698 4.79h1.18l.268-.717 1.484-4.072h.02v4.79h1.23v-6.034h-2.112M101.07 140.48v-4.96h1.816v-1.074h-4.858v1.075h1.81v4.96" fill="#FFF"/><path d="M91.93 26.448l-.075 21.296c21.914 1.255 39.542 11.86 42.863 25.678l21.546-.408c-3.226-25.11-30.433-44.734-64.335-46.566z" fill="#D31145"/><path d="M91.635 109.535c-1.468.13-2.94.2-4.435.23-4.232.09-8.32-.23-12.242-.797-21.018-3.077-36.76-14.905-37.028-29.352-.29-14.845 15.825-27.58 37.596-31.065l.014-1.273.174-19.265c-17.777 2.44-34.46 11.42-45.502 22.93C21.004 62.092 6.15 76.738 0 79.098c0 0 23.124 18.957 27.64 26.415 9.857 12.426 25.967 22.293 47.114 24.752 3.893.448 7.94.687 12.166.597 1.563-.03 3.092-.12 4.64-.23 31.806-2.13 57.574-19.723 63.662-42.344l-22.81.438c-6.207 11.06-21.86 19.375-40.777 20.81z" fill="#D31145"/></svg>