<svg xmlns="http://www.w3.org/2000/svg" viewBox="0 0 159.266 156"><title>Minnesota Twins hat dark logo</title><path d="M76.4 111.06c4.004.59 8.17.908 12.474.816 1.53-.02 3.028-.114 4.52-.228l.352-97.106c14.073.413 28.864 2.035 42.114 5.88 1.013 5.706 9.24 16.755 17.954 17.954 0 0-3.36-20.754-2.424-31.514C132.3 1.508 70.43-5.108 18.497 6.17c0 0-.186 26.543-3.737 31.855 0 0 17.06-4.444 20.89-19.596 0 0 18.207-3.226 41.66-3.887L77 48.197l-.012 1.312-.59 61.55zM76.19 132.754l-.06 7.038L66.378 156l39.086-.755-12.17-14.874.024-7.234c-1.566.104-3.132.207-4.724.238-4.31.083-8.43-.144-12.403-.62zM110.47 138.76l-.842 2.294h-.036l-1.42-4.03h-2.177v6.15h1.25v-4.88h.027l1.725 4.88h1.205l.27-.745 1.52-4.136h.02v4.88h1.26v-6.15h-2.16M103.02 143.173v-5.034h1.85v-1.117H99.91v1.116h1.86v5.033" fill="#002B5C"/><path d="M93.706 26.966l-.077 21.706c22.334 1.282 40.293 12.072 43.678 26.16l21.96-.423c-3.288-25.594-31.025-45.594-65.562-47.444z" fill="#D31145"/><path d="M93.396 111.65c-1.493.112-2.992.205-4.52.227-4.307.092-8.47-.228-12.476-.817-21.422-3.12-37.463-15.173-37.737-29.913-.29-15.142 16.13-28.093 38.326-31.638l.01-1.313.18-19.65c-18.123 2.492-35.12 11.65-46.38 23.37C21.4 63.288 6.273 78.213 0 80.61c0 0 23.57 19.317 28.18 26.925 10.042 12.662 26.456 22.72 48.01 25.22 3.975.475 8.095.703 12.404.62 1.592-.03 3.157-.134 4.724-.238 32.424-2.17 58.682-20.082 64.884-43.152l-23.235.445c-6.33 11.275-22.29 19.74-41.57 21.22z" fill="#D31145"/></svg>