<svg xmlns="http://www.w3.org/2000/svg" viewBox="0 0 189.378 239"><title>New York Mets hat dark logo</title><path d="M160.972 158.476c0-2.766-.864-5.473-2.424-7.767-2.492 3.852-6.46 5.67-10.978 4.57-4-.946-7.17-3.82-7.208-6.48V88.084l.85.337c4.53 1.85 7.82 6.192 8.798 11.59.19 1.04.282 2.11.282 3.165 0 3.684-1.39 6.956-3.607 9.586 4.15-.856 16.375-4.556 16.375-20.013 0-14.25-11.506-22.98-22.208-25.06l-.488-.09V25.155c.038-2.66 3.21-5.534 7.208-6.483 4.518-1.116 8.486.734 10.978 4.572 1.56-2.294 2.424-5 2.424-7.767 0-3.73-1.392-7.537-4.09-10.533-5.963-6.574-15.81-6.59-26.36-.06l-.334.228-.32-.23c-10.562-6.53-20.416-6.513-26.37.06-2.715 2.998-4.083 6.804-4.083 10.534 0 2.768.85 5.473 2.424 7.767 2.493-3.837 6.468-5.688 10.995-4.572 3.983.95 7.155 3.823 7.192 6.483v47.442l-.335.183c-8.25 4.28-15.634 10.32-21.972 17.934l-.467.565-.488-.58S42.55 24.957 42.428 24.438c.596-2.782 4.227-5.428 8.255-6.01 4.105-.564 7.568 1.3 9.854 4.817 1.553-2.294 2.416-5 2.416-7.767 0-3.73-1.382-7.537-4.09-10.533C52.9-1.63 43.04-1.645 32.49 4.883l-.322.23-.32-.23c-10.557-6.53-20.41-6.513-26.367.06-2.712 2.998-4.096 6.804-4.096 10.534 0 2.768.856 5.473 2.424 7.767 2.508-3.837 6.475-5.688 11-4.572 3.983.95 7.164 3.823 7.194 6.483v42.58l-.488.092C10.818 70.197 0 78.82 0 92.75c0 15.456 12.277 19.17 16.406 20.012-2.195-2.615-3.61-5.916-3.61-9.632 0-.856.07-1.713.2-2.585.78-5.29 3.815-9.693 8.133-11.772l.87-.445v60.47c-.03 2.66-3.21 5.534-7.193 6.482-4.525 1.1-8.492-.72-11-4.572-1.567 2.294-2.424 5-2.424 7.75 0 3.732 1.384 7.555 4.097 10.536 5.956 6.59 15.81 6.605 26.366.092l.32-.214.322.214c10.557 6.513 20.41 6.497 26.374-.092 2.707-2.98 4.09-6.804 4.09-10.535 0-2.752-.864-5.46-2.417-7.752-2.507 3.853-6.482 5.672-11.016 4.572-3.984-.947-7.14-3.822-7.195-6.482V92.794l.978.658c15.03 10.244 26.634 31.19 28.026 44.4v69.29c0 7.384-4.994 13.025-9.794 14.25-3.394.84-6.36-.63-8.424-3.747-1.528 2.262-2.384 4.847-2.384 7.477 0 3.286 1.19 6.574 3.554 9.173 5.85 6.467 15.908 6.253 26.878-.55l.337-.214.337.214c10.97 6.804 21.023 7.02 26.878.55 2.362-2.598 3.554-5.886 3.554-9.172 0-2.63-.863-5.215-2.392-7.477-1.995 2.98-4.824 4.388-8.12 3.563-4.884-1.238-10.097-7.172-10.097-14.067v-68.356c.313-4.694 2.14-10.78 5.138-17.093l.412-.885.634.764s22.026 27.06 22.164 27.52c-.276 2.72-3.638 5.488-7.676 6.3-2.11.41-7.163.655-10.55-4.573-1.513 2.278-2.36 4.922-2.36 7.675 0 3.715 1.367 7.523 4.082 10.504 5.954 6.59 15.808 6.605 26.366.092l.32-.214.336.214c10.55 6.513 20.397 6.497 26.358-.092 2.7-2.982 4.092-6.805 4.092-10.52zm-79.465-38.94l-.543-1.423c-10.205-26.91-26.457-39.72-38.29-45.73l-.345-.153V53.363l44.055 54.124.214.32-5.093 11.728zm38.52-.613l-12.056-14.63.338-.383c3.38-3.945 7.003-7.278 10.74-9.938l.98-.703v25.653zM186.03 144.09l-2.293 6.22h-.06l-2.196-6.22h-3.37v9.51h1.934v-7.57h.054l2.653 7.57h1.88l2.76-7.57h.03v7.57h1.958v-9.51M168.7 145.8h2.858v7.8h1.95v-7.8h2.86v-1.71h-7.67" fill="#FF5910"/></svg>