<svg xmlns="http://www.w3.org/2000/svg" viewBox="0 0 165 236"><title>New York Mets Logo</title><path fill="#FFF" d="M154.264 137.763s-2.372 8.553-7.236 8.958c-1.986.157-3.658-1.13-4.114-1.728v-27.999c7.458-.795 21.443-6.881 21.443-24.328 0-14.729-10.509-24.283-21.443-27.799V29.46c.456-.598 2.128-1.723 4.114-1.728 4.753 0 7.236 8.958 7.236 8.958l4.408-5.748c5.432-7.091 4.783-17.675-1.51-24.632-5.432-5.994-15.809-9.44-29.094-2.341C114.793-3.13 104.417.316 98.995 6.31c-6.303 6.957-6.951 17.541-1.52 24.632l4.408 5.748s2.331-8.958 7.235-8.958c1.996.005 3.658 1.13 4.104 1.728v41.173c-5.837 3.365-11.207 7.578-16.051 12.611C91.527 76.397 56.1 33.44 51.934 28.386c.729-.36 1.632-.649 2.625-.654 5.269-.003 7.246 8.958 7.246 8.958l4.398-5.748c5.432-7.091 4.773-17.675-1.52-24.632C59.252.316 48.875-3.13 35.6 3.969 22.324-3.129 11.947.316 6.526 6.31.213 13.267-.436 23.851 4.995 30.942l4.409 5.748s2.209-8.958 7.235-8.958c1.996 0 3.679 1.13 4.114 1.728v35.625C9.921 68.794 0 78.228 0 92.666c0 16.933 13.163 23.153 20.754 24.232v28.096c-.436.598-2.118 1.753-4.114 1.728-4.49-.076-7.235-8.958-7.235-8.958l-4.409 5.751c-5.431 7.094-4.783 17.678 1.531 24.63 5.421 5.994 15.798 9.439 29.073 2.346 13.275 7.094 23.652 3.648 29.083-2.346 1.034-1.145 1.875-2.417 2.605-3.734v36.182c0 4.514-3.06 8.183-5.269 8.34-4.165.294-6.07-8.031-6.07-8.031l-4.409 5.755c-5.279 6.886-4.843 16.599 1.024 23.08 5.361 5.923 15.849 9.186 29.57 1.763 13.721 7.423 24.219 4.16 29.58-1.763 5.877-6.48 6.303-16.194 1.024-23.08l-4.408-5.755s-1.257 7.884-5.796 7.858c-2.645-.025-5.543-4.353-5.543-8.168v-35.138c.598.943 1.246 1.855 2.006 2.691 5.422 5.994 15.799 9.439 29.073 2.346 13.285 7.094 23.662 3.648 29.094-2.346 6.293-6.952 6.942-17.546 1.51-24.63l-4.41-5.752zm-25.882 26.91l-.314-.192-.304.192c-9.962 6.172-19.254 6.151-24.878-.056a14.91 14.91 0 0 1-3.851-9.946c0-2.579.811-5.067 2.229-7.22 3.192 4.92 7.965 4.717 9.962 4.317 3.8-.755 6.982-3.369 7.235-5.953-.132-.426-20.906-25.962-20.906-25.962l-.588-.717-.395.836c-2.837 5.966-4.56 11.697-4.854 16.145v64.475c0 6.501 4.925 12.11 9.525 13.27 3.101.775 5.787-.557 7.661-3.364 1.439 2.143 2.26 4.575 2.26 7.048 0 3.101-1.125 6.207-3.354 8.659-5.523 6.101-15.007 5.903-25.364-.517l-.314-.192-.304.192c-10.357 6.42-19.851 6.617-25.364.517a12.858 12.858 0 0 1-3.354-8.659c0-2.473.81-4.905 2.25-7.043 1.946 2.939 4.742 4.338 7.944 3.532 4.54-1.145 9.242-6.486 9.242-13.442v-65.377c-1.317-12.454-12.262-32.212-26.439-41.88l-.922-.623v52.824c.04 2.528 3.03 5.213 6.79 6.125 4.276 1.044 8.016-.679 10.387-4.306 1.469 2.168 2.28 4.691 2.28 7.316 0 3.521-1.307 7.129-3.861 9.941-5.614 6.212-14.917 6.232-24.878.061l-.304-.192-.304.192c-9.961 6.172-19.254 6.151-24.878-.061-2.544-2.812-3.861-6.42-3.861-9.941 0-2.62.821-5.148 2.29-7.316 2.361 3.628 6.101 5.35 10.377 4.306 3.76-.912 6.749-3.597 6.79-6.116V88.499l-.831.408c-4.064 1.974-6.932 6.133-7.671 11.124-.12.805-.182 1.618-.183 2.432 0 3.499 1.328 6.62 3.405 9.077-3.901-.778-15.474-4.299-15.474-18.874 0-13.141 10.195-21.27 20.298-23.497l.456-.101V28.923c-.04-2.531-3.03-5.222-6.79-6.136-4.276-1.036-8.016.681-10.377 4.317-1.469-2.171-2.29-4.7-2.29-7.317 0-3.527 1.317-7.131 3.861-9.948 5.624-6.207 14.917-6.23 24.878-.059l.304.192.304-.192c9.951-6.168 19.264-6.148 24.878.059a14.885 14.885 0 0 1 3.861 9.948c0 2.617-.81 5.145-2.28 7.314-2.158-3.314-5.421-5.069-9.292-4.525-3.801.535-7.225 3.02-7.803 5.655.132.497 51.276 62.514 51.276 62.514l.456.545.446-.542c5.979-7.177 12.94-12.872 20.723-16.928l.324-.164V28.923c-.04-2.531-3.03-5.222-6.79-6.136-4.276-1.036-8.016.681-10.377 4.317-1.469-2.174-2.29-4.702-2.29-7.324 0-3.521 1.307-7.127 3.851-9.941 5.624-6.207 14.917-6.227 24.878-.059l.304.192.314-.192c9.951-6.168 19.254-6.148 24.868.056 2.553 2.817 3.861 6.422 3.861 9.948 0 2.62-.81 5.148-2.28 7.319-2.361-3.63-6.1-5.351-10.366-4.317-3.77.912-6.759 3.602-6.799 6.125v40.033l.466.094c10.093 1.951 20.956 10.177 20.956 23.626 0 14.572-11.542 18.094-15.454 18.874 2.088-2.462 3.405-5.558 3.405-9.042 0-.983-.091-1.984-.273-2.992-.922-5.087-4.023-9.168-8.299-10.922l-.801-.329v57.29c.04 2.518 3.03 5.214 6.799 6.126 4.266 1.034 8.006-.689 10.366-4.317 1.47 2.168 2.28 4.697 2.28 7.316 0 3.527-1.307 7.134-3.861 9.946-5.614 6.21-14.916 6.23-24.868.059zm-62.179-21.159l-4.398-5.751s-3.07 8.659-7.246 8.958c-1.986.136-3.669-1.13-4.104-1.728v-41.105c9.728 10.015 15.94 23.893 16.832 31.65v9.677c-.335-.576-.669-1.164-1.084-1.701zm30.785.77v-7.894c.132-2.002.669-4.418 1.51-7.033 4.955 6.08 10.894 13.387 13.508 16.589-.77.415-1.773.79-2.898.775-4.236-.076-7.225-8.958-7.225-8.958l-4.408 5.751c-.192.248-.324.517-.487.77z"/><path fill="#FF5910" d="M157.111 154.671c0-2.62-.81-5.148-2.28-7.316-2.361 3.628-6.1 5.35-10.366 4.317-3.77-.912-6.759-3.607-6.799-6.126v-57.29l.801.329c4.276 1.753 7.377 5.834 8.299 10.922.182 1.008.273 2.009.273 2.992 0 3.483-1.317 6.579-3.405 9.042 3.912-.78 15.454-4.302 15.454-18.874 0-13.45-10.863-21.676-20.956-23.626l-.466-.094V28.913c.04-2.523 3.03-5.214 6.799-6.125 4.266-1.034 8.006.686 10.366 4.317 1.47-2.171 2.28-4.7 2.28-7.319 0-3.526-1.307-7.131-3.861-9.948-5.614-6.204-14.917-6.225-24.868-.056l-.314.192-.304-.192c-9.962-6.168-19.254-6.148-24.878.059-2.543 2.814-3.851 6.42-3.851 9.941 0 2.622.821 5.15 2.29 7.324 2.361-3.636 6.101-5.353 10.377-4.317 3.76.914 6.749 3.605 6.79 6.136v44.732l-.324.164c-7.783 4.056-14.744 9.751-20.723 16.928l-.446.542-.456-.545S45.399 28.729 45.267 28.232c.577-2.635 4.002-5.12 7.803-5.655 3.871-.544 7.134 1.211 9.292 4.525 1.469-2.169 2.28-4.697 2.28-7.314 0-3.524-1.307-7.131-3.861-9.948-5.614-6.207-14.927-6.227-24.878-.059l-.304.192-.304-.192c-9.961-6.171-19.254-6.148-24.878.058-2.544 2.817-3.861 6.422-3.861 9.948 0 2.617.821 5.145 2.29 7.317 2.361-3.636 6.101-5.353 10.377-4.317 3.76.914 6.749 3.605 6.79 6.136v40.144l-.456.101C15.454 71.396 5.259 79.525 5.259 92.666c0 14.575 11.573 18.096 15.474 18.874-2.077-2.457-3.405-5.579-3.405-9.077 0-.801.061-1.614.183-2.432.739-4.991 3.607-9.151 7.671-11.124l.831-.408v57.047c-.04 2.518-3.03 5.203-6.79 6.116-4.276 1.044-8.016-.679-10.377-4.306-1.469 2.168-2.29 4.697-2.29 7.316 0 3.521 1.317 7.129 3.861 9.941 5.624 6.212 14.917 6.232 24.878.061l.304-.192.304.192c9.961 6.172 19.264 6.151 24.878-.061a14.864 14.864 0 0 0 3.861-9.941c0-2.625-.81-5.148-2.28-7.316-2.371 3.628-6.111 5.35-10.387 4.306-3.76-.912-6.749-3.597-6.79-6.125V92.712l.922.623c14.177 9.668 25.121 29.426 26.439 41.88v65.377c0 6.957-4.702 12.297-9.242 13.442-3.202.806-5.999-.593-7.944-3.532-1.439 2.139-2.25 4.57-2.25 7.043 0 3.101 1.125 6.207 3.354 8.659 5.513 6.101 15.007 5.903 25.364-.517l.304-.192.314.192c10.357 6.42 19.841 6.617 25.364.517a12.858 12.858 0 0 0 3.354-8.659c0-2.473-.821-4.905-2.26-7.048-1.875 2.807-4.56 4.139-7.661 3.364-4.601-1.16-9.525-6.769-9.525-13.27v-64.475c.294-4.449 2.017-10.179 4.854-16.145l.395-.836.588.717s20.774 25.536 20.906 25.962c-.253 2.584-3.435 5.198-7.235 5.953-1.996.401-6.769.603-9.962-4.317-1.419 2.153-2.229 4.641-2.229 7.22 0 3.527 1.307 7.134 3.851 9.946 5.624 6.207 14.917 6.227 24.878.056l.304-.192.314.192c9.951 6.172 19.254 6.151 24.868-.056a14.86 14.86 0 0 0 3.861-9.945zm-74.958-36.724l-.517-1.343C72.009 91.217 56.667 79.133 45.51 73.465l-.324-.162V55.521l41.558 51.053.213.304-4.804 11.069zm36.339-.588l-11.38-13.789.314-.373c3.192-3.709 6.607-6.863 10.134-9.371l.932-.656v24.189z"/><path fill="#FFF" d="M45.185 55.521v17.782l.324.162c11.157 5.667 26.5 17.752 36.126 43.139l.517 1.343 4.803-11.068-.213-.304-41.557-51.054zm62.241 47.676l-.314.373 11.38 13.789V93.17l-.932.656c-3.527 2.509-6.942 5.663-10.134 9.371zM134.293 185.112l-2.169 5.857h-.051l-2.067-5.857h-3.182v8.968h1.825v-7.138h.04l2.513 7.138h1.773l2.594-7.138h.041v7.138h1.834v-8.968zm-16.346 1.601h2.696v7.367h1.834v-7.367h2.695v-1.601h-7.225z"/></svg>