<svg xmlns="http://www.w3.org/2000/svg" viewBox="0 0 383.336 480"><g fill="#2f241c"><path d="M291.879 102.155l-194.167.015s11.606 16.691 11.606 48.41v24.553H68.22c-9.864 0-17.859-7.996-17.859-17.859V57.44c0-9.822 8.037-17.859 17.859-17.859l133.257.002c10.251.137 16.992 10.317 15.592 20.473-1.356 9.834-6.491 15.723-6.491 15.723l52.876.001V52.886C263.453 23.678 239.776 0 210.567 0H52.885C23.677 0 0 23.678 0 52.886v109.912c0 29.208 23.677 52.885 52.885 52.885h145.491c9.862 0 17.859 7.996 17.859 17.859v95.228c0 9.815-8.031 17.846-17.846 17.846h-38.717V234.71h-50.354v111.905H65.36c-9.857 0-17.846-7.99-17.846-17.846v-9.507c0-31.632 8.502-38.942 8.502-38.942l-52.875-.001v53.963c0 29.203 23.675 52.878 52.878 52.878h53.298v44.429c0 31.718-11.606 48.41-11.606 48.41l194.192.001c38.09 0 68.968-30.878 68.968-68.968v-239.89c0-38.103-30.889-68.99-68.992-68.987zm18.638 309.838c0 15.042-12.194 27.236-27.235 27.236h-123.61v-52.07h54.047c29.203 0 52.877-23.674 52.877-52.878V228.019c0-29.208-23.678-52.886-52.886-52.886h-54.038v-32.208h123.615c15.039 0 27.231 12.192 27.231 27.232l-.001 241.836zM366.174 462.357v3.194h-4.041V480h-3.908v-14.449h-4.282v-3.194h12.231zm13.254-.007l-3.855 9.763-3.855-9.763h-3.908V480h3.908v-9.796l3.521 8.72h.668l3.521-8.72V480h3.908v-17.65h-3.908z"/></g></svg>