<svg xmlns="http://www.w3.org/2000/svg" viewBox="0 0 148.048 188.452"><title>Cleveland Indians hat dark logo</title><g fill="#E31937"><path d="M132.774 66.618V0h-31.417v7.24L94.124 0H31.416L0 31.416v125.62l31.416 31.416h69.94l31.418-31.415v-35.215h-31.417v22.22l-12.995 12.995h-43.93l-13.016-12.995v-99.59l13.017-13.036h43.93l12.994 13.037v22.165M135.59 174.48h-2.754v7.544h-1.845v-7.545h-2.76v-1.598h7.36v1.597zm12.458 7.544h-1.838v-7.27h-.04l-2.624 7.27h-1.83l-2.547-7.27h-.036v7.27h-1.865v-9.142h3.227l2.113 5.948h.04l2.204-5.948h3.194v9.142z"/></g></svg>