<svg xmlns="http://www.w3.org/2000/svg" viewBox="-257.569 60.684 401.234 432"><title>Colorado Rockies hat dark logo</title><path d="M138.183 477.086l-3.776 10.19h-.076l-3.622-10.19h-5.527v15.598h3.195v-12.41h.07l4.37 12.41h3.07l4.513-12.41h.09v12.41h3.177v-15.598m-33.924 2.777h4.7v12.82h3.178v-12.82h4.702v-2.777h-12.58"/><path d="M-171.518 88.205s-71.425 27.992-71.495 119.01c-.085 93.248 68.863 110.865 68.863 110.865s-35.495-44.578-35.39-116.12c.13-77.035 38.022-113.755 38.022-113.755z" fill="#C4CED4"/><path d="M71.353 462.405c-14.77-14.524-41.727-90.824-64-95.846 8.165-4.105 59.546-16.077 59.775-71.633-.23-60.06-55.855-79.52-111.484-79.52-11.82 0-33.374.876-55.278 2.175-27.81 1.738-42.065 3.042-63.25 4.777v20.428c29.874 0 36.137 6.952 36.137 39.545v38.863c-41.166-8.69-68.193-54.5-68.193-118.89 0-68.17 32.025-116.107 78.813-116.107 17.6 0 33.075 7.036 45.394 19.79 12.327 12.747 21.11 31.224 24.988 53.657h16.532l-3.147-91.925H-45.4c-1.4 4.4-3.154 6.162-6.34 6.162-8.786 0-29.535-13.2-67.19-13.2-40.815 0-75.653 14.958-99.922 41.347-24.638 26.83-38.72 63.336-38.72 107.314 0 30.35 8.792 64.65 28.867 91.92 20.044 27.27 52.428 47.06 99.56 47.06.814 0 1.588-.062 2.397-.078v85.752c0 31.72-6.95 38.237-36.137 38.237v20.433h131.742v-20.433c-27.12 0-37.203-3.906-37.203-36.063v-58.235h18.422s67.91 114.755 69.757 114.747c4.808-.016 81.103-.05 81.103-.05V472.31c.003 0-15.327 2.518-29.583-9.907zm-314.367-255.19c.07-91.02 71.495-119.01 71.495-119.01s-37.89 36.72-38.022 113.755c-.105 71.543 35.39 116.12 35.39 116.12s-68.947-17.617-68.862-110.865zM-82.49 472.173h-30.022v-232.91l30.02-2.077v234.987zm131.9-176.075c.152 45.753-55.815 57.28-55.815 57.28s20.675-12.46 20.69-56.766c.024-44.73-19.783-57.38-19.783-57.38s54.756 4.937 54.91 56.866zm-117.754 60.546V342.29c1.32-.046 2.657-.124 3.944-.124 4.24 0 8.1 0 11.26.883 3.517.435 7.054 1.313 10.207 2.632l1.07-3.073c10.19-29.906 18.645-62.453 21.453-87.534h-16.536c-8.406 22.538-18.904 39.412-31.4 50.677v-69.48h17.03c33.718 0 51.464 22.592 51.464 56.916 0 44.767-18.067 64.32-68.492 63.454zm89.81 115.653s-38.673-69.154-56.45-93.924c0 0 13.047-2.066 19.414-3.902 5.804-1.648 10.032-3.317 10.032-3.317 15.158 7.628 36.826 41.477 48.402 69.16 12.475 24.978 21.402 32.08 21.402 32.08l-42.8-.096z"/><path fill="#C4CED4" d="M-112.513 472.173h30.022V237.186l-30.023 2.077m126.799 57.349c-.016 44.305-20.69 56.765-20.69 56.765s55.967-11.526 55.815-57.28C49.258 244.17-5.5 239.233-5.5 239.233s19.808 12.65 19.785 57.38zm28.579 143.702C31.288 412.63 9.62 378.78-5.538 371.154c0 0-4.23 1.668-10.032 3.317-6.367 1.837-19.414 3.903-19.414 3.903 17.777 24.77 56.45 93.924 56.45 93.924l42.8.097s-8.928-7.102-21.402-32.08z"/></svg>