<svg xmlns="http://www.w3.org/2000/svg" viewBox="0 0 169.964 183"><title>Colorado Rockies Cap Logo on Dark</title><path d="M36.454 11.658S6.197 23.518 6.168 62.073c-.039 39.5 29.17 46.961 29.17 46.961S20.302 90.153 20.345 59.846c.057-32.631 16.109-48.188 16.109-48.188" fill="#33006f"/><path d="M139.336 170.171c-6.26-6.149-17.677-38.474-27.113-40.598 3.458-1.74 25.223-6.812 25.323-30.346-.1-25.441-23.662-33.683-47.225-33.683-5.012 0-14.141.371-23.42.92-11.778.738-17.819 1.287-26.792 2.025v8.655c12.658 0 15.31 2.941 15.31 16.75v16.462c-17.442-3.682-28.888-23.088-28.888-50.362 0-28.878 13.567-49.185 33.383-49.185 7.457 0 14.013 2.984 19.232 8.384 5.222 5.401 8.944 13.229 10.587 22.728h7.001L95.401 2.98H89.88c-.595 1.864-1.337 2.613-2.688 2.613C83.471 5.593 74.68 0 58.728 0 41.443 0 26.682 6.338 16.401 17.517 5.967 28.878 0 44.345 0 62.974c0 12.854 3.725 27.388 12.227 38.937 8.491 11.553 22.211 19.937 42.177 19.937.342 0 .67-.028 1.016-.035v36.328c0 13.435-2.945 16.198-15.31 16.198v8.655h55.809v-8.655c-11.493 0-15.76-1.658-15.76-15.278v-24.668h7.803s28.767 48.608 29.551 48.608c2.036-.007 34.353-.021 34.353-.021v-8.609c0-.001-6.491 1.065-12.53-4.2M6.167 62.072c.029-38.556 30.285-50.415 30.285-50.415s-16.051 15.556-16.105 48.19c-.047 30.303 14.989 49.189 14.989 49.189S6.131 101.572 6.167 62.072m67.996 112.237H61.448V75.65l12.715-.881v99.54zm55.876-74.583c.064 19.381-23.644 24.261-23.644 24.261s8.758-5.276 8.762-24.044c.01-18.95-8.377-24.308-8.377-24.308s23.196 2.093 23.259 24.091m-49.88 25.644v-6.078c.556-.021 1.127-.054 1.672-.054 1.796 0 3.429 0 4.769.374 1.49.185 2.987.556 4.324 1.116l.453-1.305c4.317-12.665 7.896-26.453 9.086-37.076h-7.004c-3.561 9.546-8.01 16.694-13.3 21.467V74.381h7.215c14.28 0 21.798 9.571 21.798 24.111 0 18.964-7.653 27.245-29.013 26.878m38.042 48.993s-16.384-29.294-23.912-39.789c0 0 5.528-.873 8.224-1.65 2.459-.699 4.249-1.408 4.249-1.408 6.424 3.233 15.599 17.574 20.504 29.298 5.283 10.58 9.065 13.592 9.065 13.592l-18.13-.043z" fill="#c4ced4"/><path fill="#33006f" d="M61.449 174.311h12.714V74.767l-12.714.881zM115.159 99.941c-.007 18.768-8.762 24.047-8.762 24.047s23.705-4.884 23.644-24.265c-.068-21.998-23.263-24.09-23.263-24.09s8.391 5.362 8.381 24.308M127.266 160.814c-4.905-11.728-14.081-26.065-20.504-29.298 0 0-1.789.706-4.249 1.408-2.695.777-8.224 1.65-8.224 1.65 7.529 10.494 23.912 39.789 23.912 39.789l18.13.043s-3.782-3.012-9.065-13.592"/><path fill="#c4ced4" d="M167.644 176.391l-1.597 4.317h-.036l-1.536-4.317h-2.339V183h1.355v-5.258h.028l1.85 5.258h1.302l1.914-5.258h.032V183h1.347v-6.609zM155.596 177.567h1.992V183h1.347v-5.433h1.99v-1.176h-5.329z"/></svg>