<svg xmlns="http://www.w3.org/2000/svg" viewBox="0 0 156.412 138.076"><title>Tampa Bay Rays hat dark logo</title><path d="M150.415 127.305h-1.337v3.613h-.9v-3.613h-1.317v-.772h3.555v.772zm5.997 3.613h-.89v-3.496h-.024l-1.28 3.496h-.863l-1.226-3.496h-.03v3.496h-.894v-4.385h1.558l1.03 2.862h.005l1.07-2.862h1.542v4.385z" fill="#092C5C"/><path d="M38.17 8.32H15.424l-.107.05C7.222 11.56 4.458 22.724 3.908 25.38c0 .01-.01.06-.01.08l-3.53-.196L0 28.224l6.485.34.263-1.28c.435-2.138 3.003-12.88 10.38-15.907h21.04V8.32zm57.905 32.686v88.213h.04c.677 0 4.5.01 9.29.01-2.006 0-4.994 0-6.293-.01V43.954c1.338-.04 3.857-.098 3.857-.098.175-.01 8.793-.4 14.55 5.05 3.413 3.24 5.185 7.92 5.293 13.925.01-.322.015-.654.015-.977 0-22.265-21.368-21.054-21.368-21.054-1.128 0-3.564 0-4.848.147l-.537.06zm6.27 42.207v5.77l1.4.11c2.57.214 24.864 2.49 25.303 19.56.015-.352.025-.684.025-1.026 0-19.102-24.605-21.406-26.724-21.572v-2.842h-.006zM73.384 93.76s-13.038-2.373-15.142-2.754V11.348h21.07c6.89 2.86 9.926 15.234 10.692 18.974l.26 1.28 6.483-.342L93.072 0h-2.715l3.33 28.29-.347.03-.664.04-2.54.126c-.53-2.548-3.568-16.884-11.732-20.136l-.103-.04H55.357v82.442s14.215 2.588 15.157 2.754v4.54H23.13l-.01 3.048h50.264V93.76zm5.673-51.006s-14.85-2.44-15.79-2.598v-4.55h-.01v7.373s13.637 2.245 15.79 2.586l.01-2.812zm63.267 48.125c-4.912-4.806-11.436-6.77-16.226-7.58 6.747-3.34 16.723-10.566 16.723-24.15 0-16.064-10.826-23.545-34.068-23.545h-1.27c21.436.05 32.31 6.456 32.31 22.022 0 19.473-21.63 25.068-21.63 25.068v.03s27.9-.664 27.9 24.19c0 18.935-12.134 28.114-32.925 28.114H63.267v-4.307c-.01.01-.02.01-.02.01l.01 1.27v6.073h51.392c22.21 0 34.447-10.527 34.447-29.638 0-7.266-2.275-13.165-6.772-17.56" fill="#8FBCE6"/><path d="M63.267 135.04H113.14c20.79 0 32.925-9.19 32.925-28.126 0-24.853-27.9-24.19-27.9-24.19v-.03s21.63-5.594 21.63-25.067c0-15.566-10.874-21.973-32.31-22.012-.087-.01-.16-.01-.234-.01H63.268v4.551c.942.157 15.79 2.598 15.79 2.598v84.98h-.01c-.4.06-14.862 2.588-15.78 2.754v4.551zm59.56-73.185c0 .323-.004.655-.014.977-.69 18.203-20.46 20.234-20.46 20.234v2.989c2.115.166 26.72 2.47 26.72 21.572 0 .342-.01.674-.025 1.025-.4 10.342-7.12 20.577-23.15 20.577h-.492c-4.79 0-8.614-.01-9.292-.01h-.04V41.005l.538-.06c1.284-.145 3.72-.145 4.848-.145 0 0 21.368-1.21 21.368 21.055" fill="#092C5C"/><path d="M23.13 93.506v4.54h47.382v-4.54c-.94-.166-15.15-2.754-15.15-2.754V8.302h22.934l.005.01.11.038c8.158 3.252 11.195 17.597 11.727 20.136l2.544-.127.66-.04.347-.03L90.357.01V0L3.38.04.366 25.263l3.53.195c0-.02.01-.06.01-.08.55-2.655 3.315-13.818 11.416-17.01l.102-.05H38.17v82.432s-13.95 2.588-15.04 2.754" fill="#092C5C"/></svg>