<svg xmlns="http://www.w3.org/2000/svg" viewBox="0 0 233.564 233.575"><title>Chicago Cubs hat dark logo</title><path d="M0 116.787C0 52.29 52.284 0 116.77 0c64.51 0 116.794 52.29 116.794 116.787 0 64.498-52.284 116.787-116.793 116.787C52.285 233.574 0 181.284 0 116.787z" fill="#FFF"/><path d="M7.53 116.328c0-60.31 48.894-109.215 109.21-109.215 60.31 0 109.22 48.905 109.22 109.215s-48.91 109.226-109.22 109.226c-60.316 0-109.21-48.916-109.21-109.226zm109.21 80.688c44.546 0 80.667-36.13 80.667-80.688 0-44.547-36.12-80.668-80.668-80.668-44.553 0-80.67 36.12-80.67 80.668.002 44.558 36.117 80.688 80.67 80.688z" fill="#0E3386"/><path d="M152.256 139.14c-7.513 11.664-20.607 19.397-35.516 19.397-23.31 0-42.192-18.894-42.192-42.208 0-23.284 18.882-42.198 42.192-42.198 15.358 0 28.81 8.224 36.2 20.506l20.768-20.26c-12.896-17.473-33.6-28.795-56.968-28.795-39.063 0-70.746 31.7-70.746 70.746 0 39.067 31.683 70.734 70.746 70.734 23.122 0 43.644-11.075 56.546-28.206l-21.03-19.717z" fill="#CC3433"/><path d="M104.254 123.345V97.69h12.71v25.964c0 9.324-2.2 11.503-9.597 11.503H94.15c-6.094 0-8.063-3.942-8.063-12.187V97.69H98.79v25.654c0 3.493 5.464 3.493 5.464 0M121.567 135.157V97.69h20.063c7.556 0 10.798 1.774 10.798 10.543 0 4.603-.876 6.995-3.508 8.32 3.508 1.964 3.508 5.692 3.508 8.98 0 8.31-3.675 9.624-10.798 9.624h-20.063z" fill="#CC3433"/><path d="M140.316 107.9c-.044-1.527-1.485-1.42-5.405-1.42v5.255c2.19 0 5.406.224 5.406-1.752V107.9zM140.224 123.163c-.667-1.795-1.04-1.58-5.313-1.58v5.254c2.735 0 5.314.224 5.314-1.75 0-.482.13-1.55 0-1.924z" fill="#FFF"/><path d="M177.776 135.157c6.84 0 10.382-1.858 10.382-7.904 0-.737-.038-7.636-.038-8.384.038-4.39-3.118-7.242-7.53-7.242h-9.152c-2.484 0-1.928-3.62-1.928-4.71 0-1.75 5.174-2.296 5.174.556v1.74h13.474c0-8.746-1.597-11.523-10.382-11.523-2.03.033-9.51.033-11.84.033-5.627 0-8.703 2.2-8.917 8.758-.204 6.57 0 3.718 0 6.142 0 2.393-.37 7.765 7 7.765h9.296c2.633 0 2.11 3.065 2.11 3.065v1.954c0 2.21-4.443 2.307-5.446.49-.663-1.195-.31-3.096-.31-3.096h-12.65c0 2.606-1.422 12.357 6.215 12.357h14.54z" fill="#CC3433"/><g><path d="M174.54 141.79h-2.162v5.916h-1.47v-5.917h-2.157v-1.283h5.79v1.282zm9.842 5.916h-1.473v-5.713h-.028l-2.082 5.713h-1.42l-2.004-5.713h-.054v5.713h-1.452v-7.198h2.532l1.677 4.72h.03l1.748-4.72h2.525v7.198z" fill="#0E3386"/></g></svg>