<svg xmlns="http://www.w3.org/2000/svg" viewBox="0 0 130.088 148.232"><title>Texas Rangers cap logo</title><path fill="#003278" d="M17.085 42.598l-.035 4.335H0l6.29 7.93h18.275l.015-3.125c0-17.383 1.65-28.398 19.83-30.38v-2.305c-19.625.068-27.316 6.6-27.325 23.545m58.823 30.419v38.213c0 1.973.454 3.897 5.81 3.897h2.706V76.592c0-7.813 10.82-10.8 10.82-10.8s-2.652-1.056-5.347-2.97l-4.673 1.328c-.097.02-9.316 2.715-9.316 8.867M122.002.293v46.64h-12.657l6.768 8.467h13.975V8.818M75.908 50.79c0 4.737 6.86 8.458 9.507 9.474l2.578 1.005c-1.968-1.797-3.57-4.122-3.57-6.885v-32.51l1.534.107c4.6 0 8.95 1.563 12.578 4.21-4.854-4.512-12.485-6.934-22.627-7.012v31.61zm-43.633 88.624v.078l6.65 8.74h60.152v-20.136l-7.14-8.3v19.618"></path><path fill="#c0111f" d="M.43 42.842h12.65c0-.127.025-.215.025-.313 0-.313-.024-.43-.102-.138 0-18.994 9.75-27.44 31.6-27.44h3.898v35.84c0 5.868-3.964 9.325-7.148 11.298 3.208 1.806 7.15 5.04 7.15 10.918v37.89c0 5.127-3.65 8.31-9.533 8.31h-6.53v16.134h55.41V119.21h-6.13c-8.178 0-9.897-4.327-9.897-7.98V73.008c0-5.86 4.605-9.18 8.204-10.987-3.555-2.118-8.203-5.77-8.203-11.23V16.983l1.52-1.963h2.045c21.172 0 33.32 9.62 33.32 26.396 0 0-.004.752-.02 1.426h9.23V0H.43v42.842z"></path><path fill="#003278" d="M101.753 140.967h2.148v5.84h1.446v-5.84h2.124v-1.26h-5.717m11.229 4.639h-.04l-1.654-4.64h-2.506v7.1h1.45v-5.654h.034l1.978 5.655h1.406l2.056-5.655h.03v5.655h1.454v-7.1h-2.5"></path></svg>
