<svg xmlns="http://www.w3.org/2000/svg" viewBox="0 0 128.692 146.566"><title>Texas Rangers light logo</title><path d="M19.95 44.93l-.022 4.164h-16.4L9.57 56.74h17.59l.01-3.02c0-16.71 1.59-27.322 19.08-29.216v-2.22c-18.88.044-26.28 6.334-26.3 22.645M76.558 74.2v36.756c0 1.903.432 3.765 5.596 3.765h2.598V77.638c0-7.52 10.417-10.39 10.417-10.39s-2.562-1-5.144-2.85l-4.506 1.26c-.085.033-8.962 2.62-8.962 8.542M120.91 4.217v44.877h-12.18l6.506 8.15h13.456V12.432M76.558 52.817c0 4.544 6.605 8.13 9.145 9.12l2.48.977c-1.897-1.757-3.432-3.997-3.432-6.647v-31.28l1.468.096c4.433 0 8.62 1.504 12.11 4.06-4.67-4.343-12.005-6.658-21.77-6.752v30.427zM34.574 138.09v.062l6.4 8.414H98.85v-19.362l-6.862-8.014v18.9" fill="#CC3433"/><path d="M3.933 45.172h12.184c0-.127.01-.22.01-.306 0-.294-.025-.42-.094-.146 0-18.258 9.38-26.398 30.41-26.398h3.744v34.496c0 5.627-3.812 8.96-6.878 10.853 3.08 1.747 6.877 4.87 6.877 10.53v36.45c0 4.933-3.513 8.005-9.17 8.005h-6.28v15.503h53.317v-15.503h-5.9c-7.878 0-9.53-4.175-9.53-7.698V74.2c0-5.64 4.424-8.846 7.89-10.592-3.42-2.03-7.89-5.554-7.89-10.79v-32.52l1.468-1.893h1.968c20.366 0 32.06 9.245 32.06 25.388l-.02 1.378h8.872V3.945H3.932v41.228z" fill="#FFF"/><path d="M120.91 4.217V0H0v49.094H19.928l.023-4.165c.02-16.312 7.42-22.602 26.3-22.644V52.816c0 6.28-7.83 9.078-7.92 9.078l-5.822 2.04 5.916 1.725c.332.094 7.825 2.345 7.825 8.54v36.45c0 1 0 4.06-5.233 4.06H30.81v23.38h61.177v-23.38h-9.833c-5.164 0-5.596-1.85-5.596-3.754V74.2c0-5.922 8.877-8.51 8.96-8.54l4.507-1.263 1.142-.336-2.982-1.157-2.48-.967c-2.542-.99-9.146-4.575-9.146-9.12V22.392c9.76.096 17.106 2.41 21.776 6.753 3.83 3.555 5.848 8.466 5.848 14.63l-.053 5.32h16.78V4.217zm-3.94 40.955h-8.87l.02-1.378c0-16.143-11.695-25.388-32.06-25.388h-1.97L72.625 20.3v32.517c0 5.237 4.47 8.76 7.888 10.79-3.465 1.747-7.888 4.954-7.888 10.592v36.756c0 3.523 1.65 7.698 9.53 7.698h5.9v15.503H34.736v-15.503h6.28c5.657 0 9.17-3.07 9.17-8.004V74.2c0-5.66-3.796-8.784-6.878-10.53 3.065-1.89 6.877-5.225 6.877-10.852V18.32h-3.743c-21.03 0-30.41 8.142-30.41 26.4.068-.275.094-.15.094.145 0 .085-.01.18-.01.306H3.932V3.945H116.97v41.228z" fill="#003278"/><path fill="#FFF" d="M101.426 139.583h2.06v5.616h1.395v-5.617h2.047v-1.21h-5.5M112.228 142.822h-.038l-1.587-4.448h-2.42v6.825h1.41v-5.428h.02l1.915 5.427h1.346l1.977-5.428h.032v5.427h1.4v-6.826h-2.403"/></svg>