<svg xmlns="http://www.w3.org/2000/svg" viewBox="0 0 248.804 248.404"><title>Washington Nationals dark logo</title><path d="M226.398 6.898c-23.083-18.502-44.05 4.622-44.05 17.874 23.117 4.91 43.72 28.035 34.478 88.096-7.52 49.08-36.48 79.66-54.726 80.256 15.12-20.66 25.273-44.008 30.813-66.842 16.553-68.146-9.95-90.142-30.95-91.173-25.507-1.272-51.02 33.46-58.14 74.442-5.627 32.48-4.934 65.633 14.833 89.948-17.455 22.06-59.435 28.872-52.07-24.265 6.184-44.476 28.278-93.508 40.492-117.63l.363-.645c6.562-13.43 11.764-22.963 14.002-26.747l-4.92-.064C68.747 30.97 30.8 41.984 13.088 66.17-3.5 88.813-3.98 112.645 9.722 126.8l2.005 1.98c4.01 4.04 9.275 6.12 14.517 6.12h.04c4.726 0 9.524-1.772 13.132-5.396 3.614-3.59 5.394-8.404 5.38-13.138 0-5.25-2.095-10.515-6.128-14.525-2.11-2.11-4.574-3.688-7.19-4.72l.08-.144c.355-.87.782-1.707 1.248-2.528 3.204-5.62 8.8-10.74 16.095-14.413 5.726-2.882 12.488-4.863 19.8-5.603l-1.154 2.463c-10.128 18.76-24.927 54.49-29.588 73.122-14.565 58.26 8.977 92.38 34.428 97.147 30.643 5.717 54.185-9.146 66.616-28.34 14.832 9.403 53.977 14.83 83.403-37.568C256.27 120.872 257.5 31.84 226.398 6.898zm-86.624 172.555c-5.82-14.154-8.477-30.82-8.477-46.633 0-19.098 3.807-36.858 10.4-47.277 4.35-6.86 9.494-10.177 15.33-9.806 2.07.162 4.422.838 6.08 4.83 1.353 3.236 1.965 7.52 1.965 12.51 0 24.913-14.88 67.376-25.298 86.376zM222.05 195.718c0-3.286 2.568-5.234 5.428-5.234 2.818 0 5.394 1.947 5.394 5.234 0 3.3-2.576 5.265-5.394 5.265-2.86 0-5.427-1.964-5.427-5.265zm5.428-4.236c-2.262 0-4.05 1.723-4.05 4.236 0 2.528 1.788 4.234 4.05 4.234 2.165 0 4.008-1.707 4.008-4.234 0-2.513-1.843-4.236-4.008-4.236zm-.902 7.118h-1.248v-5.75h2.157c1.507 0 2.368.402 2.368 1.74 0 1.062-.612 1.48-1.594 1.53l1.496 2.48h-1.263l-1.346-2.4h-.57v2.4zm0-3.365h1.087c.684 0 .942-.323.942-.773 0-.53-.394-.628-1.014-.628h-1.013v1.4z" fill="#AB0003"/></svg>