<svg viewBox="0 0 132.3 165.9" xmlns="http://www.w3.org/2000/svg"><path d="m15 56c0 9.3 5.4 16.5 13.6 18.2v-36c-8.1 2.4-13.6 9.6-13.6 17.8zm95.9 49.9c0-5.6-3.1-9.9-9.2-12.8s-13.1-3.5-16-3.5v9.8c0 .4.1.8.2 1.2l1.6 3.6c.3.7.3 1.5-.2 2.1-.4.6-1.1 1-1.9 1h-14.6c-.7 0-1.4-.4-1.9-1-.4-.6-.5-1.4-.2-2.1l1.5-3.6c.1-.3.2-.7.2-1.1v-9.9h-25.5v29.4c11.3 3.2 22.6 4.9 32.6 4.9 20.6-.1 33.4-6.9 33.4-18z" fill="none"/><g fill="#be0a14"><path d="m131.6 151.4-7.7-8.3c-.5-.6-1.3-.9-2.1-.9s-1.5.3-2 .8c-6.1 6.1-13 6.6-14.9 6.6h-55.8c-2.5 0-4.1-1.1-4.1-3.1v-12c8 2.1 14.5 3.4 21.6 4.1 3.9.4 7.7.6 11.4.6 13.8 0 25.5-2.8 34-8.1 9.5-6 14.5-15.1 14.5-26.4 0-7.4-4.2-15-11.6-20.7-7.7-6-18-9.5-29.1-9.8v-8.8h.1c6.4 0 10 1.5 10.1 1.5h.1s.7.2 1 .2c.6 0 1.2-.2 1.6-.6.8-.8.8-2.2.8-3v-8.3c-.1-1.4-1.2-2.1-2.2-2.1h-38.2c-1 0-2.1.7-2.2 2.1v8.3c0 .8 0 2.2.8 3 .4.4 1 .6 1.6.6.3 0 1-.2 1-.2h.1s3.7-1.5 10.1-1.5h.1v8.7h-25.7v-36.6h1.3c15.9 0 39.6 2.3 58.3 8.9.3.1.6.2.9.2 1 0 1.9-.5 2.4-1.3l1.2-2c1.6-2.6 3.5-5.8 6.1-10.3.5-.9.5-1.8.1-2.6-.5-.8-1.4-1.3-2.5-1.3-.3 0-.7 0-1 .1-3.9 1-5.9 1.4-7.7 1.4s-3.3-.4-5.9-1.1c-.9-.2-1.8-.5-2.9-.8-7.6-1.9-27.6-6.4-48.5-6.4h-1.7v-4.7c0-2.9 2.4-5.3 5.3-5.3h1.5c1.6 0 2.8-1.3 2.8-2.8v-6.7c0-1.6-1.3-2.8-2.8-2.8h-30c-1.5 0-2.8 1.3-2.8 2.8v6.7c0 1.6 1.3 2.8 2.8 2.8h1.5c2.9 0 5.3 2.4 5.3 5.3v5.2c-16.3 2.9-28.6 17.3-28.6 33.9s12 30.3 28.6 33v23.5c-3.7-1.6-7.3-3.2-10.6-4.9-1.6-.9-3-1.6-4.1-2.4-.4-.3-.9-.4-1.4-.4h-.2c-.8 0-1.5.3-2.1.9l-1.5 1.7c-1.1 1.2-2.3 2.6-3.7 4.2-1.2 1.4-2.6 2.9-4.2 4.6-.5.6-.8 1.2-.7 1.9 0 .6.2 1.3.7 1.7.6.6 1.4 1 2.4 1h.3c2.3-.2 4-.3 5.4-.3 3.2.2 4.6.9 8 2.6.8.4 1.7.8 2.7 1.3 2 1 5.2 2.5 9.2 4.2v17.1c0 3-4.7 3.3-6.7 3.3h-1.3c-1 .2-1.6 1.2-1.6 2.2v11c0 1.6 1.3 2.8 2.8 2.8h83.1c10.8 0 19.5-3.5 26.6-10.6.8-.9.9-2.6-.1-3.7zm-86.7-61.8h25.5v9.9c0 .4-.1.7-.2 1.1l-1.5 3.6c-.3.7-.2 1.5.2 2.1s1.1 1 1.9 1h14.7c.8 0 1.5-.4 1.9-1s.5-1.4.2-2.1l-1.6-3.6c-.2-.4-.2-.8-.2-1.2v-9.8c2.9.1 9.9.6 16 3.5s9.2 7.2 9.2 12.8c0 11-12.8 17.9-33.4 17.9-10 0-21.3-1.7-32.6-4.9v-29.3zm-16.3-15.4c-8.2-1.7-13.6-8.9-13.6-18.2 0-8.2 5.6-15.3 13.6-17.7z"/><path d="m125.6 162.9h-.9c-.1 0-.1-.1-.1-.1v-.5c0-.1.1-.1.1-.1h2.9c.1 0 .1.1.1.1v.5c0 .1-.1.1-.1.1h-.9c-.1 0-.1.1-.1.1v2.8c0 .1-.1.1-.1.1h-.6c-.1 0-.1-.1-.1-.1v-2.8c0-.1-.1-.1-.2-.1zm3-.8h.7c.1 0 .1 0 .1.1l.9 1.4c0 .1.1.1.1 0l.9-1.4.1-.1h.7c.1 0 .1.1.1.1v3.6c0 .1-.1.1-.1.1h-.5c-.1 0-.1-.1-.1-.1v-2.1c0-.1-.1-.1-.2 0l-.9 1.4-.9-1.4c0-.1-.2 0-.2 0v2.1c0 .1-.1.1-.1.1h-.5c-.1 0-.1-.1-.1-.1v-3.6c-.2-.1-.1-.1 0-.1z"/></g></svg>