<svg viewBox="0 0 136.2 158.7" xmlns="http://www.w3.org/2000/svg"><path d="m110.7 100.7c0-12.7-16.1-16.1-25.1-16.2-.2 0-.4.2-.4.4v9.7c0 .5.1 1 .3 1.5l1.5 3.3c.3.7-.2 1.4-.9 1.4h-13.7c-.7 0-1.2-.7-.9-1.4l1.4-3.4c.2-.4.3-.9.3-1.4v-9.8c0-.2-.2-.4-.4-.4h-25c-.2 0-.4.2-.4.4v28.6s0 .1.1.1c34.1 9.9 63.2 4 63.2-12.8zm-76.3-63.5c0-.3-.3-.5-.6-.4-8.2 2-14.3 9.2-14.3 17.7 0 9.1 5.5 16.7 14.3 18.1.3 0 .5-.2.5-.4v-35z" fill="none"/><path d="m27.1 158.8c-2.8 0-5.1-2.3-5.1-5.1v-10.2c0-2.3 1.7-4.3 3.9-4.6.6-.1 1.2-.1 1.9-.1 2.8 0 3.1-1.1 3.1-2v-12.7c-3.1-1.3-5.5-2.5-7.1-3.3-1-.5-1.8-.9-2.5-1.3-3-1.5-3.9-2-6.3-2.1-1.2 0-2.7.1-4.7.3h-.5c-1.6 0-3.1-.6-4.1-1.7-.8-.9-1.3-2.1-1.3-3.3s.4-2.4 1.3-3.4c1.5-1.6 2.8-3.1 3.9-4.3 1.3-1.5 2.4-2.7 3.4-3.9l1.4-1.6c1-1.1 2.3-1.7 3.8-1.7h.2c.9 0 1.8.3 2.6.7 1.1.6 2.3 1.3 3.7 2.1 1.9 1 4 2 6.1 2.9v-15.8c-15.5-3.4-26.5-16.7-26.5-32.6s11.2-29.8 26.5-33.4v-2.8c0-1.3-1.1-2.4-2.4-2.4h-1.4c-2.8 0-5.1-2.3-5.1-5.1v-6.2c0-2.8 2.3-5.1 5.1-5.1h27.7c2.8 0 5.1 2.3 5.1 5.1v6.2c0 2.8-2.3 5.1-5.1 5.1h-1.4c-1.3 0-2.4 1.1-2.4 2.4v1.8c19.3.1 37.6 4.2 44.7 6 1 .3 1.9.5 2.7.7 2.3.6 3.5.9 4.8.9 1.4 0 3.2-.3 6.5-1.2.5-.1 1.1-.2 1.6-.2 1.9 0 3.6.9 4.5 2.5.9 1.5.8 3.3-.1 4.9-2.4 4.2-4.2 7.2-5.7 9.6l-1.1 1.8c-.9 1.5-2.6 2.5-4.3 2.5-.6 0-1.1-.1-1.7-.3-16.5-5.8-37.4-8-51.9-8.1v28.9h18.6v-3c-3.8.3-5.9 1.1-5.9 1.1l-.1.1-.2.1c-.6.2-1.1.3-1.6.3-1.2 0-2.4-.5-3.2-1.3-1.5-1.6-1.5-3.7-1.5-4.7v-7.9c.2-2.4 2.1-4.2 4.5-4.2h35.2c2.4 0 4.4 1.9 4.5 4.2l.1 7.8c0 1 .1 3.1-1.4 4.6-.8.9-2 1.3-3.2 1.3-.6 0-1.2-.1-1.8-.3-.4-.1-3-.8-6.2-1.2v3.1c23.4 1.6 37.7 16.8 37.7 30.7 0 21.3-18.2 34.5-47.4 34.5-3.5 0-7.2-.2-10.8-.6-5.7-.6-11-1.6-17.2-3.1v6.4c0 1.9.9 1.9 2.9 1.9h50.1c1.6 0 7.1-.4 12.1-5.4 1-1 2.3-1.5 3.6-1.5 1.4 0 2.8.6 3.7 1.6l7.1 7.7c1.9 2 1.8 5.1-.2 7.1-7.1 7.1-15.7 10.6-26.4 10.6h-76.8zm23.8-48c9.7 2.6 19.2 3.9 27.7 3.9 17.3 0 28.5-5.5 28.5-14.1 0-8.5-10.7-11.7-18.4-12.5v6.4l1.5 3.3c.6 1.4.5 3-.3 4.3s-2.3 2.1-3.8 2.1h-13.7c-1.5 0-2.9-.8-3.8-2-.8-1.3-1-2.9-.4-4.3l1.4-3.4v-6.7h-18.7zm-20.1-69.1c-4.7 2.6-7.7 7.4-7.7 12.7 0 6.2 3 11.2 7.7 13.4z" fill="#fff"/><path d="m127.9 143.6-7.1-7.7c-.6-.6-1.6-.6-2.2 0-5 5-10.8 6.5-14.6 6.5h-50.2c-3.4 0-6.4-.3-6.4-3.8v-12.7c7.6 2.1 13.9 3.4 21.1 4.1 28.2 3 54.3-5.7 54.3-30.3 0-13.1-15.1-26.8-37.3-27.2-.2 0-.4-.2-.4-.4v-9.4c0-.2.2-.4.4-.4 5.6 0 10.4 1.5 10.4 1.5 2 .8 1.7-1.6 1.7-2.4l-.1-7.4c0-.5-.6-.8-.9-.8h-35.2c-.4 0-.9.3-.9.9v7.4c0 .9-.1 2.9 1.7 2.4 0 0 3.8-1.6 10.4-1.5.2 0 .4.2.4.4v9.4c0 .2-.2.4-.4.4h-24.8c-.2 0-.4-.2-.4-.4v-35.5c0-.2.2-.4.4-.4 13.2-.2 37.2 1.6 56.2 8.2.7.2 1.4 0 1.8-.6 1.6-2.7 3.7-6.1 6.8-11.4.7-1.3-.4-2.3-2-1.9-8.3 2.2-8.6 1.4-15.9-.4-8.3-2.1-27.7-6.2-47-5.9-.2 0-.5-.2-.5-.4v-5c0-3.3 2.7-6 6-6h1.4c.8 0 1.5-.7 1.5-1.5v-6.2c0-.8-.7-1.5-1.5-1.5h-27.5c-.8 0-1.5.7-1.5 1.5v6.2c0 .8.7 1.5 1.5 1.5h1.4c3.3 0 6 2.7 6 6v5.4c0 .2-.2.4-.4.4-14.8 2.3-26.2 15.1-26.2 30.4 0 15.4 11.4 27.4 26.1 29.5.2 0 .4.2.4.4v24c-3.9-1.6-7.7-3.3-11.4-5.2-1.3-.7-2.6-1.5-3.9-2.2-.3-.2-.6-.2-.9-.2-.5 0-.9.1-1.2.5-1.3 1.5-2.9 3.2-4.9 5.5-1.2 1.3-2.4 2.7-3.9 4.3-.3.3-.4.7-.4 1-.1.8.7 1.5 1.9 1.4 2-.2 3.7-.2 5.1-.3 3.9.2 5.3 1.3 10.3 3.7 2.2 1.1 5.4 2.5 9.1 4.1v16.6c0 4.8-5.9 3.9-8.2 4.1-.5.1-.7.6-.7 1v10.2c0 .8.7 1.5 1.5 1.5h77.2c9.8 0 17.5-3.2 23.9-9.5.5-.4.6-1.3 0-1.9zm-80.5-58.7c0-.2.2-.4.4-.4h24.9c.2 0 .4.2.4.4v9.8c0 .5-.1.9-.3 1.4l-1.4 3.4c-.3.6.2 1.4.9 1.4h13.7c.7 0 1.2-.7.9-1.4l-1.5-3.3c-.2-.5-.3-1-.3-1.5v-9.7c0-.2.2-.5.4-.4 9 .1 25.1 3.6 25.1 16.2 0 16.8-29 22.7-63.3 12.9 0 0-.1 0-.1-.1v-28.7zm-13.5-12.4c-8.8-1.4-14.3-8.9-14.3-18.1 0-8.5 6.1-15.7 14.3-17.7.3-.1.6.1.6.4v34.9c-.1.3-.3.5-.6.5z" fill="#be0a14"/><path d="m125.7 155.9h-.8c-.1 0-.1-.1-.1-.1v-.5c0-.1.1-.1.1-.1h2.7c.1 0 .1.1.1.1v.5c0 .1-.1.1-.1.1h-.8c-.1 0-.1.1-.1.1v2.6c0 .1-.1.1-.1.1h-.6c-.1 0-.1-.1-.1-.1v-2.6c-.1 0-.1-.1-.2-.1zm2.8-.7h.6s.1 0 .1.1l.8 1.3h.1l.8-1.3.1-.1h.6c.1 0 .1.1.1.1v3.3c0 .1-.1.1-.1.1h-.5c-.1 0-.1-.1-.1-.1v-1.9c0-.1-.1-.1-.1 0l-.9 1.3-.9-1.3c0-.1-.1 0-.1 0v1.9c0 .1-.1.1-.1.1h-.5c-.1 0-.1-.1-.1-.1v-3.3s.1-.1.2-.1z" fill="#fff"/></svg>