<svg enable-background="new 0 0 34.11 46.49" viewBox="0 0 34.11 46.49" xmlns="http://www.w3.org/2000/svg"><path d="m29.73 21.11-.37-.11c-1.773-.943-3.202-2.424-4.08-4.23l-.17-.44-.46.15c-.79.27-6.21.24-9.76.15v-2.97h11.34c1.212.267 2.104 1.301 2.19 2.54l.06.43h5.63l-.39-.74c-.999-2.115-1.557-4.412-1.64-6.75l.05-.76-.77.28c-1.19.42-20.38.81-22.28.17l-.59-.2-.07.63c-.035 1.06-.342 2.093-.89 3l-.43.87.59.16c1.74.47 1.83.71 1.84 3.23l-1.85-.07-1.68-1.65v-7.8c.26-.23 1.49-1.31 1.72-1.5h15.04l1.83 2h5.32l-.28-.69c-.44-.971-.566-2.054-.36-3.1v-.4l-.39-.12c-1.51-.482-2.802-1.481-3.65-2.82l-.23-.32-.38.13c-1.86.71-17.46.72-18.96.02l-.42-.2-.24.41c-1.041 1.544-2.459 2.797-4.12 3.64l-.39.19.12.41c.59 1.94.58 9.8 0 12l-.11.39.37.18c1.706.9 3.133 2.249 4.13 3.9l.15.27 4.38-.05v11.66h-2l-1.53-1.86v-6.43h-6l.29.69c.507 2.595.619 5.252.33 7.88l-.17.46.46.18c1.727.939 3.147 2.355 4.09 4.08l.17.37.39-.08c1.32-.231 2.66-.331 4-.3v2c-.28 1.051-1.253 1.766-2.34 1.72h-.8l.38.7c.599 1.121 1.005 2.334 1.2 3.59v.49h8.41v-.48c.22-1.256.65-2.466 1.27-3.58l.36-.67-.76-.06c-1.42-.13-2.11-.43-2.47-1.85 0 0 0-1.25 0-1.86 1.75-.05 8-.19 9.79.31l.4.1.18-.37c.939-1.754 2.376-3.191 4.13-4.13l.32-.15-.05-.36c-.47-3.946-.47-7.934 0-11.88zm-5.41 10c-.2.22-1.33 1.54-1.57 1.81h-7.86v-3.59c1.17-.08 5.06-.25 6.85.67l1.17.6-.47-1.24c-.236-1.494-.236-3.016 0-4.51l.4-1.27-1.14.69c-1.26.76-5 .73-6.82.64v-3.57c2.51 0 6.25 0 7.57.14l1.86 2.16z" fill="#e6d8af"/><path d="m24.73 17.09c-1.54.39-10 .17-10.34.16h-.17v-4.25h12c1.482.287 2.607 1.501 2.78 3h4c-.928-2.061-1.47-4.274-1.6-6.53v-.15c-2.25.53-20.08.69-22.34.18-.064 1.092-.382 2.154-.93 3.1l-.08.15c2.08.61 2.15 1.35 2.15 4.1v.4h-.2s-2.57-.11-2.68-.16-2-2-2.07-2.08l.06-8.35s2-1.78 2.14-1.82l15.63.06s1.71 1.9 1.71 2h4.12c-.266-.616-.406-1.279-.41-1.95 0-.32 0-.69.07-1.12-1.584-.539-2.94-1.596-3.85-3-2 .63-17 .82-19.23 0-1.071 1.582-2.518 2.874-4.21 3.76.348 1.909.496 3.85.44 5.79.047 2.119-.101 4.238-.44 6.33 1.747.899 3.193 2.289 4.16 4h4.76v12.91h-.2l-2.89-.06s-1.83-2.13-1.87-2.23 0-5.64 0-6h-4.24c.364 1.793.529 3.621.49 5.45.028.854-.036 1.709-.19 2.55 1.795.991 3.275 2.467 4.27 4.26 1.487-.239 2.994-.336 4.5-.29h.16v2.7c-.285 1.305-1.425 2.246-2.76 2.28.604 1.104 1.023 2.3 1.24 3.54h7.16c.216-1.221.628-2.4 1.22-3.49-1.408.059-2.639-.94-2.87-2.33v-2.66h.17c.33 0 8.07-.28 10.35.29.946-1.799 2.437-3.251 4.26-4.15-.249-2.151-.369-4.315-.36-6.48-.014-1.833.106-3.665.36-5.48-1.843-1.005-3.334-2.551-4.27-4.43zm-3 12.24c-.115-.771-.159-1.551-.13-2.33-.004-.67.05-1.339.16-2-2 .93-7.15.63-7.38.62h-.16v-4.95h.17c2.56 0 7.06 0 8.43.21 0 0 2.12 2.47 2.16 2.57v8s-1.83 2.13-2 2.19h-8.76v-4.94h.16c.21-.03 5.03-.4 7.39.63z"/><path d="m19.6 44.36h-.54v1.47h-.37v-1.47h-.54v-.36h1.45zm2.47 1.47h-.37v-1.43l-.52 1.43h-.36l-.5-1.43v1.43h-.37v-1.83h.64l.41 1.21.43-1.21h.64z"/></svg>